<?xml version="1.0" standalone="no"?>
<!DOCTYPE svg PUBLIC "-//W3C//DTD SVG 1.1//EN" "http://www.w3.org/Graphics/SVG/1.1/DTD/svg11.dtd">
<svg xmlns="http://www.w3.org/2000/svg">
<defs >
<font id="InriaSans" horiz-adv-x="550" ><font-face
    font-family="Inria Sans"
    units-per-em="1000"
    panose-1="0 0 0 0 0 0 0 0 0 0"
    ascent="976"
    descent="-223"
    alphabetic="0" />
<glyph unicode=" " glyph-name="space" horiz-adv-x="218" />
<glyph unicode="!" glyph-name="exclam" horiz-adv-x="280" d="M161 182H95L131 430L175 680H257L213 430L161 182ZM142 0H50L66 91H158L142 0Z" />
<glyph unicode="&quot;" glyph-name="quotedbl" horiz-adv-x="353" d="M155 430H101L118 602L132 680H212L198 602L155 430ZM316 430H262L279 602L293 680H373L359 602L316 430Z" />
<glyph unicode="#" glyph-name="numbersign" horiz-adv-x="638" d="M255 0L348 195H182L89 0H12L105 195H6L18 261H137L212 418H116L127 484H244L338 680H415L321 484H487L581 680H658L564 484H663L652 418H532L457 261H554L542 195H425L332 0H255ZM214 261H380L455
418H289L214 261Z" />
<glyph unicode="$" glyph-name="dollar" horiz-adv-x="506" d="M450 193Q450 145 431 102T367 29T251 -8L230 -133H150L171 -9Q131 -5 90 6T5 38L35 113Q85 89 126 79T208 68Q282 68 320 100T359 186Q359 256 278 292L206 324Q145 351 116 391T87 493Q87 545 108
588T175 659T294 690L316 813H396L373 685Q433 676 495 646L465 571Q422 591 386 601T313 611Q246 611 212 581T177 498Q177 464 195 442T257 399L328 367Q386 342 418 301T450 193Z" />
<glyph unicode="%" glyph-name="percent" horiz-adv-x="761" d="M355 501Q345 438 308 407T210 375Q143 375 112 418T90 522L95 558Q105 621 142 653T240 685Q308 685 339 642T361 537L355 501ZM590 680H665L201 0H127L590 680ZM291 502L296 538Q302 579 288 602T238
625Q207 625 186 609T160 557L155 521Q148 481 162 458T212 434Q244 434 265 451T291 502ZM697 121Q687 58 650 27T552 -5Q485 -5 454 38T432 142L437 178Q447 241 484 273T582 305Q650 305 681 262T703 157L697 121ZM633 122L638 158Q644 199 630 222T580 245Q549
245 528 229T502 177L497 141Q490 101 504 78T554 54Q586 54 607 71T633 122Z" />
<glyph unicode="&amp;" glyph-name="ampersand" horiz-adv-x="566" d="M457 187Q457 123 425 80T339 13T215 -10Q122 -10 67 32T11 157Q11 299 195 352Q153 387 127 431T101 528Q101 605 152 647T288 690Q357 690 400 662T457 590T454 493L374 478Q394 546 370
581T287 616Q247 616 216 597T185 524Q185 490 203 453T270 370L370 392Q438 407 480 420T557 449L582 375Q545 360 507 350T417 328L403 325Q457 262 457 187ZM95 161Q95 112 128 89T217 65Q285 65 329 98T374 194Q374 222 364 252T332 310L270 297Q176 277 136
245T95 161Z" />
<glyph unicode="&apos;" glyph-name="quotesingle" horiz-adv-x="192" d="M155 430H101L118 602L132 680H212L198 602L155 430Z" />
<glyph unicode="(" glyph-name="parenleft" horiz-adv-x="316" d="M145 193Q145 120 171 42T250 -104L187 -153Q126 -76 94 17T62 195V222Q62 361 132 498T346 750L391 687Q274 588 210 473T145 217V193Z" />
<glyph unicode=")" glyph-name="parenright" horiz-adv-x="315" d="M188 379V403Q188 477 161 555T83 701L145 750Q207 674 239 581T271 401V374Q271 236 201 99T-12 -153L-58 -90Q58 8 123 123T188 379Z" />
<glyph unicode="*" glyph-name="asterisk" horiz-adv-x="406" d="M362 339L295 306L281 335L240 459L159 355L136 334L84 388L107 409L213 487L90 532L62 547L96 612L124 597L231 521L236 652L242 683L315 670L309 639L270 515L395 550L427 554L437 481L406 476H274L348
367L362 339Z" />
<glyph unicode="+" glyph-name="plus" horiz-adv-x="588" d="M503 262H333L302 87H228L259 262H89L102 334H271L302 509H377L346 334H516L503 262Z" />
<glyph unicode="," glyph-name="comma" horiz-adv-x="192" d="M109 91L106 72Q93 -9 62 -73T-26 -208L-75 -177Q-44 -129 -26 -90T5 -8T27 91H109Z" />
<glyph unicode="-" glyph-name="hyphen" horiz-adv-x="392" d="M59 267L72 339H352L339 267H59Z" />
<glyph unicode="." glyph-name="period" horiz-adv-x="192" d="M98 0H6L22 91H114L98 0Z" />
<glyph unicode="/" glyph-name="slash" horiz-adv-x="364" d="M373 740H459L-21 -143H-107L373 740Z" />
<glyph unicode="0" glyph-name="zero" horiz-adv-x="613" d="M563 399L540 264Q516 131 451 61T277 -10Q203 -10 154 25T85 125T81 282L105 417Q128 548 193 619T368 690Q441 690 490 655T559 554T563 399ZM475 399Q494 503 464 557T364 611Q228 611 193 417L169
282Q151 177 180 123T279 68Q416 68 452 264L475 399Z" />
<glyph unicode="1" glyph-name="one" horiz-adv-x="366" d="M78 586L257 680H336L216 0H131L234 585L106 518L78 586Z" />
<glyph unicode="2" glyph-name="two" horiz-adv-x="496" d="M410 79L396 0H7L19 66Q33 142 57 190T117 269T201 323L272 358Q328 384 359 409T397 480L400 500Q409 552 382 581T292 611Q261 611 222 603T132 574L110 647Q165 670 211 680T298 690Q371 690 415
664T476 594T485 500L482 480Q473 425 450 392T390 335T301 286L230 252Q173 225 147 185T106 79H410Z" />
<glyph unicode="3" glyph-name="three" horiz-adv-x="499" d="M420 169Q407 88 353 39T183 -10Q137 -10 90 0T-4 34L25 106Q69 85 108 77T184 68Q246 68 285 92T333 171L336 186Q344 240 321 272T238 305H138L152 381H252Q309 381 341 407T381 479L383 495Q392
557 366 584T282 611Q247 611 208 603T119 574L97 646Q150 669 198 679T289 690Q396 690 439 636T470 497L468 481Q453 379 360 338Q397 316 414 278T422 185L420 169Z" />
<glyph unicode="4" glyph-name="four" horiz-adv-x="508" d="M466 163H391L362 0H280L309 163H17L29 230Q127 348 207 458T349 680H448Q387 570 310 463T136 240H322L344 364H426L404 240H479L466 163Z" />
<glyph unicode="5" glyph-name="five" horiz-adv-x="504" d="M84 354L161 680H500L486 600H223L177 407Q216 420 261 420Q327 420 372 394T436 321T445 212L439 181Q424 93 367 42T196 -10Q150 -10 103 0T8 34L41 107Q85 85 123 77T199 68Q261 68 301 94T351 181L357
212Q367 271 341 307T248 343Q194 343 127 314L84 354Z" />
<glyph unicode="6" glyph-name="six" horiz-adv-x="563" d="M501 187Q485 94 427 42T275 -10Q161 -10 111 70T84 287L109 426Q133 564 202 627T380 690Q420 690 463 681T553 648L520 575Q480 595 445 603T381 611Q308 611 259 569T191 426L178 356Q254 425 341
425Q401 425 441 398T499 324T507 218L501 187ZM323 348Q285 348 243 329T163 268Q134 68 278 68Q332 68 370 99T418 187L423 217Q433 274 409 311T323 348Z" />
<glyph unicode="7" glyph-name="seven" horiz-adv-x="474" d="M502 610Q402 459 326 307T197 0H102Q155 152 230 301T403 600H89L104 680H515L502 610Z" />
<glyph unicode="8" glyph-name="eight" horiz-adv-x="561" d="M488 193Q488 142 464 96T388 20T250 -10Q180 -10 135 12T67 70T45 146Q45 198 79 252T193 349Q158 374 139 409T119 493Q119 541 142 586T213 661T337 690Q429 690 478 647T528 534Q528 485 499 435T399
342Q442 316 465 281T488 193ZM289 395L339 372Q401 414 421 452T441 521Q441 565 414 589T335 614Q281 614 243 585T205 500Q205 464 225 440T289 395ZM132 165Q132 124 161 95T254 65Q323 65 361 97T400 181Q400 219 378 244T305 292L252 316Q184 276 158 240T132
165Z" />
<glyph unicode="9" glyph-name="nine" horiz-adv-x="564" d="M488 253Q464 115 395 53T217 -10Q177 -10 134 -1T43 31L76 104Q117 85 151 77T216 68Q289 68 338 110T405 253L417 322Q342 254 255 254Q195 254 155 281T98 355T90 461L94 492Q108 585 168 637T321
690Q397 690 445 654T510 550T512 392L488 253ZM173 462Q164 405 188 368T273 331Q312 331 354 350T433 411Q462 611 318 611Q265 611 226 580T178 492L173 462Z" />
<glyph unicode=":" glyph-name="colon" horiz-adv-x="192" d="M169 403H77L93 495H185L169 403ZM98 0H6L22 91H114L98 0Z" />
<glyph unicode=";" glyph-name="semicolon" horiz-adv-x="192" d="M169 403H77L93 495H185L169 403ZM109 91L106 72Q93 -9 62 -73T-26 -208L-75 -177Q-44 -129 -26 -90T5 -8T27 91H109Z" />
<glyph unicode="&lt;" glyph-name="less" horiz-adv-x="588" d="M489 181L475 104L91 272L100 327L543 492L528 409L210 296L489 181Z" />
<glyph unicode="=" glyph-name="equal" horiz-adv-x="588" d="M107 366L120 438H534L521 366H107ZM72 166L85 238H499L486 166H72Z" />
<glyph unicode="&gt;" glyph-name="greater" horiz-adv-x="588" d="M504 269L61 104L77 188L394 300L116 415L130 492L514 324L504 269Z" />
<glyph unicode="?" glyph-name="question" horiz-adv-x="438" d="M265 614Q231 614 191 605T99 575L80 647Q132 669 180 679T270 690Q342 690 384 665T443 598T449 505L446 487Q440 452 426 427T391 381T340 334L303 301Q268 271 255 251T237 202L234 182H150L154
205Q160 238 170 261T200 307T254 358L292 391Q320 415 338 438T363 499L366 517Q374 561 349 587T265 614ZM207 0H116L132 91H223L207 0Z" />
<glyph unicode="@" glyph-name="at" horiz-adv-x="950" d="M733 -167Q675 -193 607 -208T471 -223Q340 -223 246 -169T101 -18T50 207Q50 310 82 398T173 551T314 653T496 690Q587 690 662 659T792 573T876 444T906 284Q906 202 878 137T800 33T687 -5Q639 -5
608 15T568 78Q525 30 484 10T403 -10Q356 -10 326 17T284 93T282 203L290 258Q305 358 359 412T502 467Q551 467 597 451T689 405L645 154Q636 102 651 83T695 63Q730 63 760 91T809 168T828 284Q828 379 787 455T670 575T496 620Q414 620 346 589T230 502T155
371T128 207Q128 98 169 17T286 -108T471 -153Q530 -153 592 -139T706 -99L733 -167ZM366 203Q356 136 371 100T425 63Q454 63 490 87T567 170L600 366Q551 393 508 393Q448 393 416 357T374 258L366 203Z" />
<glyph unicode="A" glyph-name="A" horiz-adv-x="577" d="M425 0L402 158H146L67 0H-22L323 680H405L512 0H425ZM243 354L185 237H390L373 354L345 562L243 354Z" />
<glyph unicode="B" glyph-name="B" horiz-adv-x="586" d="M62 0L182 680H372Q466 680 511 629T542 495L538 472Q524 385 445 347Q489 326 508 286T518 193L515 170Q502 90 450 45T298 0H62ZM368 600H255L217 385H330Q380 385 410 408T447 471L452 495Q460 544
439 572T368 600ZM341 305H203L163 79H301Q354 79 386 103T425 171L429 195Q437 245 415 275T341 305Z" />
<glyph unicode="C" glyph-name="C" horiz-adv-x="533" d="M172 281Q154 181 183 126T290 70Q317 70 354 75T440 99L461 24Q410 5 364 -2T281 -10Q204 -10 154 26T86 127T82 281L104 411Q128 548 193 619T380 690Q421 690 463 680T549 648L518 571Q477 591 444
600T376 609Q300 609 256 558T194 411L172 281Z" />
<glyph unicode="D" glyph-name="D" horiz-adv-x="637" d="M62 0L182 680H376Q455 680 507 644T580 545T586 399L563 264Q541 141 470 71T283 0H62ZM372 598H255L163 81H286Q361 81 409 129T473 264L496 399Q513 491 481 544T372 598Z" />
<glyph unicode="E" glyph-name="E" horiz-adv-x="531" d="M456 81L442 0H62L182 680H552L537 598H255L217 385H470L455 303H203L163 81H456Z" />
<glyph unicode="F" glyph-name="F" horiz-adv-x="506" d="M446 286H200L149 0H62L182 680H546L531 598H255L214 368H461L446 286Z" />
<glyph unicode="G" glyph-name="G" horiz-adv-x="604" d="M499 41Q444 13 393 2T293 -10Q212 -10 160 26T88 127T83 281L106 411Q129 548 198 619T394 690Q439 690 486 680T582 647L551 571Q505 593 466 601T392 609Q310 609 262 558T196 411L173 281Q156 180
187 125T303 69Q332 69 361 74T428 95L461 279H334L349 356H555L499 41Z" />
<glyph unicode="H" glyph-name="H" horiz-adv-x="683" d="M446 0L499 303H202L149 0H62L182 680H269L217 385H514L566 680H653L533 0H446Z" />
<glyph unicode="I" glyph-name="I" horiz-adv-x="300" d="M149 0H62L182 680H269L149 0Z" />
<glyph unicode="J" glyph-name="J" horiz-adv-x="363" d="M-18 -7L-3 76Q54 76 90 88T148 132T179 224L259 680H346L266 224Q252 147 224 96T140 19T-18 -7Z" />
<glyph unicode="K" glyph-name="K" horiz-adv-x="595" d="M440 0L300 325Q274 301 246 278T189 229L149 0H62L182 680H269L208 334Q311 423 389 508T527 680H627Q569 598 506 524T369 378L538 0H440Z" />
<glyph unicode="L" glyph-name="L" horiz-adv-x="506" d="M449 81L435 0H62L182 680H269L163 81H449Z" />
<glyph unicode="M" glyph-name="M" horiz-adv-x="829" d="M280 680L398 174L698 680H798L678 0H596L647 291L701 547L423 80H341L234 557L196 291L145 0H62L182 680H280Z" />
<glyph unicode="N" glyph-name="N" horiz-adv-x="690" d="M62 0L182 680H273Q317 584 354 496T425 318T489 128L527 400L577 680H659L539 0H449Q401 153 351 289T240 562L194 278L145 0H62Z" />
<glyph unicode="O" glyph-name="O" horiz-adv-x="647" d="M596 399L573 264Q550 137 480 64T295 -10Q215 -10 162 26T89 129T83 282L107 417Q129 542 199 616T384 690Q464 690 516 653T590 551T596 399ZM506 399Q523 497 491 553T380 609Q307 609 260 558T197
417L173 282Q156 183 187 127T298 70Q372 70 419 121T483 264L506 399Z" />
<glyph unicode="P" glyph-name="P" horiz-adv-x="565" d="M62 0L182 680H383Q451 680 494 654T554 583T561 480L551 426Q537 344 482 296T329 248H193L149 0H62ZM379 598H255L207 329H332Q386 329 419 355T461 428L471 481Q482 536 458 567T379 598Z" />
<glyph unicode="Q" glyph-name="Q" horiz-adv-x="647" d="M502 -94L486 -183Q395 -183 348 -145T286 -32L281 -10Q206 -6 157 31T88 133T83 282L107 417Q129 542 199 616T384 690Q464 690 516 653T590 551T596 399L573 264Q554 158 502 89T366 -2Q374 -41 387
-60T428 -86T502 -94ZM506 399Q524 497 492 553T380 609Q307 609 260 558T197 417L173 282Q156 183 188 127T298 70Q372 70 419 121T483 264L506 399Z" />
<glyph unicode="R" glyph-name="R" horiz-adv-x="601" d="M196 266L149 0H62L182 680H384Q448 680 491 655T553 586T562 483L555 440Q545 382 511 340T422 280Q481 145 518 0H424Q408 68 386 134T337 266H196ZM381 600H255L210 346H336Q388 346 422 371T465 442L473
485Q482 540 457 570T381 600Z" />
<glyph unicode="S" glyph-name="S" horiz-adv-x="506" d="M208 68Q282 68 320 100T359 186Q359 256 278 292L206 324Q145 351 116 391T87 493Q87 547 110 591T183 663T313 690Q406 690 495 646L465 571Q422 591 386 601T313 611Q246 611 212 581T177 498Q177 464
195 442T257 399L328 367Q386 342 418 301T450 193Q450 140 426 94T349 19T208 -10Q159 -10 109 1T5 38L35 113Q85 89 126 79T208 68Z" />
<glyph unicode="T" glyph-name="T" horiz-adv-x="509" d="M74 598L89 680H572L558 598H360L254 0H167L273 598H74Z" />
<glyph unicode="U" glyph-name="U" horiz-adv-x="648" d="M168 680H258L181 244Q173 194 181 155T217 93T296 70Q367 70 409 115T465 244L542 680H632L555 244Q534 127 472 59T293 -10Q215 -10 166 23T98 114T91 244L168 680Z" />
<glyph unicode="V" glyph-name="V" horiz-adv-x="563" d="M619 680L282 0H194L96 680H184L231 335L256 118L360 336L527 680H619Z" />
<glyph unicode="W" glyph-name="W" horiz-adv-x="860" d="M209 392L210 126L464 680H546L603 125L701 392L811 680H900L631 0H541L484 554L231 0H141L112 680H201L209 392Z" />
<glyph unicode="X" glyph-name="X" horiz-adv-x="541" d="M386 0L275 273L74 0H-23L240 353L107 680H198L304 420L495 680H593L339 340L477 0H386Z" />
<glyph unicode="Y" glyph-name="Y" horiz-adv-x="524" d="M590 680L310 271L262 0H175L223 271L87 680H176L280 358L494 680H590Z" />
<glyph unicode="Z" glyph-name="Z" horiz-adv-x="508" d="M440 81L426 0H-2L9 70L413 598H112L127 680H536L523 609L119 81H440Z" />
<glyph unicode="[" glyph-name="bracketleft" horiz-adv-x="346" d="M287 -71L274 -143H37L193 740H430L417 668H262L132 -71H287Z" />
<glyph unicode="\" glyph-name="backslash" horiz-adv-x="364" d="M157 740L333 -143H253L77 740H157Z" />
<glyph unicode="]" glyph-name="bracketright" horiz-adv-x="346" d="M326 740L171 -143H-66L-53 -71H102L231 668H76L89 740H326Z" />
<glyph unicode="^" glyph-name="asciicircum" horiz-adv-x="588" d="M412 266L351 564L185 266H103L341 680H396L490 266H412Z" />
<glyph unicode="_" glyph-name="underscore" horiz-adv-x="389" d="M-66 -157L-55 -96H324L313 -157H-66Z" />
<glyph unicode="`" glyph-name="grave" horiz-adv-x="500" d="M274 579L199 709L280 745L341 579H274Z" />
<glyph unicode="a" glyph-name="a" horiz-adv-x="549" d="M456 -5Q407 -5 384 19T358 81Q311 30 268 10T187 -10Q138 -10 107 21T63 106T61 228L68 277Q84 384 143 444T298 505Q348 505 397 489T493 442L439 135Q434 105 441 88T473 70H487L473 -5H456ZM146 228Q135
149 152 107T209 64Q239 64 279 90T365 181L404 403Q350 430 303 430Q238 430 201 388T153 277L146 228Z" />
<glyph unicode="b" glyph-name="b" horiz-adv-x="553" d="M483 218Q467 109 409 50T251 -10Q197 -10 148 7T50 53L172 740H254L196 413Q242 465 283 485T362 505Q412 505 444 474T488 389T490 266L483 218ZM339 430Q308 430 267 403T177 306L140 92Q195 64 246
64Q314 64 351 105T398 218L405 266Q417 345 400 387T339 430Z" />
<glyph unicode="c" glyph-name="c" horiz-adv-x="451" d="M291 429Q236 429 199 393T151 288L142 234Q130 160 151 113T245 65Q298 65 366 90L380 19Q301 -10 238 -10Q164 -10 121 22T64 111T61 237L69 288Q86 389 143 447T289 505Q325 505 362 495T436 467L407
397Q376 412 347 420T291 429Z" />
<glyph unicode="d" glyph-name="d" horiz-adv-x="557" d="M346 0L361 88Q314 33 272 12T190 -10Q140 -10 108 21T64 106T62 228L69 277Q85 386 143 445T301 505Q334 505 365 497T426 475L473 740H555L424 0H346ZM147 228Q136 149 153 107T213 64Q245 64 286 92T376
190L413 401Q358 430 306 430Q239 430 202 389T154 277L147 228Z" />
<glyph unicode="e" glyph-name="e" horiz-adv-x="505" d="M409 20Q366 4 326 -3T250 -10Q170 -10 125 22T64 111T60 237L69 288Q85 386 144 445T295 505Q340 505 379 489T443 439T467 352Q467 323 459 291T427 220H138Q129 151 154 108T257 64Q285 64 321 70T396
90L409 20ZM292 432Q235 432 198 395T150 290H374Q382 307 384 322T387 350Q387 392 360 412T292 432Z" />
<glyph unicode="f" glyph-name="f" horiz-adv-x="347" d="M379 423H217L142 0H60L135 423H49L61 495H148L162 577Q171 627 192 666T250 727T346 750Q378 750 408 743T466 721L434 655Q386 675 350 675Q307 675 280 652T244 578L229 495H392L379 423Z" />
<glyph unicode="g" glyph-name="g" horiz-adv-x="554" d="M424 0Q416 -46 403 -86T364 -157T298 -205T193 -223Q153 -223 114 -215T34 -191L55 -121Q92 -136 125 -142T190 -149Q246 -149 276 -131T320 -80T342 0L356 79Q311 30 270 10T190 -10Q140 -10 108 21T64
106T62 228L69 277Q85 386 143 445T301 505Q354 505 405 489T502 442L424 0ZM147 228Q136 149 153 107T213 64Q245 64 286 90T374 183L413 402Q357 430 306 430Q239 430 202 389T154 277L147 228Z" />
<glyph unicode="h" glyph-name="h" horiz-adv-x="571" d="M361 428Q342 428 317 420T258 387T182 317L126 0H44L174 740H256L198 409Q255 468 300 486T383 505Q452 505 484 456T502 327L444 0H362L418 320Q429 374 414 401T361 428Z" />
<glyph unicode="i" glyph-name="i" horiz-adv-x="260" d="M241 616H149L164 708H256L241 616ZM126 0H44L132 495H214L126 0Z" />
<glyph unicode="j" glyph-name="j" horiz-adv-x="259" d="M240 616H148L164 708H256L240 616ZM-103 -223L-90 -145Q-37 -145 -5 -120T40 -23L132 495H214L122 -23Q111 -85 88 -130T20 -199T-103 -223Z" />
<glyph unicode="k" glyph-name="k" horiz-adv-x="508" d="M351 0L251 230Q229 211 204 192T153 152L126 0H44L175 740H257L169 244Q244 306 304 365T417 495H515Q469 434 421 382T318 278L446 0H351Z" />
<glyph unicode="l" glyph-name="l" horiz-adv-x="264" d="M65 125L173 740H255L147 124Q143 96 148 83T182 70H197L183 -5H166Q97 -5 76 31T65 125Z" />
<glyph unicode="m" glyph-name="m" horiz-adv-x="869" d="M356 428Q328 428 287 407T182 317L126 0H44L132 495H209L194 405Q252 466 297 485T378 505Q427 505 457 477T494 401Q553 464 601 484T686 505Q753 505 783 456T800 327L742 0H660L717 320Q727 374 712
401T664 428Q646 428 622 419T565 387T490 317L434 0H352L408 320Q418 374 404 401T356 428Z" />
<glyph unicode="n" glyph-name="n" horiz-adv-x="571" d="M361 428Q342 428 317 420T259 388T183 318L126 0H44L132 495H209L194 404Q253 466 299 485T383 505Q451 505 483 456T502 327L444 0H362L418 320Q438 428 361 428Z" />
<glyph unicode="o" glyph-name="o" horiz-adv-x="543" d="M483 258L475 208Q459 102 400 46T245 -10Q175 -10 130 22T66 110T59 237L67 288Q84 390 142 447T297 505Q368 505 413 472T476 384T483 258ZM398 260Q410 335 384 382T296 430Q238 430 201 393T152 288L144
235Q132 158 158 111T246 64Q304 64 341 100T390 208L398 260Z" />
<glyph unicode="p" glyph-name="p" horiz-adv-x="556" d="M255 -10Q221 -10 190 -2T129 20L88 -213H6L132 495H209L193 405Q241 461 284 483T365 505Q415 505 447 474T491 389T494 266L487 218Q471 109 412 50T255 -10ZM342 430Q311 430 270 402T179 305L142 93Q197
64 249 64Q317 64 354 105T402 218L409 266Q420 345 403 387T342 430Z" />
<glyph unicode="q" glyph-name="q" horiz-adv-x="554" d="M502 441L386 -213H304L356 81Q310 30 269 10T190 -10Q140 -10 108 21T64 106T62 228L69 277Q85 386 143 445T301 505Q355 505 404 488T502 441ZM147 228Q136 149 153 107T213 64Q245 64 285 91T375 189L412
402Q356 430 306 430Q239 430 202 389T154 277L147 228Z" />
<glyph unicode="r" glyph-name="r" horiz-adv-x="367" d="M379 422Q356 422 324 415T256 384T181 314L126 0H44L132 495H209L193 402Q250 465 301 485T393 505L379 422Z" />
<glyph unicode="s" glyph-name="s" horiz-adv-x="433" d="M177 63Q235 63 260 83T286 135Q286 161 270 177T216 207L168 226Q117 245 92 277T66 358Q66 398 83 431T140 484T242 505Q319 505 398 469L372 399Q336 416 304 423T240 431Q191 431 170 413T148 364Q148
342 161 326T208 297L257 279Q312 259 340 227T368 144Q368 105 349 70T288 12T175 -10Q92 -10 8 27L34 96Q73 79 108 71T177 63Z" />
<glyph unicode="t" glyph-name="t" horiz-adv-x="382" d="M321 17Q257 -10 200 -10Q149 -10 121 12T85 71T84 148L132 423H46L58 495H145L169 633H251L227 495H389L376 423H214L165 148Q157 102 172 84T216 65Q232 65 254 69T303 86L321 17Z" />
<glyph unicode="u" glyph-name="u" horiz-adv-x="559" d="M349 0L365 90Q307 29 263 10T182 -10Q115 -10 85 39T68 167L126 495H208L152 175Q142 120 156 94T203 67Q222 67 246 75T302 108T376 177L432 495H514L427 0H349Z" />
<glyph unicode="v" glyph-name="v" horiz-adv-x="472" d="M493 495L231 0H155L65 495H145L186 254L209 101L286 254L409 495H493Z" />
<glyph unicode="w" glyph-name="w" horiz-adv-x="716" d="M728 495L514 0H419L387 407L208 0H113L74 495H154L168 288L177 82L357 495H445L479 85L558 287L643 495H728Z" />
<glyph unicode="x" glyph-name="x" horiz-adv-x="459" d="M307 0L219 190L68 0H-21L187 257L78 495H162L242 321L380 495H470L275 254L391 0H307Z" />
<glyph unicode="y" glyph-name="y" horiz-adv-x="472" d="M204 -50Q170 -113 137 -151T63 -206T-33 -223L-19 -142Q16 -141 40 -133T86 -101T136 -28L154 3L65 495H146L188 254L211 102L286 254L409 495H494L231 0L204 -50Z" />
<glyph unicode="z" glyph-name="z" horiz-adv-x="412" d="M347 71L335 0H-8L2 64L299 423H75L88 495H412L401 430L105 71H347Z" />
<glyph unicode="{" glyph-name="braceleft" horiz-adv-x="377" d="M318 -72L305 -144H226Q161 -144 126 -119T85 -49T100 49L137 147Q150 181 152 207T141 247T88 262H23L35 334H100Q156 334 174 366T190 449L188 547Q185 641 227 690T361 740H460L448 668H362Q313
668 292 639T272 566L275 468Q278 324 185 294Q266 263 215 128L177 30Q161 -13 171 -42T231 -72H318Z" />
<glyph unicode="|" glyph-name="bar" horiz-adv-x="295" d="M193 740H275L107 -213H25L193 740Z" />
<glyph unicode="}" glyph-name="braceright" horiz-adv-x="377" d="M206 49Q209 -45 167 -94T33 -144H-66L-53 -72H32Q82 -72 103 -43T122 30L119 128Q116 271 209 301Q128 332 179 468L217 566Q234 609 224 638T163 668H76L89 740H168Q234 740 268 715T309 646T294
547L257 449Q244 415 242 389T254 348T306 333H371L359 261H294Q238 261 220 229T204 147L206 49Z" />
<glyph unicode="~" glyph-name="asciitilde" horiz-adv-x="588" d="M386 208Q347 208 324 225T285 264T254 303T217 320Q198 320 179 301T138 221L75 237Q95 302 118 335T167 380T218 392Q257 392 280 375T319 336T350 297T387 280Q407 280 426 300T468 380L531
364Q511 300 487 266T438 220T386 208Z" />
<glyph unicode="&#xa0;" glyph-name="uni00A0" horiz-adv-x="218" />
<glyph unicode="&#xa1;" glyph-name="exclamdown" horiz-adv-x="280" d="M137 495H229L213 403H121L137 495ZM118 312H184L148 65L104 -185H22L66 65L118 312Z" />
<glyph unicode="&#xa2;" glyph-name="cent" horiz-adv-x="445" d="M380 19Q346 6 315 -1T254 -10L234 -125H154L176 -3Q100 17 74 82T61 237L69 288Q85 382 135 439T265 504L285 620H365L344 499Q390 490 436 467L407 397Q376 412 347 420T291 429Q236 429 199
393T151 288L142 234Q130 160 151 113T245 65Q298 65 366 90L380 19Z" />
<glyph unicode="&#xa3;" glyph-name="sterling" horiz-adv-x="486" d="M430 81L416 0H25L38 69Q91 118 117 152T153 214T162 265Q162 269 162 272T161 279H66L80 355H145Q137 385 129 417T120 490Q120 542 140 587T207 661T335 690Q379 690 422 680T512 648L479
572Q437 592 403 600T337 609Q273 609 242 577T210 485Q210 449 219 418T237 355H410L396 279H250V273Q250 228 227 182T150 81H430Z" />
<glyph unicode="&#xa4;" glyph-name="currency" horiz-adv-x="576" d="M282 103Q212 103 166 140L40 31L0 79L124 189Q102 230 102 282Q102 365 152 424L75 522L125 566L203 468Q227 482 254 489T313 497Q383 497 429 460L554 569L595 520L471 412Q482 392 487
369T493 318Q493 277 480 240T442 175L519 78L468 33L390 131Q342 103 282 103ZM312 431Q271 431 240 412T191 359T173 284Q173 230 202 200T284 169Q325 169 356 188T404 240T422 315Q422 370 393 400T312 431Z" />
<glyph unicode="&#xa5;" glyph-name="yen" horiz-adv-x="554" d="M488 164H305L276 0H189L218 164H37L49 232H230L237 271L217 332H67L79 400H194L101 680H190L294 358L508 680H604L412 400H529L517 332H366L324 271L317 232H500L488 164Z" />
<glyph unicode="&#xa6;" glyph-name="brokenbar" horiz-adv-x="282" d="M187 740H269L201 357H119L187 740ZM86 170H168L101 -213H19L86 170Z" />
<glyph unicode="&#xa7;" glyph-name="section" horiz-adv-x="507" d="M392 -33Q392 -82 369 -125T295 -196T160 -223Q111 -223 64 -212T-34 -176L-2 -101Q45 -123 83 -133T161 -144Q231 -144 267 -116T303 -40Q303 -8 286 14T230 52L158 82Q37 132 37 233Q37 290
72 332T161 396Q115 439 115 507Q115 557 137 598T206 665T330 690Q417 690 507 648L475 573Q434 593 399 602T328 611Q267 611 236 584T204 512Q204 483 221 464T281 427L346 399Q401 377 432 339T464 242Q464 195 434 152T346 84Q392 40 392 -33ZM280 125Q282
124 283 124T285 123Q327 141 351 167T375 229Q375 264 356 286T296 326L231 353Q229 354 227 354T223 356Q126 322 126 244Q126 213 145 194T208 155L280 125Z" />
<glyph unicode="&#xa8;" glyph-name="dieresis" horiz-adv-x="500" d="M263 619H177L192 705H278L263 619ZM454 619H368L383 705H469L454 619Z" />
<glyph unicode="&#xa9;" glyph-name="copyright" horiz-adv-x="840" d="M436 -37Q355 -37 287 -9T169 70T92 189T64 340Q64 422 91 490T169 610T287 689T436 717Q516 717 584 689T702 610T780 491T808 340Q808 258 780 190T702 70T584 -9T436 -37ZM436 21Q525
21 594 62T704 175T744 340Q744 433 704 505T595 618T436 659Q347 659 278 618T168 505T128 340Q128 247 168 175T277 62T436 21ZM336 361V320Q336 256 360 223T439 190Q492 190 552 219L576 158Q508 123 434 123Q349 123 305 175T261 320V361Q261 453 305 505T434
557Q466 557 501 550T567 525L543 464Q516 476 490 483T439 490Q385 490 361 457T336 361Z" />
<glyph unicode="&#xaa;" glyph-name="ordfeminine" horiz-adv-x="362" d="M344 338Q310 338 293 354T271 395Q241 361 214 348T161 335Q110 335 87 380T73 496L78 529Q89 603 131 644T240 685Q274 685 307 674T371 642L335 437Q332 418 336 409T357 399H367L356
338H344ZM139 496Q132 447 142 421T177 394Q197 394 222 410T278 467L303 609Q271 625 240 625Q198 625 174 599T144 529L139 496Z" />
<glyph unicode="&#xab;" glyph-name="guillemotleft" horiz-adv-x="667" d="M296 98L280 14L33 221L42 274L362 478L346 382L119 241L296 98ZM586 98L570 14L323 221L332 274L652 478L636 382L409 241L586 98Z" />
<glyph unicode="&#xac;" glyph-name="logicalnot" horiz-adv-x="588" d="M109 376L122 448H536L493 205H419L449 376H109Z" />
<glyph unicode="&#xad;" glyph-name="uni00AD" horiz-adv-x="0" />
<glyph unicode="&#xae;" glyph-name="registered" horiz-adv-x="547" d="M314 241Q247 241 194 272T111 357T80 479Q80 548 110 601T194 686T314 717Q381 717 434 686T517 602T548 479Q548 411 518 357T434 272T314 241ZM314 290Q366 290 407 314T471 382T495
479Q495 534 472 576T407 643T314 668Q262 668 221 644T157 577T133 479Q133 425 156 382T221 315T314 290ZM232 353V608H319Q358 608 379 587T401 531V517Q401 471 366 450Q380 427 393 403T416 353H358Q348 376 338 397T316 439H283V353H232ZM319 559H283V488H319Q347
488 347 517V531Q347 559 319 559Z" />
<glyph unicode="&#xaf;" glyph-name="overscore" horiz-adv-x="500" d="M467 672L456 609H170L182 672H467Z" />
<glyph unicode="&#xb0;" glyph-name="degree" horiz-adv-x="366" d="M219 366Q152 366 112 405T71 511Q71 561 93 601T155 666T245 690Q312 690 352 651T392 544Q392 495 370 455T308 390T219 366ZM244 628Q198 628 168 595T138 513Q138 473 160 451T220 428Q266
428 295 460T325 542Q325 583 304 605T244 628Z" />
<glyph unicode="&#xb1;" glyph-name="plusminus" horiz-adv-x="588" d="M510 302H340L310 131H236L266 302H96L109 374H279L309 545H383L353 374H523L510 302ZM43 0L55 71H469L457 0H43Z" />
<glyph unicode="&#xb2;" glyph-name="uni00B2" horiz-adv-x="270" d="M285 505L274 445H58L65 486Q72 527 84 550T115 589T166 619L202 635Q225 646 237 656T252 683L254 693Q260 729 209 729Q170 729 117 709L106 768Q163 790 213 790Q278 790 301 762T319 694L317
682Q312 641 286 620T218 579L183 563Q162 554 151 542T134 505H285Z" />
<glyph unicode="&#xb3;" glyph-name="uni00B3" horiz-adv-x="274" d="M285 533Q277 489 248 465T156 440Q132 440 108 445T61 461L81 518Q101 508 120 505T158 501Q214 501 220 539L222 547Q225 566 214 577T173 589H130L139 644H183Q210 644 225 655T243 684L244
691Q248 711 236 720T199 729Q183 729 165 726T123 712L108 770Q135 781 159 785T206 790Q268 790 292 763T310 695L309 688Q300 635 250 614Q295 592 286 543L285 533Z" />
<glyph unicode="&#xb4;" glyph-name="acute" horiz-adv-x="500" d="M346 579H270L389 745L466 709L346 579Z" />
<glyph unicode="&#xb5;" glyph-name="uni00B5" horiz-adv-x="566" d="M104 -125L88 -213H6L132 495H214L158 175Q148 120 162 94T209 67Q228 67 251 75T307 107T381 176L438 495H520L456 135Q451 105 458 88T490 70H504L490 -5H473Q419 -5 396 23T374 93Q316 31
271 11T190 -10Q139 -10 114 23L104 -125Z" />
<glyph unicode="&#xb6;" glyph-name="paragraph" horiz-adv-x="563" d="M299 -143L444 680H531L386 -143H299ZM376 680L300 248H255Q187 248 144 274T84 345T77 447L87 502Q101 584 156 632T309 680H376Z" />
<glyph unicode="&#xb7;" glyph-name="middot" horiz-adv-x="500" d="M312 338H220L235 430H327L312 338Z" />
<glyph unicode="&#xb8;" glyph-name="cedilla" horiz-adv-x="500" d="M284 -126Q284 -164 255 -193T163 -223Q141 -223 122 -219T83 -208L97 -152Q114 -158 131 -161T161 -164Q191 -164 203 -154T216 -130Q216 -118 207 -111T173 -103Q167 -103 161 -103T148 -105L132
-67L156 0H215L197 -50Q238 -51 261 -71T284 -126Z" />
<glyph unicode="&#xb9;" glyph-name="uni00B9" horiz-adv-x="222" d="M107 735L206 785H262L202 445H138L186 712L129 684L107 735Z" />
<glyph unicode="&#xba;" glyph-name="ordmasculine" horiz-adv-x="349" d="M368 517L363 482Q351 410 310 373T203 335Q129 335 95 382T73 502L78 537Q89 606 130 645T238 685Q288 685 319 663T363 602T368 517ZM303 518Q310 565 294 595T238 625Q200 625 175
602T143 537L138 501Q131 452 147 424T204 395Q242 395 266 417T298 482L303 518Z" />
<glyph unicode="&#xbb;" glyph-name="guillemotright" horiz-adv-x="667" d="M334 218L14 14L30 109L256 250L80 393L96 478L343 271L334 218ZM624 218L304 14L320 109L546 250L370 393L386 478L633 271L624 218Z" />
<glyph unicode="&#xbc;" glyph-name="onequarter" horiz-adv-x="620" d="M89 630L188 680H244L184 340H120L168 607L111 579L89 630ZM518 680H593L129 0H55L518 680ZM582 70H544L532 0H473L485 70H340L348 115Q397 174 435 229T505 340H573Q544 286 509 234T426
126H495L505 182H564L554 126H591L582 70Z" />
<glyph unicode="&#xbd;" glyph-name="onehalf" horiz-adv-x="664" d="M89 630L188 680H244L184 340H120L168 607L111 579L89 630ZM518 680H593L129 0H55L518 680ZM602 60L591 0H375L382 41Q389 82 401 105T432 144T483 174L519 190Q542 201 554 211T569 238L571
248Q577 284 526 284Q487 284 434 264L423 323Q480 345 530 345Q595 345 618 317T636 249L634 237Q629 196 603 175T535 134L500 118Q479 109 468 97T451 60H602Z" />
<glyph unicode="&#xbe;" glyph-name="threequarters" horiz-adv-x="656" d="M267 428Q259 384 230 360T138 335Q114 335 90 340T43 356L63 413Q83 403 102 400T140 396Q196 396 202 434L204 442Q207 461 196 472T155 484H112L121 539H165Q192 539 207 550T225
579L226 586Q230 606 218 615T181 624Q165 624 147 621T105 607L90 665Q117 676 141 680T188 685Q250 685 274 658T292 590L291 583Q282 530 232 509Q277 487 268 438L267 428ZM554 680H629L165 0H91L554 680ZM618 70H580L568 0H509L521 70H376L384 115Q433 174
471 229T541 340H609Q580 286 545 234T462 126H531L541 182H600L590 126H627L618 70Z" />
<glyph unicode="&#xbf;" glyph-name="questiondown" horiz-adv-x="439" d="M244 495H335L319 403H228L244 495ZM185 -119Q220 -119 260 -110T352 -80L371 -152Q319 -174 271 -184T181 -195Q110 -195 67 -170T9 -103T2 -10L5 8Q15 60 41 91T111 160L148 193Q183
223 195 243T213 293L217 312H301L297 290Q291 257 281 233T251 187T197 136L159 103Q131 80 113 56T88 -4L85 -22Q77 -66 102 -92T185 -119Z" />
<glyph unicode="&#xc0;" glyph-name="Agrave" horiz-adv-x="577" d="M425 0L402 158H146L67 0H-22L323 680H405L512 0H425ZM243 354L185 237H390L373 354L345 562L243 354ZM343 764L268 894L349 930L410 764H343Z" />
<glyph unicode="&#xc1;" glyph-name="Aacute" horiz-adv-x="577" d="M425 0L402 158H146L67 0H-22L323 680H405L512 0H425ZM243 354L185 237H390L373 354L345 562L243 354ZM415 764H339L458 930L535 894L415 764Z" />
<glyph unicode="&#xc2;" glyph-name="Acircumflex" horiz-adv-x="577" d="M425 0L402 158H146L67 0H-22L323 680H405L512 0H425ZM243 354L185 237H390L373 354L345 562L243 354ZM446 764L396 859L311 764H242L363 925H446L510 764H446Z" />
<glyph unicode="&#xc3;" glyph-name="Atilde" horiz-adv-x="577" d="M425 0L402 158H146L67 0H-22L323 680H405L512 0H425ZM243 354L185 237H390L373 354L345 562L243 354ZM448 773Q420 773 404 785T377 814T358 842T336 855Q326 855 316 841T297 785H234Q244
840 259 870T295 911T336 923Q365 923 381 911T408 882T426 854T448 841Q459 841 468 854T486 910H549Q540 855 525 826T490 785T448 773Z" />
<glyph unicode="&#xc4;" glyph-name="Adieresis" horiz-adv-x="577" d="M425 0L402 158H146L67 0H-22L323 680H405L512 0H425ZM243 354L185 237H390L373 354L345 562L243 354ZM331 804H245L260 890H346L331 804ZM522 804H436L451 890H537L522 804Z" />
<glyph unicode="&#xc5;" glyph-name="Aring" horiz-adv-x="577" d="M146 158L67 0H-22L302 639Q277 653 266 678T260 737L262 752Q270 797 302 825T385 853Q439 853 467 821T488 741L485 726Q480 694 461 670T412 634L512 0H425L401 158H146ZM429 747Q433 769
421 783T382 798Q359 798 342 785T321 746L318 732Q314 709 327 695T365 680Q389 680 406 693T427 732L429 747ZM243 354L185 237H390L373 354L345 562L243 354Z" />
<glyph unicode="&#xc6;" glyph-name="AE" horiz-adv-x="834" d="M-40 0L437 680H855L840 598H558L520 385H773L758 303H506L466 81H759L745 0H365L393 158H169L59 0H-40ZM223 237H407L469 591L223 237Z" />
<glyph unicode="&#xc7;" glyph-name="Ccedilla" horiz-adv-x="533" d="M347 -126Q347 -164 318 -193T227 -223Q205 -223 186 -219T147 -208L161 -152Q178 -158 195 -161T225 -164Q255 -164 267 -154T279 -130Q279 -118 270 -111T237 -103Q231 -103 225 -103T212
-105L196 -67L219 -3Q135 17 99 92T82 281L104 411Q128 548 193 619T380 690Q421 690 463 680T549 648L518 571Q477 591 444 600T376 609Q300 609 256 558T194 411L172 281Q154 181 183 126T290 70Q317 70 354 75T440 99L461 24Q410 5 364 -2T281 -10H275L261 -50Q302
-51 324 -71T347 -126Z" />
<glyph unicode="&#xc8;" glyph-name="Egrave" horiz-adv-x="531" d="M456 81L442 0H62L182 680H552L537 598H255L217 385H470L455 303H203L163 81H456ZM345 764L270 894L351 930L412 764H345Z" />
<glyph unicode="&#xc9;" glyph-name="Eacute" horiz-adv-x="531" d="M456 81L442 0H62L182 680H552L537 598H255L217 385H470L455 303H203L163 81H456ZM417 764H341L460 930L537 894L417 764Z" />
<glyph unicode="&#xca;" glyph-name="Ecircumflex" horiz-adv-x="531" d="M456 81L442 0H62L182 680H552L537 598H255L217 385H470L455 303H203L163 81H456ZM448 764L398 859L313 764H244L365 925H448L512 764H448Z" />
<glyph unicode="&#xcb;" glyph-name="Edieresis" horiz-adv-x="531" d="M456 81L442 0H62L182 680H552L537 598H255L217 385H470L455 303H203L163 81H456ZM333 804H247L262 890H348L333 804ZM524 804H438L453 890H539L524 804Z" />
<glyph unicode="&#xcc;" glyph-name="Igrave" horiz-adv-x="300" d="M149 0H62L182 680H269L149 0ZM205 764L130 894L211 930L272 764H205Z" />
<glyph unicode="&#xcd;" glyph-name="Iacute" horiz-adv-x="300" d="M149 0H62L182 680H269L149 0ZM277 764H201L320 930L397 894L277 764Z" />
<glyph unicode="&#xce;" glyph-name="Icircumflex" horiz-adv-x="300" d="M149 0H62L182 680H269L149 0ZM308 764L258 859L173 764H104L225 925H308L372 764H308Z" />
<glyph unicode="&#xcf;" glyph-name="Idieresis" horiz-adv-x="300" d="M149 0H62L182 680H269L149 0ZM193 804H107L122 890H208L193 804ZM384 804H298L313 890H399L384 804Z" />
<glyph unicode="&#xd0;" glyph-name="Eth" horiz-adv-x="647" d="M53 384H140L192 680H385Q464 680 516 644T589 545T596 399L572 264Q551 141 480 71T293 0H72L126 305H39L53 384ZM350 305H213L173 81H296Q371 81 419 129T482 264L506 399Q523 491 491 544T381
598H265L227 384H364L350 305Z" />
<glyph unicode="&#xd1;" glyph-name="Ntilde" horiz-adv-x="690" d="M62 0L182 680H273Q317 584 354 496T425 318T489 128L527 400L577 680H659L539 0H449Q401 153 351 289T240 562L194 278L145 0H62ZM504 773Q476 773 460 785T433 814T414 842T392 855Q382 855
372 841T353 785H290Q300 840 315 870T351 911T392 923Q421 923 437 911T464 882T482 854T504 841Q515 841 524 854T542 910H605Q596 855 581 826T546 785T504 773Z" />
<glyph unicode="&#xd2;" glyph-name="Ograve" horiz-adv-x="647" d="M596 399L573 264Q550 137 480 64T295 -10Q215 -10 162 26T89 129T83 282L107 417Q129 542 199 616T384 690Q464 690 516 653T590 551T596 399ZM506 399Q523 497 491 553T380 609Q307 609 260
558T197 417L173 282Q156 183 187 127T298 70Q372 70 419 121T483 264L506 399ZM378 764L303 894L384 930L445 764H378Z" />
<glyph unicode="&#xd3;" glyph-name="Oacute" horiz-adv-x="647" d="M596 399L573 264Q550 137 480 64T295 -10Q215 -10 162 26T89 129T83 282L107 417Q129 542 199 616T384 690Q464 690 516 653T590 551T596 399ZM506 399Q523 497 491 553T380 609Q307 609 260
558T197 417L173 282Q156 183 187 127T298 70Q372 70 419 121T483 264L506 399ZM450 764H374L493 930L570 894L450 764Z" />
<glyph unicode="&#xd4;" glyph-name="Ocircumflex" horiz-adv-x="647" d="M596 399L573 264Q550 137 480 64T295 -10Q215 -10 162 26T89 129T83 282L107 417Q129 542 199 616T384 690Q464 690 516 653T590 551T596 399ZM506 399Q523 497 491 553T380 609Q307 609
260 558T197 417L173 282Q156 183 187 127T298 70Q372 70 419 121T483 264L506 399ZM481 764L431 859L346 764H277L398 925H481L545 764H481Z" />
<glyph unicode="&#xd5;" glyph-name="Otilde" horiz-adv-x="647" d="M596 399L573 264Q550 137 480 64T295 -10Q215 -10 162 26T89 129T83 282L107 417Q129 542 199 616T384 690Q464 690 516 653T590 551T596 399ZM506 399Q523 497 491 553T380 609Q307 609 260
558T197 417L173 282Q156 183 187 127T298 70Q372 70 419 121T483 264L506 399ZM483 773Q455 773 439 785T412 814T393 842T371 855Q361 855 351 841T332 785H269Q279 840 294 870T330 911T371 923Q400 923 416 911T443 882T461 854T483 841Q494 841 503 854T521
910H584Q575 855 560 826T525 785T483 773Z" />
<glyph unicode="&#xd6;" glyph-name="Odieresis" horiz-adv-x="647" d="M596 399L573 264Q550 137 480 64T295 -10Q215 -10 162 26T89 129T83 282L107 417Q129 542 199 616T384 690Q464 690 516 653T590 551T596 399ZM506 399Q523 497 491 553T380 609Q307 609
260 558T197 417L173 282Q156 183 187 127T298 70Q372 70 419 121T483 264L506 399ZM366 804H280L295 890H381L366 804ZM557 804H471L486 890H572L557 804Z" />
<glyph unicode="&#xd7;" glyph-name="multiply" horiz-adv-x="588" d="M422 106L298 253L123 101L79 155L253 306L130 452L186 500L309 354L484 505L528 451L354 300L477 153L422 106Z" />
<glyph unicode="&#xd8;" glyph-name="Oslash" horiz-adv-x="648" d="M294 -10Q211 -10 156 31L112 -30H29L110 81Q62 160 83 282L107 417Q129 542 199 616T386 690Q469 690 523 648L568 710H651L569 597Q617 519 596 399L573 264Q551 137 480 64T294 -10ZM173
282Q161 215 172 167L472 578Q438 609 382 609Q308 609 261 558T197 417L173 282ZM506 399Q518 464 507 512L207 101Q241 70 297 70Q371 70 419 121T483 264L506 399Z" />
<glyph unicode="&#xd9;" glyph-name="Ugrave" horiz-adv-x="648" d="M168 680H258L181 244Q173 194 181 155T217 93T296 70Q367 70 409 115T465 244L542 680H632L555 244Q534 127 472 59T293 -10Q215 -10 166 23T98 114T91 244L168 680ZM378 764L303 894L384 930L445
764H378Z" />
<glyph unicode="&#xda;" glyph-name="Uacute" horiz-adv-x="648" d="M168 680H258L181 244Q173 194 181 155T217 93T296 70Q367 70 409 115T465 244L542 680H632L555 244Q534 127 472 59T293 -10Q215 -10 166 23T98 114T91 244L168 680ZM450 764H374L493 930L570
894L450 764Z" />
<glyph unicode="&#xdb;" glyph-name="Ucircumflex" horiz-adv-x="648" d="M168 680H258L181 244Q173 194 181 155T217 93T296 70Q367 70 409 115T465 244L542 680H632L555 244Q534 127 472 59T293 -10Q215 -10 166 23T98 114T91 244L168 680ZM481 764L431 859L346
764H277L398 925H481L545 764H481Z" />
<glyph unicode="&#xdc;" glyph-name="Udieresis" horiz-adv-x="648" d="M168 680H258L181 244Q173 194 181 155T217 93T296 70Q367 70 409 115T465 244L542 680H632L555 244Q534 127 472 59T293 -10Q215 -10 166 23T98 114T91 244L168 680ZM367 804H281L296 890H382L367
804ZM558 804H472L487 890H573L558 804Z" />
<glyph unicode="&#xdd;" glyph-name="Yacute" horiz-adv-x="524" d="M590 680L310 271L262 0H175L223 271L87 680H176L280 358L494 680H590ZM388 764H312L431 930L508 894L388 764Z" />
<glyph unicode="&#xde;" glyph-name="Thorn" horiz-adv-x="564" d="M307 128H172L149 0H62L182 680H269L248 560H361Q429 560 472 534T532 463T539 360L529 306Q515 224 460 176T307 128ZM357 478H233L186 209H310Q364 209 397 235T440 308L449 361Q460 416 436
447T357 478Z" />
<glyph unicode="&#xdf;" glyph-name="germandbls" horiz-adv-x="611" d="M562 153Q562 110 544 73T485 13T381 -10Q347 -10 311 -2T237 23L263 94Q296 77 325 70T380 62Q433 62 456 87T479 145Q479 186 441 218L397 254Q339 302 339 368Q339 406 355 438T392 498T430
554T446 611Q446 643 423 659T361 675Q311 675 282 650T243 569L142 0H60L134 423H49L61 495H147L160 569Q170 622 192 663T256 727T363 750Q408 750 446 736T507 693T530 617Q530 577 514 545T476 486T439 432T422 378Q422 362 430 346T459 312L503 276Q535 250
548 220T562 153Z" />
<glyph unicode="&#xe0;" glyph-name="agrave" horiz-adv-x="549" d="M456 -5Q407 -5 384 19T358 81Q311 30 268 10T187 -10Q138 -10 107 21T63 106T61 228L68 277Q84 384 143 444T298 505Q348 505 397 489T493 442L439 135Q434 105 441 88T473 70H487L473 -5H456ZM146
228Q135 149 152 107T209 64Q239 64 279 90T365 181L404 403Q350 430 303 430Q238 430 201 388T153 277L146 228ZM297 579L222 709L303 745L364 579H297Z" />
<glyph unicode="&#xe1;" glyph-name="aacute" horiz-adv-x="549" d="M456 -5Q407 -5 384 19T358 81Q311 30 268 10T187 -10Q138 -10 107 21T63 106T61 228L68 277Q84 384 143 444T298 505Q348 505 397 489T493 442L439 135Q434 105 441 88T473 70H487L473 -5H456ZM146
228Q135 149 152 107T209 64Q239 64 279 90T365 181L404 403Q350 430 303 430Q238 430 201 388T153 277L146 228ZM369 579H293L412 745L489 709L369 579Z" />
<glyph unicode="&#xe2;" glyph-name="acircumflex" horiz-adv-x="549" d="M456 -5Q407 -5 384 19T358 81Q311 30 268 10T187 -10Q138 -10 107 21T63 106T61 228L68 277Q84 384 143 444T298 505Q348 505 397 489T493 442L439 135Q434 105 441 88T473 70H487L473
-5H456ZM146 228Q135 149 152 107T209 64Q239 64 279 90T365 181L404 403Q350 430 303 430Q238 430 201 388T153 277L146 228ZM400 579L350 674L265 579H196L317 740H400L464 579H400Z" />
<glyph unicode="&#xe3;" glyph-name="atilde" horiz-adv-x="549" d="M456 -5Q407 -5 384 19T358 81Q311 30 268 10T187 -10Q138 -10 107 21T63 106T61 228L68 277Q84 384 143 444T298 505Q348 505 397 489T493 442L439 135Q434 105 441 88T473 70H487L473 -5H456ZM146
228Q135 149 152 107T209 64Q239 64 279 90T365 181L404 403Q350 430 303 430Q238 430 201 388T153 277L146 228ZM402 588Q374 588 358 600T331 629T312 657T290 670Q280 670 270 656T251 600H188Q198 655 213 685T249 726T290 738Q319 738 335 726T362 697T380
669T402 656Q413 656 422 669T440 725H503Q494 670 479 641T444 600T402 588Z" />
<glyph unicode="&#xe4;" glyph-name="adieresis" horiz-adv-x="549" d="M456 -5Q407 -5 384 19T358 81Q311 30 268 10T187 -10Q138 -10 107 21T63 106T61 228L68 277Q84 384 143 444T298 505Q348 505 397 489T493 442L439 135Q434 105 441 88T473 70H487L473 -5H456ZM146
228Q135 149 152 107T209 64Q239 64 279 90T365 181L404 403Q350 430 303 430Q238 430 201 388T153 277L146 228ZM285 619H199L214 705H300L285 619ZM476 619H390L405 705H491L476 619Z" />
<glyph unicode="&#xe5;" glyph-name="aring" horiz-adv-x="549" d="M456 -5Q407 -5 384 19T358 81Q311 30 268 10T187 -10Q138 -10 107 21T63 106T61 228L68 277Q84 384 143 444T298 505Q348 505 397 489T493 442L439 135Q434 105 441 88T473 70H487L473 -5H456ZM146
228Q135 149 152 107T209 64Q239 64 279 90T365 181L404 403Q350 430 303 430Q238 430 201 388T153 277L146 228ZM463 679L460 664Q453 619 420 591T337 563Q284 563 256 594T235 675L237 690Q245 735 277 763T360 791Q414 791 442 759T463 679ZM404 685Q408 707
396 721T357 736Q334 736 317 723T296 684L293 670Q289 647 302 633T340 618Q364 618 381 631T402 670L404 685Z" />
<glyph unicode="&#xe6;" glyph-name="ae" horiz-adv-x="776" d="M680 20Q637 4 597 -3T522 -10Q450 -10 406 17T342 90Q287 29 237 10T146 -10Q82 -10 52 25T22 118Q22 157 37 193T91 253T201 277Q230 277 265 274T336 264L347 325Q354 364 342 386T306 419T249
429Q224 429 192 425T119 409L101 477Q191 505 255 505Q317 505 353 483T405 427Q434 464 475 484T568 505Q611 505 649 489T713 439T738 352Q738 324 730 292T699 222H410Q404 176 412 140T448 84T529 64Q556 64 592 70T667 90L680 20ZM563 432Q506 432 469 395T421
289H643Q651 306 654 321T657 350Q657 392 630 412T563 432ZM106 125Q106 60 163 60Q179 60 204 66T260 93T327 157Q326 178 327 200Q293 206 260 209T203 212Q148 212 127 187T106 125Z" />
<glyph unicode="&#xe7;" glyph-name="ccedilla" horiz-adv-x="451" d="M294 -126Q294 -164 265 -193T173 -223Q151 -223 132 -219T93 -208L107 -152Q124 -158 141 -161T171 -164Q201 -164 213 -154T226 -130Q226 -118 217 -111T183 -103Q177 -103 171 -103T158
-105L142 -67L167 0Q97 22 72 86T61 237L69 288Q86 389 143 447T289 505Q325 505 362 495T436 467L407 397Q376 412 347 420T291 429Q236 429 199 393T151 288L142 234Q130 160 151 113T245 65Q298 65 366 90L380 19Q301 -10 238 -10H222L207 -50Q248 -51 271 -71T294
-126Z" />
<glyph unicode="&#xe8;" glyph-name="egrave" horiz-adv-x="505" d="M409 20Q366 4 326 -3T250 -10Q170 -10 125 22T64 111T60 237L69 288Q85 386 144 445T295 505Q340 505 379 489T443 439T467 352Q467 323 459 291T427 220H138Q129 151 154 108T257 64Q285 64
321 70T396 90L409 20ZM292 432Q235 432 198 395T150 290H374Q382 307 384 322T387 350Q387 392 360 412T292 432ZM287 579L212 709L293 745L354 579H287Z" />
<glyph unicode="&#xe9;" glyph-name="eacute" horiz-adv-x="505" d="M409 20Q366 4 326 -3T250 -10Q170 -10 125 22T64 111T60 237L69 288Q85 386 144 445T295 505Q340 505 379 489T443 439T467 352Q467 323 459 291T427 220H138Q129 151 154 108T257 64Q285 64
321 70T396 90L409 20ZM292 432Q235 432 198 395T150 290H374Q382 307 384 322T387 350Q387 392 360 412T292 432ZM359 579H283L402 745L479 709L359 579Z" />
<glyph unicode="&#xea;" glyph-name="ecircumflex" horiz-adv-x="505" d="M409 20Q366 4 326 -3T250 -10Q170 -10 125 22T64 111T60 237L69 288Q85 386 144 445T295 505Q340 505 379 489T443 439T467 352Q467 323 459 291T427 220H138Q129 151 154 108T257 64Q285
64 321 70T396 90L409 20ZM292 432Q235 432 198 395T150 290H374Q382 307 384 322T387 350Q387 392 360 412T292 432ZM390 579L340 674L255 579H186L307 740H390L454 579H390Z" />
<glyph unicode="&#xeb;" glyph-name="edieresis" horiz-adv-x="505" d="M409 20Q366 4 326 -3T250 -10Q170 -10 125 22T64 111T60 237L69 288Q85 386 144 445T295 505Q340 505 379 489T443 439T467 352Q467 323 459 291T427 220H138Q129 151 154 108T257 64Q285
64 321 70T396 90L409 20ZM292 432Q235 432 198 395T150 290H374Q382 307 384 322T387 350Q387 392 360 412T292 432ZM276 619H190L205 705H291L276 619ZM467 619H381L396 705H482L467 619Z" />
<glyph unicode="&#xec;" glyph-name="igrave" horiz-adv-x="259" d="M126 0H44L132 495H214L126 0ZM410 579L335 709L416 745L477 579H410Z" />
<glyph unicode="&#xed;" glyph-name="iacute" horiz-adv-x="259" d="M126 0H44L132 495H214L126 0ZM482 579H406L525 745L602 709L482 579Z" />
<glyph unicode="&#xee;" glyph-name="icircumflex" horiz-adv-x="259" d="M126 0H44L132 495H214L126 0ZM514 579L464 674L379 579H310L431 740H514L578 579H514Z" />
<glyph unicode="&#xef;" glyph-name="idieresis" horiz-adv-x="259" d="M126 0H44L132 495H214L126 0ZM399 619H313L328 705H414L399 619ZM590 619H504L519 705H605L590 619Z" />
<glyph unicode="&#xf0;" glyph-name="eth" horiz-adv-x="538" d="M479 244Q456 112 391 51T228 -10Q130 -10 81 52T50 220L56 256Q71 345 127 393T258 442Q301 442 342 422T409 349Q412 408 398 462T348 566L200 477L214 559L307 615Q288 634 266 652T217 688L260
750Q294 728 322 705T374 656L530 750L516 668L414 606Q469 530 484 447T486 284L479 244ZM133 207Q122 143 148 104T232 64Q294 64 335 109T396 257Q370 321 333 343T262 366Q217 366 184 334T139 243L133 207Z" />
<glyph unicode="&#xf1;" glyph-name="ntilde" horiz-adv-x="571" d="M361 428Q342 428 317 420T259 388T183 318L126 0H44L132 495H209L194 404Q253 466 299 485T383 505Q451 505 483 456T502 327L444 0H362L418 320Q438 428 361 428ZM419 588Q391 588 375 600T348
629T329 657T307 670Q297 670 287 656T268 600H205Q215 655 230 685T266 726T307 738Q336 738 352 726T379 697T397 669T419 656Q430 656 439 669T457 725H520Q511 670 496 641T461 600T419 588Z" />
<glyph unicode="&#xf2;" glyph-name="ograve" horiz-adv-x="542" d="M483 258L475 208Q459 102 400 46T245 -10Q175 -10 130 22T66 110T59 237L67 288Q84 390 142 447T297 505Q368 505 413 472T476 384T483 258ZM398 260Q410 335 384 382T296 430Q238 430 201
393T152 288L144 235Q132 158 158 111T246 64Q304 64 341 100T390 208L398 260ZM284 579L209 709L290 745L351 579H284Z" />
<glyph unicode="&#xf3;" glyph-name="oacute" horiz-adv-x="542" d="M483 258L475 208Q459 102 400 46T245 -10Q175 -10 130 22T66 110T59 237L67 288Q84 390 142 447T297 505Q368 505 413 472T476 384T483 258ZM398 260Q410 335 384 382T296 430Q238 430 201
393T152 288L144 235Q132 158 158 111T246 64Q304 64 341 100T390 208L398 260ZM356 579H280L399 745L476 709L356 579Z" />
<glyph unicode="&#xf4;" glyph-name="ocircumflex" horiz-adv-x="542" d="M483 258L475 208Q459 102 400 46T245 -10Q175 -10 130 22T66 110T59 237L67 288Q84 390 142 447T297 505Q368 505 413 472T476 384T483 258ZM398 260Q410 335 384 382T296 430Q238 430
201 393T152 288L144 235Q132 158 158 111T246 64Q304 64 341 100T390 208L398 260ZM387 579L337 674L252 579H183L304 740H387L451 579H387Z" />
<glyph unicode="&#xf5;" glyph-name="otilde" horiz-adv-x="542" d="M483 258L475 208Q459 102 400 46T245 -10Q175 -10 130 22T66 110T59 237L67 288Q84 390 142 447T297 505Q368 505 413 472T476 384T483 258ZM398 260Q410 335 384 382T296 430Q238 430 201
393T152 288L144 235Q132 158 158 111T246 64Q304 64 341 100T390 208L398 260ZM389 588Q361 588 345 600T318 629T299 657T277 670Q267 670 257 656T238 600H175Q185 655 200 685T236 726T277 738Q306 738 322 726T349 697T367 669T389 656Q400 656 409 669T427
725H490Q481 670 466 641T431 600T389 588Z" />
<glyph unicode="&#xf6;" glyph-name="odieresis" horiz-adv-x="542" d="M483 258L475 208Q459 102 400 46T245 -10Q175 -10 130 22T66 110T59 237L67 288Q84 390 142 447T297 505Q368 505 413 472T476 384T483 258ZM398 260Q410 335 384 382T296 430Q238 430 201
393T152 288L144 235Q132 158 158 111T246 64Q304 64 341 100T390 208L398 260ZM272 619H186L201 705H287L272 619ZM463 619H377L392 705H478L463 619Z" />
<glyph unicode="&#xf7;" glyph-name="divide" horiz-adv-x="588" d="M377 456H285L301 547H393L377 456ZM90 266L102 338H516L504 266H90ZM306 53H214L230 145H322L306 53Z" />
<glyph unicode="&#xf8;" glyph-name="oslash" horiz-adv-x="543" d="M245 -10Q211 -10 183 -2T132 20L92 -30H13L88 65Q42 131 59 237L67 288Q84 390 142 447T297 505Q365 505 410 474L451 525H530L454 429Q476 396 483 352T483 258L475 208Q459 102 400 46T245
-10ZM144 235Q135 180 147 139L360 410Q335 430 296 430Q238 430 201 393T152 288L144 235ZM398 260Q407 313 396 355L182 84Q207 64 246 64Q304 64 341 100T390 208L398 260Z" />
<glyph unicode="&#xf9;" glyph-name="ugrave" horiz-adv-x="559" d="M349 0L365 90Q307 29 263 10T182 -10Q115 -10 85 39T68 167L126 495H208L152 175Q142 120 156 94T203 67Q222 67 246 75T302 108T376 177L432 495H514L427 0H349ZM300 579L225 709L306 745L367
579H300Z" />
<glyph unicode="&#xfa;" glyph-name="uacute" horiz-adv-x="559" d="M349 0L365 90Q307 29 263 10T182 -10Q115 -10 85 39T68 167L126 495H208L152 175Q142 120 156 94T203 67Q222 67 246 75T302 108T376 177L432 495H514L427 0H349ZM372 579H296L415 745L492
709L372 579Z" />
<glyph unicode="&#xfb;" glyph-name="ucircumflex" horiz-adv-x="559" d="M349 0L365 90Q307 29 263 10T182 -10Q115 -10 85 39T68 167L126 495H208L152 175Q142 120 156 94T203 67Q222 67 246 75T302 108T376 177L432 495H514L427 0H349ZM404 579L354 674L269
579H200L321 740H404L468 579H404Z" />
<glyph unicode="&#xfc;" glyph-name="udieresis" horiz-adv-x="559" d="M349 0L365 90Q307 29 263 10T182 -10Q115 -10 85 39T68 167L126 495H208L152 175Q142 120 156 94T203 67Q222 67 246 75T302 108T376 177L432 495H514L427 0H349ZM289 619H203L218 705H304L289
619ZM480 619H394L409 705H495L480 619Z" />
<glyph unicode="&#xfd;" glyph-name="yacute" horiz-adv-x="472" d="M204 -50Q170 -113 137 -151T63 -206T-33 -223L-19 -142Q16 -141 40 -133T86 -101T136 -28L154 3L65 495H146L188 254L211 102L286 254L409 495H494L231 0L204 -50ZM586 579H510L629 745L706
709L586 579Z" />
<glyph unicode="&#xfe;" glyph-name="thorn" horiz-adv-x="556" d="M255 -10Q221 -10 190 -2T129 20L88 -213H6L174 740H256L198 411Q245 464 286 484T365 505Q415 505 447 474T491 389T494 266L487 218Q471 109 412 50T255 -10ZM342 430Q311 430 270 402T179
305L142 93Q197 64 249 64Q317 64 354 105T402 218L409 266Q420 345 403 387T342 430Z" />
<glyph unicode="&#xff;" glyph-name="ydieresis" horiz-adv-x="472" d="M204 -50Q170 -113 137 -151T63 -206T-33 -223L-19 -142Q16 -141 40 -133T86 -101T136 -28L154 3L65 495H146L188 254L211 102L286 254L409 495H494L231 0L204 -50ZM502 619H416L431 705H517L502
619ZM693 619H607L622 705H708L693 619Z" />
<glyph unicode="&#x2013;" glyph-name="endash" horiz-adv-x="592" d="M59 267L72 339H552L539 267H59Z" />
<glyph unicode="&#x2014;" glyph-name="emdash" horiz-adv-x="792" d="M59 267L72 339H752L739 267H59Z" />
<glyph unicode="&#x2018;" glyph-name="quoteleft" horiz-adv-x="192" d="M69 430L72 449Q83 516 111 571T189 690L238 661Q213 620 197 587T171 517T151 430H69Z" />
<glyph unicode="&#x2019;" glyph-name="quoteright" horiz-adv-x="192" d="M231 680L228 661Q217 594 189 538T111 420L62 448Q88 490 104 523T130 593T149 680H231Z" />
<glyph unicode="&#x201a;" glyph-name="quotesinglbase" horiz-adv-x="192" d="M109 91L106 72Q95 6 67 -50T-10 -168L-59 -139Q-34 -98 -18 -65T8 5T27 91H109Z" />
<glyph unicode="&#x201c;" glyph-name="quotedblleft" horiz-adv-x="356" d="M233 430L236 449Q247 516 275 571T353 690L402 661Q377 620 361 587T335 517T315 430H233ZM69 430L72 449Q83 516 111 571T189 690L238 661Q213 620 197 587T171 517T151 430H69Z" />
<glyph unicode="&#x201d;" glyph-name="quotedblright" horiz-adv-x="356" d="M231 680L228 661Q217 594 189 538T111 420L62 448Q88 490 104 523T130 593T149 680H231ZM395 680L392 661Q381 594 353 538T275 420L226 448Q252 490 268 523T294 593T313 680H395Z" />
<glyph unicode="&#x201e;" glyph-name="quotedblbase" horiz-adv-x="356" d="M109 91L106 72Q95 6 67 -50T-10 -168L-59 -139Q-33 -98 -18 -65T8 5T27 91H109ZM273 91L270 72Q259 6 231 -50T154 -168L104 -139Q130 -98 146 -65T172 5T191 91H273Z" />
<glyph unicode="&#x2022;" glyph-name="bullet" horiz-adv-x="243" d="M188 271H63L85 396H210L188 271Z" />
<glyph unicode="&#x2039;" glyph-name="guilsinglleft" horiz-adv-x="377" d="M296 98L280 14L33 221L42 274L362 478L346 382L119 241L296 98Z" />
<glyph unicode="&#x203a;" glyph-name="guilsinglright" horiz-adv-x="377" d="M334 218L14 14L30 109L256 250L80 393L96 478L343 271L334 218Z" />
</font>
</defs>
</svg>
