<?xml version="1.0" standalone="no"?>
<!DOCTYPE svg PUBLIC "-//W3C//DTD SVG 1.1//EN" "http://www.w3.org/Graphics/SVG/1.1/DTD/svg11.dtd">
<svg xmlns="http://www.w3.org/2000/svg">
<defs >
<font id="InriaSans" horiz-adv-x="558" ><font-face
    font-family="Inria Sans"
    units-per-em="1000"
    panose-1="0 0 0 0 0 0 0 0 0 0"
    ascent="976"
    descent="-223"
    alphabetic="0" />
<glyph unicode=" " glyph-name="space" horiz-adv-x="200" />
<glyph unicode="!" glyph-name="exclam" horiz-adv-x="281" d="M186 199H96L84 460V680H199V460L186 199ZM201 0H80V119H201V0Z" />
<glyph unicode="&quot;" glyph-name="quotedbl" horiz-adv-x="386" d="M139 388H72L52 584V680H159V584L139 388ZM314 388H247L227 584V680H334V584L314 388Z" />
<glyph unicode="#" glyph-name="numbersign" horiz-adv-x="654" d="M296 0L353 185H207L150 0H55L112 185H15V272H138L180 408H85V495H206L263 680H358L301 495H447L504 680H599L542 495H639V408H516L474 272H569V185H448L391 0H296ZM233 272H379L421 408H275L233 272Z" />
<glyph unicode="$" glyph-name="dollar" horiz-adv-x="518" d="M480 191Q480 115 439 63T312 -4V-145H202V-8Q163 -4 122 7T32 41L69 144Q125 120 164 111T242 101Q358 101 358 187Q358 222 341 242T276 277L194 304Q47 352 47 497Q47 568 85 619T202 685V825H312V687Q347
683 382 673T455 646L418 543Q370 562 337 570T268 579Q222 579 196 563T169 503Q169 471 187 451T249 416L331 389Q405 364 442 317T480 191Z" />
<glyph unicode="%" glyph-name="percent" horiz-adv-x="732" d="M310 546V515Q310 450 276 413T173 375Q105 375 71 412T36 515V546Q36 611 70 648T173 685Q241 685 275 648T310 546ZM485 680H575L246 0H156L485 680ZM230 546Q230 610 173 610Q117 610 117 546V515Q117
451 173 451Q230 451 230 515V546ZM696 166V135Q696 70 662 33T559 -5Q491 -5 457 32T422 135V166Q422 231 456 268T559 305Q627 305 661 268T696 166ZM616 166Q616 230 559 230Q503 230 503 166V135Q503 71 559 71Q616 71 616 135V166Z" />
<glyph unicode="&amp;" glyph-name="ampersand" horiz-adv-x="561" d="M237 96Q277 96 303 115T335 166T320 239L412 295L564 0H439L395 99Q381 51 338 21T226 -10Q137 -10 87 40T36 169Q36 225 65 274T166 369Q117 407 95 445T73 528Q73 573 94 610T155 668T255
690Q340 690 390 646T440 524Q440 477 422 443T371 382T296 327L226 282Q181 253 167 226T153 174Q153 134 176 115T237 96ZM184 522Q184 500 196 473T240 418Q275 441 293 456T318 486T325 517Q325 553 305 569T256 586Q226 586 205 570T184 522Z" />
<glyph unicode="&apos;" glyph-name="quotesingle" horiz-adv-x="211" d="M139 388H72L52 584V680H159V584L139 388Z" />
<glyph unicode="(" glyph-name="parenleft" horiz-adv-x="333" d="M49 317Q49 433 99 542T252 750L332 675Q247 588 207 502T167 317V280Q167 183 207 96T332 -78L252 -153Q150 -54 100 55T49 280V317Z" />
<glyph unicode=")" glyph-name="parenright" horiz-adv-x="333" d="M284 280Q284 164 234 55T81 -153L1 -78Q87 9 126 96T166 280V317Q166 415 127 501T1 675L81 750Q183 651 233 542T284 317V280Z" />
<glyph unicode="*" glyph-name="asterisk" horiz-adv-x="407" d="M354 366L277 310L248 351L205 446L161 350L132 310L55 366L84 406L162 476L57 488L9 504L39 594L86 579L177 527L156 630V680H251V630L230 528L321 580L369 595L398 505L351 489L246 477L325 407L354
366Z" />
<glyph unicode="+" glyph-name="plus" horiz-adv-x="588" d="M501 255H345V95H243V255H87V355H243V515H345V355H501V255Z" />
<glyph unicode="," glyph-name="comma" horiz-adv-x="211" d="M161 119V100Q161 16 142 -60T69 -223L-3 -184Q19 -143 30 -101T45 -5T49 119H161Z" />
<glyph unicode="-" glyph-name="hyphen" horiz-adv-x="404" d="M50 265V365H354V265H50Z" />
<glyph unicode="." glyph-name="period" horiz-adv-x="211" d="M166 0H45V119H166V0Z" />
<glyph unicode="/" glyph-name="slash" horiz-adv-x="394" d="M285 740H403L79 -143H-39L285 740Z" />
<glyph unicode="0" glyph-name="zero" horiz-adv-x="610" d="M545 412V269Q545 139 484 65T305 -10Q187 -10 126 64T65 269V412Q65 542 126 616T305 690Q423 690 484 616T545 412ZM424 412Q424 579 305 579Q244 579 215 537T186 412V269Q186 186 215 144T305 101Q424
101 424 269V412Z" />
<glyph unicode="1" glyph-name="one" horiz-adv-x="377" d="M10 583L183 680H283V0H165V548L63 492L10 583Z" />
<glyph unicode="2" glyph-name="two" horiz-adv-x="505" d="M452 0H40V95Q40 167 59 215T110 295T180 346L248 380Q287 400 311 422T336 481V499Q336 536 311 557T229 579Q195 579 161 569T77 541L40 644Q96 669 142 679T233 690Q314 690 362 664T432 595T454
499V481Q454 427 433 389T376 325T300 279L232 245Q195 227 178 195T158 113H452V0Z" />
<glyph unicode="3" glyph-name="three" horiz-adv-x="501" d="M446 185Q446 132 424 88T354 17T224 -10Q178 -10 129 1T20 38L57 141Q110 122 146 112T220 101Q273 101 300 122T328 190V204Q328 242 305 265T232 289H126V397H232Q279 397 301 419T323 478V492Q323
538 298 558T223 579Q188 579 153 570T67 541L30 644Q86 670 134 680T227 690Q304 690 351 664T419 594T441 497V483Q441 436 418 401T356 344Q397 322 421 286T446 199V185Z" />
<glyph unicode="4" glyph-name="four" horiz-adv-x="527" d="M505 154H434V0H318V154H26V251Q71 321 115 393T199 538T263 680H394Q357 578 294 471T164 261H318V364H434V261H505V154Z" />
<glyph unicode="5" glyph-name="five" horiz-adv-x="519" d="M67 351L87 680H435V567H193L184 417Q219 426 259 426Q358 426 414 375T470 223V196Q470 140 447 93T374 18T240 -10Q194 -10 145 1T36 38L73 141Q126 120 162 111T236 101Q292 101 320 124T349 196V223Q349
267 324 293T242 319Q217 319 190 313T132 294L67 351Z" />
<glyph unicode="6" glyph-name="six" horiz-adv-x="569" d="M523 204Q523 143 496 95T420 18T300 -10Q189 -10 127 65T65 271V412Q65 552 131 621T317 690Q359 690 404 680T505 644L462 541Q417 562 383 570T320 579Q257 579 219 542T180 412V376Q215 407 252
422T327 437Q387 437 431 410T499 335T523 224V204ZM180 271Q180 185 212 143T302 101Q352 101 379 129T406 204V224Q406 271 381 300T309 329Q238 329 180 275V271Z" />
<glyph unicode="7" glyph-name="seven" horiz-adv-x="464" d="M441 577Q373 433 326 289T250 0H124Q152 142 198 284T311 567H19V680H441V577Z" />
<glyph unicode="8" glyph-name="eight" horiz-adv-x="560" d="M509 185Q509 130 484 86T406 16T274 -10Q195 -10 146 14T74 79T51 168Q51 217 74 258T150 335Q108 363 86 404T63 500Q63 553 88 596T161 664T276 690Q348 690 397 666T470 602T495 511Q495 467 475
429T406 357Q509 299 509 185ZM267 408L316 393Q350 422 363 446T377 497Q377 537 352 560T279 584Q232 584 207 561T181 498Q181 435 267 408ZM169 185Q169 145 198 121T280 96Q332 96 361 120T391 184Q391 214 370 238T296 279L242 296Q205 266 187 240T169 185Z"
/>
<glyph unicode="9" glyph-name="nine" horiz-adv-x="569" d="M504 268Q504 128 438 59T252 -10Q210 -10 165 0T64 36L107 139Q152 118 186 110T249 101Q312 101 350 139T389 268V304Q355 273 318 258T242 243Q183 243 139 270T70 345T46 456V476Q46 532 73 581T150
660T269 690Q380 690 442 615T504 409V268ZM163 456Q163 410 188 381T260 351Q331 351 389 405V409Q389 495 358 537T267 579Q218 579 191 547T163 476V456Z" />
<glyph unicode=":" glyph-name="colon" horiz-adv-x="211" d="M166 388H45V507H166V388ZM166 0H45V119H166V0Z" />
<glyph unicode=";" glyph-name="semicolon" horiz-adv-x="211" d="M166 388H45V507H166V388ZM161 119V100Q161 16 142 -60T69 -223L-3 -184Q19 -143 30 -101T45 -5T49 119H161Z" />
<glyph unicode="&lt;" glyph-name="less" horiz-adv-x="588" d="M501 213V103L87 271V352L501 517V411L241 313L501 213Z" />
<glyph unicode="=" glyph-name="equal" horiz-adv-x="588" d="M87 364V464H501V364H87ZM87 165V265H501V165H87Z" />
<glyph unicode="&gt;" glyph-name="greater" horiz-adv-x="588" d="M501 268L87 103V209L347 307L87 407V517L501 349V268Z" />
<glyph unicode="?" glyph-name="question" horiz-adv-x="454" d="M204 583Q170 583 133 574T47 545L10 644Q67 670 117 680T212 690Q289 690 335 667T403 605T424 514V496Q424 443 408 405T352 330L316 297Q283 267 277 249T271 208V199H151V217Q151 255 163 287T220
360L257 394Q286 421 296 441T306 486V504Q306 539 283 561T204 583ZM272 0H151V119H272V0Z" />
<glyph unicode="@" glyph-name="at" horiz-adv-x="945" d="M728 -167Q670 -193 602 -208T466 -223Q333 -223 238 -169T91 -18T39 209Q39 311 71 399T163 552T307 653T495 690Q588 690 665 660T797 576T883 449T913 289Q913 204 883 138T800 33T681 -5Q634 -5 602
14T557 73Q511 24 473 7T398 -10Q330 -10 299 51T283 211L290 255Q307 359 358 413T503 467Q555 467 605 449T700 402L658 162Q652 129 660 108T694 87Q723 87 749 112T793 182T810 289Q810 378 771 447T661 555T495 595Q387 595 308 544T185 406T142 209Q142 106
180 31T291 -86T466 -128Q525 -128 586 -114T698 -75L728 -167ZM399 211Q389 150 400 123T440 95Q463 95 489 113T548 176L578 348Q560 356 545 361T513 366Q467 366 441 336T406 255L399 211Z" />
<glyph unicode="A" glyph-name="A" horiz-adv-x="601" d="M456 0L414 133H181L139 0H20L247 680H353L581 0H456ZM246 341L215 243H379L348 341L298 513L246 341Z" />
<glyph unicode="B" glyph-name="B" horiz-adv-x="585" d="M94 0V680H301Q377 680 421 658T485 596T505 502V474Q505 395 437 353Q485 334 510 298T535 212V184Q535 129 515 88T449 23T326 0H94ZM301 570H214V400H301Q341 400 361 418T382 469V502Q382 534 362
552T301 570ZM326 290H214V110H326Q368 110 390 130T412 184V217Q412 251 390 270T326 290Z" />
<glyph unicode="C" glyph-name="C" horiz-adv-x="534" d="M186 269Q186 196 218 150T323 103Q353 103 385 111T466 138L503 34Q449 10 404 0T316 -10Q232 -10 176 26T91 125T63 269V412Q63 493 91 556T175 654T316 690Q357 690 401 681T497 648L460 542Q414 561
383 569T323 577Q250 577 218 531T186 412V269Z" />
<glyph unicode="D" glyph-name="D" horiz-adv-x="639" d="M94 0V680H324Q446 680 510 612T574 412V269Q574 136 510 68T324 0H94ZM319 565H214V115H319Q390 115 420 150T451 269V412Q451 495 421 530T319 565Z" />
<glyph unicode="E" glyph-name="E" horiz-adv-x="536" d="M488 115V0H94V680H478V565H214V402H448V287H214V115H488Z" />
<glyph unicode="F" glyph-name="F" horiz-adv-x="505" d="M442 261H214V0H94V680H472V565H214V376H442V261Z" />
<glyph unicode="G" glyph-name="G" horiz-adv-x="603" d="M544 44Q519 29 462 10T327 -10Q240 -10 182 26T93 125T63 269V412Q63 495 93 557T182 655T332 690Q376 690 423 681T526 646L489 541Q440 560 405 568T334 577Q256 577 221 533T186 412V269Q186 197 221
151T333 105Q356 105 383 109T435 120V269H325V374H544V44Z" />
<glyph unicode="H" glyph-name="H" horiz-adv-x="682" d="M468 0V287H214V0H94V680H214V402H468V680H588V0H468Z" />
<glyph unicode="I" glyph-name="I" horiz-adv-x="308" d="M214 0H94V680H214V0Z" />
<glyph unicode="J" glyph-name="J" horiz-adv-x="376" d="M26 -10V105Q107 105 143 135T180 244V680H300V244Q300 166 276 109T193 21T26 -10Z" />
<glyph unicode="K" glyph-name="K" horiz-adv-x="616" d="M455 0L285 297Q268 278 251 259T214 220V0H94V680H214V357Q290 444 344 522T437 680H568Q525 594 477 518T374 376L600 0H455Z" />
<glyph unicode="L" glyph-name="L" horiz-adv-x="507" d="M486 115V0H94V680H214V115H486Z" />
<glyph unicode="M" glyph-name="M" horiz-adv-x="829" d="M225 680L415 215L604 680H735V0H620V260L635 498L466 80H359L194 499L209 260V0H94V680H225Z" />
<glyph unicode="N" glyph-name="N" horiz-adv-x="683" d="M94 0V680H204Q283 577 354 463T483 227L474 430V680H589V0H479Q415 126 347 253T201 494L209 260V0H94Z" />
<glyph unicode="O" glyph-name="O" horiz-adv-x="640" d="M575 412V269Q575 139 510 65T320 -10Q194 -10 130 64T65 269V412Q65 542 129 616T320 690Q445 690 510 616T575 412ZM452 412Q452 494 420 535T320 577Q252 577 220 536T188 412V269Q188 187 220 145T320
103Q388 103 420 145T452 269V412Z" />
<glyph unicode="P" glyph-name="P" horiz-adv-x="574" d="M94 0V680H318Q425 680 478 626T532 482V429Q532 339 479 285T318 230H214V0H94ZM318 565H214V345H318Q362 345 385 367T409 429V482Q409 521 386 543T318 565Z" />
<glyph unicode="Q" glyph-name="Q" horiz-adv-x="640" d="M560 -73V-198Q482 -198 435 -180T362 -128T319 -45L307 -10Q188 -6 127 68T65 269V412Q65 542 129 616T320 690Q445 690 510 616T575 412V269Q575 168 536 100T419 5Q428 -27 444 -44T487 -67T560 -73ZM452
412Q452 494 420 535T320 577Q252 577 220 536T188 412V269Q188 187 220 145T320 103Q388 103 420 145T452 269V412Z" />
<glyph unicode="R" glyph-name="R" horiz-adv-x="609" d="M214 250V0H94V680H321Q424 680 479 628T535 487V444Q535 386 510 342T438 275Q520 135 578 0H441Q391 125 322 250H214ZM321 570H214V360H321Q365 360 388 382T412 444V487Q412 525 389 547T321 570Z" />
<glyph unicode="S" glyph-name="S" horiz-adv-x="518" d="M242 101Q358 101 358 187Q358 222 341 242T276 277L194 304Q47 352 47 497Q47 581 99 635T264 690Q311 690 357 680T455 646L418 543Q370 562 337 570T268 579Q222 579 196 563T169 503Q169 471 187 451T249
416L331 389Q405 364 442 317T480 191Q480 101 423 46T244 -10Q196 -10 145 1T32 41L69 144Q125 120 164 111T242 101Z" />
<glyph unicode="T" glyph-name="T" horiz-adv-x="526" d="M13 565V680H513V565H323V0H203V565H13Z" />
<glyph unicode="U" glyph-name="U" horiz-adv-x="646" d="M78 680H201V244Q201 178 230 141T323 103Q387 103 416 140T445 244V680H568V244Q568 129 507 60T323 -10Q199 -10 139 59T78 244V680Z" />
<glyph unicode="V" glyph-name="V" horiz-adv-x="584" d="M570 680L354 0H231L14 680H146L249 338L296 162L346 339L448 680H570Z" />
<glyph unicode="W" glyph-name="W" horiz-adv-x="867" d="M208 411L246 159L382 680H490L625 163L667 411L719 680H841L688 0H565L434 506L302 0H179L26 680H156L208 411Z" />
<glyph unicode="X" glyph-name="X" horiz-adv-x="569" d="M418 0L276 249L141 0H15L214 353L26 680H162L293 452L416 680H542L355 347L554 0H418Z" />
<glyph unicode="Y" glyph-name="Y" horiz-adv-x="544" d="M541 680L333 273V0H213V271L3 680H131L278 390L417 680H541Z" />
<glyph unicode="Z" glyph-name="Z" horiz-adv-x="509" d="M473 115V0H38V105L322 565H48V680H463V575L179 115H473Z" />
<glyph unicode="[" glyph-name="bracketleft" horiz-adv-x="350" d="M349 -43V-143H94V740H349V640H209V-43H349Z" />
<glyph unicode="\" glyph-name="backslash" horiz-adv-x="394" d="M109 740L433 -143H315L-9 740H109Z" />
<glyph unicode="]" glyph-name="bracketright" horiz-adv-x="350" d="M256 740V-143H1V-43H141V640H1V740H256Z" />
<glyph unicode="^" glyph-name="asciicircum" horiz-adv-x="588" d="M391 266L292 526L193 266H87L253 680H334L501 266H391Z" />
<glyph unicode="_" glyph-name="underscore" horiz-adv-x="414" d="M5 -163V-90H409V-163H5Z" />
<glyph unicode="`" glyph-name="grave" horiz-adv-x="500" d="M199 579L96 699L204 745L300 579H199Z" />
<glyph unicode="a" glyph-name="a" horiz-adv-x="507" d="M463 -5Q412 -5 382 16T337 68Q294 28 254 9T168 -10Q101 -10 70 33T38 142Q38 186 54 219T109 272T213 291Q239 291 267 288T323 279V338Q323 380 300 395T238 411Q208 411 173 403T96 378L63 476Q164
517 246 517Q320 517 360 492T417 426T433 338V143Q433 128 441 115T475 101H486V-5H463ZM149 144Q149 117 161 102T196 86Q219 86 248 98T323 154V197Q271 206 221 206Q182 206 166 190T149 144Z" />
<glyph unicode="b" glyph-name="b" horiz-adv-x="560" d="M506 227Q506 118 452 54T294 -10Q186 -10 75 50V740H190V440Q236 486 269 501T337 517Q417 517 461 455T506 281V227ZM306 410Q282 410 256 396T190 341V114Q217 103 239 98T284 93Q340 93 364 129T388
227V281Q388 348 367 379T306 410Z" />
<glyph unicode="c" glyph-name="c" horiz-adv-x="448" d="M167 283V224Q167 160 190 128T264 96Q289 96 320 102T389 123L422 26Q377 8 337 -1T258 -10Q158 -10 105 54T52 224V283Q52 390 105 453T258 517Q296 517 335 508T417 482L384 383Q312 411 264 411Q213
411 190 380T167 283Z" />
<glyph unicode="d" glyph-name="d" horiz-adv-x="564" d="M376 0V69Q330 23 297 7T227 -10Q145 -10 100 52T54 226V280Q54 389 109 453T268 517Q294 517 319 512T370 498V740H485V0H376ZM172 226Q172 159 194 128T258 97Q281 97 307 110T370 162V394Q321 414 280
414Q222 414 197 378T172 280V226Z" />
<glyph unicode="e" glyph-name="e" horiz-adv-x="521" d="M464 29Q412 8 366 -1T279 -10Q166 -10 108 54T50 224V284Q50 355 76 407T150 488T263 517Q316 517 362 496T438 429T468 312Q468 291 465 268T455 218H161Q163 156 192 125T285 94Q319 94 355 102T431
126L464 29ZM263 420Q217 420 192 391T162 306H354Q355 311 355 315T355 324Q355 372 328 396T263 420Z" />
<glyph unicode="f" glyph-name="f" horiz-adv-x="377" d="M372 407H214V0H99V407H17V507H99V560Q99 643 141 696T276 750Q310 750 346 743T411 725L383 626Q335 642 297 642Q257 642 236 625T214 560V507H372V407Z" />
<glyph unicode="g" glyph-name="g" horiz-adv-x="531" d="M500 -51Q500 -132 437 -177T260 -223Q207 -223 148 -211T39 -171L72 -80Q120 -104 167 -114T259 -125Q322 -125 355 -108T388 -63Q388 -20 337 -20H217Q168 -20 138 -4T94 37T80 91Q80 120 92 145T127
193Q91 215 70 252T48 341Q48 400 73 439T141 497T238 517H255Q275 517 294 515T330 507H511V409L411 425Q426 409 434 386T443 328Q443 277 418 241T350 185T255 165H238Q218 165 200 168Q189 156 184 144T179 120Q179 85 224 85H346Q415 85 457 50T500 -51ZM255
259Q286 259 309 280T333 341Q333 381 310 402T255 423H238Q206 423 183 402T159 341Q159 301 182 280T238 259H255Z" />
<glyph unicode="h" glyph-name="h" horiz-adv-x="584" d="M327 410Q302 410 270 398T194 351V0H79V740H194V444Q240 483 280 500T362 517Q435 517 473 471T511 340V0H396V326Q396 410 327 410Z" />
<glyph unicode="i" glyph-name="i" horiz-adv-x="273" d="M197 603H76V722H197V603ZM194 0H79V507H194V0Z" />
<glyph unicode="j" glyph-name="j" horiz-adv-x="273" d="M197 603H76V722H197V603ZM-25 -223V-115Q25 -115 52 -91T79 -4V507H194V-4Q194 -61 176 -111T110 -192T-25 -223Z" />
<glyph unicode="k" glyph-name="k" horiz-adv-x="532" d="M382 0L257 211Q227 181 194 151V0H79V740H194V278Q251 336 292 389T369 507H501Q468 447 429 393T343 284L521 0H382Z" />
<glyph unicode="l" glyph-name="l" horiz-adv-x="276" d="M76 143V740H191V143Q191 128 198 115T228 101H244V-5H216Q159 -5 129 17T88 73T76 143Z" />
<glyph unicode="m" glyph-name="m" horiz-adv-x="881" d="M194 351V0H79V507H188V440Q235 481 275 499T357 517Q450 517 484 435Q534 479 577 498T664 517Q734 517 771 471T808 340V0H693V326Q693 410 629 410Q604 410 574 398T501 351V0H386V326Q386 410 322
410Q297 410 267 398T194 351Z" />
<glyph unicode="n" glyph-name="n" horiz-adv-x="584" d="M327 410Q302 410 270 398T194 351V0H79V507H188V439Q235 480 277 498T362 517Q435 517 473 471T511 340V0H396V326Q396 410 327 410Z" />
<glyph unicode="o" glyph-name="o" horiz-adv-x="544" d="M494 284V224Q494 118 436 54T272 -10Q166 -10 108 54T50 224V284Q50 390 107 453T272 517Q379 517 436 454T494 284ZM376 284Q376 345 349 379T272 414Q222 414 195 380T168 284V224Q168 163 195 128T272
93Q322 93 349 128T376 224V284Z" />
<glyph unicode="p" glyph-name="p" horiz-adv-x="564" d="M296 -10Q271 -10 246 -5T194 9V-213H79V507H188V438Q235 485 268 501T337 517Q420 517 465 455T510 281V227Q510 118 455 54T296 -10ZM306 410Q283 410 258 397T194 345V113Q243 93 284 93Q342 93 367
129T392 227V281Q392 348 370 379T306 410Z" />
<glyph unicode="q" glyph-name="q" horiz-adv-x="561" d="M485 457V-213H370V67Q324 21 291 6T223 -10Q143 -10 99 52T54 226V280Q54 389 108 453T266 517Q374 517 485 457ZM172 226Q172 159 193 128T254 97Q278 97 304 111T370 166V393Q343 404 321 409T276 414Q221
414 197 378T172 280V226Z" />
<glyph unicode="r" glyph-name="r" horiz-adv-x="387" d="M365 402Q318 402 276 388T194 341V0H79V507H188V429Q239 477 279 497T365 517V402Z" />
<glyph unicode="s" glyph-name="s" horiz-adv-x="456" d="M221 90Q258 90 282 102T306 140Q306 162 291 174T235 197L178 212Q112 229 81 269T49 364Q49 429 94 473T233 517Q271 517 313 508T401 479L368 381Q326 401 292 409T232 417Q161 417 161 369Q161 350
173 339T220 319L277 304Q350 285 383 246T417 148Q417 78 370 34T220 -10Q133 -10 37 30L68 125Q115 106 153 98T221 90Z" />
<glyph unicode="t" glyph-name="t" horiz-adv-x="397" d="M384 17Q358 5 324 -2T255 -10Q197 -10 162 14T112 81T96 179V407H14V507H96V639H211V507H369V407H211V179Q211 133 228 116T279 98Q295 98 313 101T355 114L384 17Z" />
<glyph unicode="u" glyph-name="u" horiz-adv-x="569" d="M381 0V67Q335 27 295 9T214 -10Q146 -10 109 36T72 167V507H187V181Q187 97 249 97Q274 97 303 109T375 155V507H490V0H381Z" />
<glyph unicode="v" glyph-name="v" horiz-adv-x="499" d="M482 507L302 0H197L17 507H133L220 254L253 149L285 254L368 507H482Z" />
<glyph unicode="w" glyph-name="w" horiz-adv-x="737" d="M710 507L580 0H455L371 381L282 0H157L27 507H145L194 306L228 123L314 507H430L519 119L551 305L599 507H710Z" />
<glyph unicode="x" glyph-name="x" horiz-adv-x="490" d="M347 0L242 170L139 0H19L183 260L30 507H154L248 356L339 507H459L306 265L471 0H347Z" />
<glyph unicode="y" glyph-name="y" horiz-adv-x="499" d="M284 -50Q251 -142 200 -182T60 -223V-108Q113 -106 143 -85T189 -25L198 -2L17 507H131L218 254L252 147L285 254L368 507H482L284 -50Z" />
<glyph unicode="z" glyph-name="z" horiz-adv-x="432" d="M397 100V0H35V90L249 407H45V507H387V417L173 100H397Z" />
<glyph unicode="{" glyph-name="braceleft" horiz-adv-x="381" d="M380 -44V-144H291Q183 -144 142 -89T123 61L143 147Q154 192 142 220T73 248H20V348H73Q129 348 141 376T143 449L123 535Q101 629 142 684T291 740H380V640H291Q254 640 241 616T237 554L257
468Q273 399 254 356T184 298Q234 283 254 241T257 128L237 42Q228 5 241 -19T291 -44H380Z" />
<glyph unicode="|" glyph-name="bar" horiz-adv-x="303" d="M94 740H209V-213H94V740Z" />
<glyph unicode="}" glyph-name="braceright" horiz-adv-x="381" d="M258 61Q280 -33 239 -88T90 -144H1V-44H90Q127 -44 140 -20T144 42L124 128Q108 197 127 240T197 298Q147 313 128 355T124 468L144 554Q153 592 140 616T90 640H1V740H90Q198 740 239 685T258
535L238 449Q228 404 240 376T308 348H361V248H308Q252 248 240 220T238 147L258 61Z" />
<glyph unicode="~" glyph-name="asciitilde" horiz-adv-x="588" d="M376 210Q343 210 318 226T274 263T239 300T210 316Q204 316 197 311T182 285T167 220L77 240Q88 310 108 348T155 401T211 416Q244 416 269 400T313 363T347 326T376 310Q383 310 390 315T406
342T421 407L511 387Q500 317 480 279T433 225T376 210Z" />
<glyph unicode="&#xa0;" glyph-name="uni00A0" horiz-adv-x="200" />
<glyph unicode="&#xa1;" glyph-name="exclamdown" horiz-adv-x="281" d="M80 507H201V388H80V507ZM95 308H185L197 47V-173H82V47L95 308Z" />
<glyph unicode="&#xa2;" glyph-name="cent" horiz-adv-x="448" d="M422 26Q394 15 368 7T315 -5V-125H205V-5Q130 12 91 72T52 224V283Q52 375 91 435T205 512V632H315V512Q363 503 417 482L384 383Q312 411 264 411Q213 411 190 380T167 283V224Q167 160 190
128T264 96Q289 96 320 102T389 123L422 26Z" />
<glyph unicode="&#xa3;" glyph-name="sterling" horiz-adv-x="487" d="M461 0H61V105Q118 152 135 188T153 252Q153 257 153 262T151 272H53V372H112Q96 404 82 440T68 520Q68 569 88 607T154 667T271 690Q313 690 357 681T454 648L417 542Q370 562 336 569T276
577Q236 577 214 560T191 503Q191 469 206 437T237 372H392V272H270V260Q270 189 203 115H461V0Z" />
<glyph unicode="&#xa4;" glyph-name="currency" d="M546 87L489 28L386 134Q340 103 279 103Q219 103 172 134L69 28L12 87L115 194Q87 241 87 300Q87 359 115 406L12 513L69 572L172 466Q219 497 279 497Q340 497 386 466L489 572L546 513L443 406Q471 359 471
300Q471 241 443 194L546 87ZM279 193Q321 193 348 220T376 300Q376 352 349 379T279 407Q237 407 210 380T182 300Q182 248 209 221T279 193Z" />
<glyph unicode="&#xa5;" glyph-name="yen" horiz-adv-x="566" d="M509 149H344V0H224V149H59V236H224V271L203 312H59V399H158L14 680H142L289 390L428 680H552L408 399H509V312H364L344 273V236H509V149Z" />
<glyph unicode="&#xa6;" glyph-name="brokenbar" horiz-adv-x="281" d="M83 740H198V357H83V740ZM83 170H198V-213H83V170Z" />
<glyph unicode="&#xa7;" glyph-name="section" horiz-adv-x="521" d="M458 -38Q458 -118 406 -170T241 -223Q197 -223 143 -212T30 -175L67 -70Q120 -92 161 -101T239 -110Q285 -110 310 -95T335 -46Q335 -20 317 -2T249 35L167 65Q103 88 74 130T45 222Q45 266
68 304T131 368Q97 394 81 431T65 511Q65 588 116 639T267 690Q309 690 354 681T457 649L420 544Q370 563 337 570T270 577Q233 577 211 562T188 514Q188 489 207 471T272 435L354 405Q418 382 448 342T478 252Q478 211 456 173T388 108Q458 56 458 -38ZM247 167L300
148Q329 168 342 185T355 231Q355 260 337 275T274 306L213 327Q187 305 178 285T168 245Q168 218 185 201T247 167Z" />
<glyph unicode="&#xa8;" glyph-name="dieresis" horiz-adv-x="500" d="M208 609H99V716H208V609ZM402 609H293V716H402V609Z" />
<glyph unicode="&#xa9;" glyph-name="copyright" horiz-adv-x="834" d="M417 -37Q336 -37 268 -9T150 70T73 189T45 340Q45 422 72 490T150 610T268 689T417 717Q497 717 565 689T683 610T761 491T789 340Q789 258 761 190T683 70T565 -9T417 -37ZM417 33Q503
33 569 72T674 181T713 340Q713 429 675 498T570 607T417 647Q332 647 265 608T160 499T121 340Q121 250 159 181T265 73T417 33ZM333 361V320Q333 265 353 237T418 208Q444 208 471 216T526 237L555 158Q487 123 413 123Q328 123 284 175T240 320V361Q240 453
284 505T413 557Q445 557 480 550T546 525L517 446Q492 458 467 465T418 472Q373 472 353 444T333 361Z" />
<glyph unicode="&#xaa;" glyph-name="ordfeminine" horiz-adv-x="327" d="M307 338Q276 338 253 348T219 379Q188 353 165 344T119 335Q70 335 47 363T24 432Q24 474 47 503T134 533Q149 533 166 531T203 527V568Q203 593 190 602T148 612Q124 612 101 606T53
587L34 655Q63 669 91 677T149 685Q203 685 231 669T269 628T280 575V443Q280 428 285 419T305 410H314V338H307ZM101 437Q101 421 108 412T131 402Q148 402 164 409T203 435V468Q186 470 170 471T143 473Q101 473 101 437Z" />
<glyph unicode="&#xab;" glyph-name="guillemotleft" horiz-adv-x="711" d="M338 134V14L42 209V286L338 478V362L154 249L338 134ZM658 134V14L362 209V286L658 478V362L474 249L658 134Z" />
<glyph unicode="&#xac;" glyph-name="logicalnot" horiz-adv-x="588" d="M87 475H501V218H399V375H87V475Z" />
<glyph unicode="&#xad;" glyph-name="uni00AD" horiz-adv-x="0" />
<glyph unicode="&#xae;" glyph-name="registered" horiz-adv-x="528" d="M264 241Q197 241 144 272T61 357T30 479Q30 548 60 601T144 686T264 717Q331 717 384 686T467 602T498 479Q498 411 468 357T384 272T264 241ZM264 299Q314 299 352 322T413 387T436 479Q436
531 414 571T353 635T264 659Q215 659 176 636T115 572T92 479Q92 428 114 387T176 323T264 299ZM175 353V608H270Q311 608 332 586T354 526V517Q354 469 320 447Q348 403 369 353H302Q293 374 283 394T262 434H236V353H175ZM270 550H236V493H270Q291 493 291 517V526Q291
550 270 550Z" />
<glyph unicode="&#xaf;" glyph-name="overscore" horiz-adv-x="500" d="M402 692V609H99V692H402Z" />
<glyph unicode="&#xb0;" glyph-name="degree" horiz-adv-x="348" d="M174 366Q104 366 61 411T17 528Q17 600 60 645T174 690Q243 690 287 645T331 528Q331 481 311 444T256 387T174 366ZM174 443Q209 443 230 466T251 528Q251 567 230 590T174 613Q140 613 119
590T97 528Q97 489 118 466T174 443Z" />
<glyph unicode="&#xb1;" glyph-name="plusminus" horiz-adv-x="588" d="M501 295H345V145H243V295H87V395H243V545H345V395H501V295ZM87 0V100H501V0H87Z" />
<glyph unicode="&#xb2;" glyph-name="uni00B2" horiz-adv-x="269" d="M242 445H21V513Q21 563 43 591T96 632L130 647Q150 656 157 665T164 685V688Q164 715 121 715Q103 715 85 710T40 696L21 767Q50 780 75 785T124 790Q189 790 216 761T243 691V682Q243 648
225 625T167 585L133 570Q116 563 109 552T100 522H242V445Z" />
<glyph unicode="&#xb3;" glyph-name="uni00B3" horiz-adv-x="275" d="M243 538Q243 498 215 469T119 440Q94 440 68 445T15 461L35 531Q58 523 77 520T115 516Q164 516 164 545V552Q164 566 153 575T121 585H70V649H121Q161 649 161 679V686Q161 715 115 715Q100
715 83 712T42 700L20 770Q48 781 71 785T117 790Q184 790 212 762T240 694V687Q240 663 227 646T192 617Q215 607 229 589T243 545V538Z" />
<glyph unicode="&#xb4;" glyph-name="acute" horiz-adv-x="500" d="M301 579H200L296 745L404 699L301 579Z" />
<glyph unicode="&#xb5;" glyph-name="uni00B5" horiz-adv-x="574" d="M194 -213H79V507H194V181Q194 97 256 97Q281 97 310 109T382 155V507H497V143Q497 128 505 115T539 101H550V-5H527Q466 -5 436 17T395 74Q346 30 307 10T229 -10Q194 -10 171 5L194 -125V-213Z" />
<glyph unicode="&#xb6;" glyph-name="paragraph" horiz-adv-x="569" d="M37 482Q37 572 90 626T251 680H557V593H475V-143H355V593H292V230H251Q144 230 91 284T37 429V482Z" />
<glyph unicode="&#xb7;" glyph-name="middot" horiz-adv-x="500" d="M311 325H190V444H311V325Z" />
<glyph unicode="&#xb8;" glyph-name="cedilla" horiz-adv-x="500" d="M364 -124Q364 -173 329 -198T238 -223Q214 -223 194 -219T153 -208L166 -139Q208 -150 238 -150Q259 -150 268 -143T277 -126Q277 -117 269 -110T238 -102Q226 -102 211 -105L186 -73L198
0H275L268 -39Q318 -41 341 -65T364 -124Z" />
<glyph unicode="&#xb9;" glyph-name="uni00B9" horiz-adv-x="220" d="M17 737L113 785H173V445H94V697L47 674L17 737Z" />
<glyph unicode="&#xba;" glyph-name="ordmasculine" horiz-adv-x="344" d="M323 531V489Q323 416 283 376T172 335Q100 335 61 375T21 489V531Q21 601 60 643T172 685Q244 685 283 643T323 531ZM243 531Q243 568 225 589T172 610Q138 610 120 589T101 531V489Q101
451 119 431T172 410Q206 410 224 430T243 489V531Z" />
<glyph unicode="&#xbb;" glyph-name="guillemotright" horiz-adv-x="711" d="M669 206L373 14V130L557 243L373 358V478L669 283V206ZM349 206L53 14V130L237 243L53 358V478L349 283V206Z" />
<glyph unicode="&#xbc;" glyph-name="onequarter" horiz-adv-x="614" d="M17 632L113 680H173V340H94V592L47 569L17 632ZM420 680H510L181 0H91L420 680ZM608 67H574V0H501V67H353V131Q388 184 418 236T467 340H552Q533 289 504 239T439 136H501V182H574V136H608V67Z" />
<glyph unicode="&#xbd;" glyph-name="onehalf" horiz-adv-x="645" d="M17 632L113 680H173V340H94V592L47 569L17 632ZM420 680H510L181 0H91L420 680ZM618 0H397V68Q397 118 419 146T472 187L506 202Q526 211 533 220T540 240V243Q540 270 497 270Q479 270 461
265T416 251L397 322Q426 335 451 340T500 345Q565 345 592 316T619 246V237Q619 203 601 180T543 140L509 125Q492 118 485 107T476 77H618V0Z" />
<glyph unicode="&#xbe;" glyph-name="threequarters" horiz-adv-x="644" d="M243 433Q243 393 215 364T119 335Q94 335 68 340T15 356L35 426Q58 418 77 415T115 411Q164 411 164 440V447Q164 461 153 470T121 480H70V544H121Q161 544 161 574V581Q161 610 115
610Q100 610 83 607T42 595L20 665Q48 676 71 680T117 685Q184 685 212 657T240 589V582Q240 558 227 541T192 512Q215 502 229 484T243 440V433ZM450 680H540L211 0H121L450 680ZM638 67H604V0H531V67H383V131Q418 184 448 236T497 340H582Q563 289 534 239T469
136H531V182H604V136H638V67Z" />
<glyph unicode="&#xbf;" glyph-name="questiondown" horiz-adv-x="454" d="M195 507H316V388H195V507ZM263 -76Q297 -76 334 -67T420 -38L457 -137Q400 -162 350 -172T255 -183Q178 -183 132 -160T64 -98T43 -7V11Q43 64 59 102T115 177L151 210Q184 240 190 258T196
299V308H316V290Q316 252 304 220T247 147L210 113Q181 86 171 67T161 21V3Q161 -31 184 -53T263 -76Z" />
<glyph unicode="&#xc0;" glyph-name="Agrave" horiz-adv-x="601" d="M456 0L414 133H181L139 0H20L247 680H353L581 0H456ZM246 341L215 243H379L348 341L298 513L246 341ZM250 752L147 872L255 918L351 752H250Z" />
<glyph unicode="&#xc1;" glyph-name="Aacute" horiz-adv-x="601" d="M456 0L414 133H181L139 0H20L247 680H353L581 0H456ZM246 341L215 243H379L348 341L298 513L246 341ZM352 752H251L347 918L455 872L352 752Z" />
<glyph unicode="&#xc2;" glyph-name="Acircumflex" horiz-adv-x="601" d="M456 0L414 133H181L139 0H20L247 680H353L581 0H456ZM246 341L215 243H379L348 341L298 513L246 341ZM359 752L298 832L237 752H148L244 913H356L452 752H359Z" />
<glyph unicode="&#xc3;" glyph-name="Atilde" horiz-adv-x="601" d="M456 0L414 133H181L139 0H20L247 680H353L581 0H456ZM246 341L215 243H379L348 341L298 513L246 341ZM360 761Q336 761 320 772T291 797T269 822T248 833Q239 833 235 821T230 769H149Q149
856 175 889T242 923Q266 923 282 912T311 887T333 862T354 851Q363 851 367 863T372 915H453Q453 827 427 794T360 761Z" />
<glyph unicode="&#xc4;" glyph-name="Adieresis" horiz-adv-x="601" d="M456 0L414 133H181L139 0H20L247 680H353L581 0H456ZM246 341L215 243H379L348 341L298 513L246 341ZM258 782H149V889H258V782ZM452 782H343V889H452V782Z" />
<glyph unicode="&#xc5;" glyph-name="Aring" horiz-adv-x="601" d="M181 133L139 0H20L231 632Q181 662 181 728V739Q181 790 213 821T301 853Q356 853 388 822T421 739V728Q421 661 370 631L581 0H456L414 133H181ZM350 739Q350 761 337 774T301 787Q279 787
266 774T252 739V728Q252 706 265 693T301 680Q324 680 337 693T350 728V739ZM246 341L215 243H379L348 341L298 513L246 341Z" />
<glyph unicode="&#xc6;" glyph-name="AE" horiz-adv-x="843" d="M1 0L338 680H785V565H521V402H755V287H521V115H795V0H401V133H196L132 0H1ZM249 243H401V557L249 243Z" />
<glyph unicode="&#xc7;" glyph-name="Ccedilla" horiz-adv-x="534" d="M411 -124Q411 -173 376 -198T285 -223Q261 -223 241 -219T200 -208L213 -139Q255 -150 285 -150Q306 -150 315 -143T324 -126Q324 -117 316 -110T285 -102Q273 -102 258 -105L233 -73L245
-2Q154 20 109 93T63 269V412Q63 493 91 556T175 654T316 690Q357 690 401 681T497 648L460 542Q414 561 383 569T323 577Q250 577 218 531T186 412V269Q186 196 218 150T323 103Q353 103 385 111T466 138L503 34Q449 10 404 0T320 -10L315 -39Q365 -41 388 -65T411
-124Z" />
<glyph unicode="&#xc8;" glyph-name="Egrave" horiz-adv-x="536" d="M488 115V0H94V680H478V565H214V402H448V287H214V115H488ZM235 752L132 872L240 918L336 752H235Z" />
<glyph unicode="&#xc9;" glyph-name="Eacute" horiz-adv-x="536" d="M488 115V0H94V680H478V565H214V402H448V287H214V115H488ZM337 752H236L332 918L440 872L337 752Z" />
<glyph unicode="&#xca;" glyph-name="Ecircumflex" horiz-adv-x="536" d="M488 115V0H94V680H478V565H214V402H448V287H214V115H488ZM344 752L283 832L222 752H133L229 913H341L437 752H344Z" />
<glyph unicode="&#xcb;" glyph-name="Edieresis" horiz-adv-x="536" d="M488 115V0H94V680H478V565H214V402H448V287H214V115H488ZM244 782H135V889H244V782ZM438 782H329V889H438V782Z" />
<glyph unicode="&#xcc;" glyph-name="Igrave" horiz-adv-x="308" d="M214 0H94V680H214V0ZM103 752L0 872L108 918L204 752H103Z" />
<glyph unicode="&#xcd;" glyph-name="Iacute" horiz-adv-x="308" d="M214 0H94V680H214V0ZM205 752H104L200 918L308 872L205 752Z" />
<glyph unicode="&#xce;" glyph-name="Icircumflex" horiz-adv-x="308" d="M214 0H94V680H214V0ZM212 752L151 832L90 752H1L97 913H209L305 752H212Z" />
<glyph unicode="&#xcf;" glyph-name="Idieresis" horiz-adv-x="308" d="M214 0H94V680H214V0ZM112 782H3V889H112V782ZM306 782H197V889H306V782Z" />
<glyph unicode="&#xd0;" glyph-name="Eth" horiz-adv-x="648" d="M21 399H103V680H333Q455 680 519 612T583 412V269Q583 136 519 68T333 0H103V290H21V399ZM343 290H223V115H328Q399 115 429 150T460 269V412Q460 495 430 530T328 565H223V399H343V290Z" />
<glyph unicode="&#xd1;" glyph-name="Ntilde" horiz-adv-x="683" d="M94 0V680H204Q283 577 354 463T483 227L474 430V680H589V0H479Q415 126 347 253T201 494L209 260V0H94ZM401 761Q377 761 361 772T332 797T310 822T289 833Q280 833 276 821T271 769H190Q190
856 216 889T283 923Q307 923 323 912T352 887T374 862T395 851Q404 851 408 863T413 915H494Q494 827 468 794T401 761Z" />
<glyph unicode="&#xd2;" glyph-name="Ograve" horiz-adv-x="640" d="M575 412V269Q575 139 510 65T320 -10Q194 -10 130 64T65 269V412Q65 542 129 616T320 690Q445 690 510 616T575 412ZM452 412Q452 494 420 535T320 577Q252 577 220 536T188 412V269Q188 187
220 145T320 103Q388 103 420 145T452 269V412ZM269 752L166 872L274 918L370 752H269Z" />
<glyph unicode="&#xd3;" glyph-name="Oacute" horiz-adv-x="640" d="M575 412V269Q575 139 510 65T320 -10Q194 -10 130 64T65 269V412Q65 542 129 616T320 690Q445 690 510 616T575 412ZM452 412Q452 494 420 535T320 577Q252 577 220 536T188 412V269Q188 187
220 145T320 103Q388 103 420 145T452 269V412ZM371 752H270L366 918L474 872L371 752Z" />
<glyph unicode="&#xd4;" glyph-name="Ocircumflex" horiz-adv-x="640" d="M575 412V269Q575 139 510 65T320 -10Q194 -10 130 64T65 269V412Q65 542 129 616T320 690Q445 690 510 616T575 412ZM452 412Q452 494 420 535T320 577Q252 577 220 536T188 412V269Q188
187 220 145T320 103Q388 103 420 145T452 269V412ZM378 752L317 832L256 752H167L263 913H375L471 752H378Z" />
<glyph unicode="&#xd5;" glyph-name="Otilde" horiz-adv-x="640" d="M575 412V269Q575 139 510 65T320 -10Q194 -10 130 64T65 269V412Q65 542 129 616T320 690Q445 690 510 616T575 412ZM452 412Q452 494 420 535T320 577Q252 577 220 536T188 412V269Q188 187
220 145T320 103Q388 103 420 145T452 269V412ZM379 761Q355 761 339 772T310 797T288 822T267 833Q258 833 254 821T249 769H168Q168 856 194 889T261 923Q285 923 301 912T330 887T352 862T373 851Q382 851 386 863T391 915H472Q472 827 446 794T379 761Z" />
<glyph unicode="&#xd6;" glyph-name="Odieresis" horiz-adv-x="640" d="M575 412V269Q575 139 510 65T320 -10Q194 -10 130 64T65 269V412Q65 542 129 616T320 690Q445 690 510 616T575 412ZM452 412Q452 494 420 535T320 577Q252 577 220 536T188 412V269Q188
187 220 145T320 103Q388 103 420 145T452 269V412ZM278 782H169V889H278V782ZM472 782H363V889H472V782Z" />
<glyph unicode="&#xd7;" glyph-name="multiply" horiz-adv-x="588" d="M504 176L433 105L294 244L155 105L84 176L223 315L84 454L155 525L294 386L433 525L504 454L365 315L504 176Z" />
<glyph unicode="&#xd8;" glyph-name="Oslash" horiz-adv-x="640" d="M320 -10Q245 -10 192 17L166 -30H65L122 73Q65 145 65 269V412Q65 542 129 616T320 690Q396 690 448 663L474 710H575L518 607Q575 535 575 412V269Q575 139 510 65T320 -10ZM185 269Q185 250
186 233T192 200L393 563Q362 580 320 580Q250 580 218 538T185 412V269ZM455 412Q455 432 454 449T448 480L247 117Q278 100 320 100Q390 100 422 143T455 269V412Z" />
<glyph unicode="&#xd9;" glyph-name="Ugrave" horiz-adv-x="646" d="M78 680H201V244Q201 178 230 141T323 103Q387 103 416 140T445 244V680H568V244Q568 129 507 60T323 -10Q199 -10 139 59T78 244V680ZM272 752L169 872L277 918L373 752H272Z" />
<glyph unicode="&#xda;" glyph-name="Uacute" horiz-adv-x="646" d="M78 680H201V244Q201 178 230 141T323 103Q387 103 416 140T445 244V680H568V244Q568 129 507 60T323 -10Q199 -10 139 59T78 244V680ZM374 752H273L369 918L477 872L374 752Z" />
<glyph unicode="&#xdb;" glyph-name="Ucircumflex" horiz-adv-x="646" d="M78 680H201V244Q201 178 230 141T323 103Q387 103 416 140T445 244V680H568V244Q568 129 507 60T323 -10Q199 -10 139 59T78 244V680ZM381 752L320 832L259 752H170L266 913H378L474 752H381Z" />
<glyph unicode="&#xdc;" glyph-name="Udieresis" horiz-adv-x="646" d="M78 680H201V244Q201 178 230 141T323 103Q387 103 416 140T445 244V680H568V244Q568 129 507 60T323 -10Q199 -10 139 59T78 244V680ZM281 782H172V889H281V782ZM475 782H366V889H475V782Z" />
<glyph unicode="&#xdd;" glyph-name="Yacute" horiz-adv-x="544" d="M541 680L333 273V0H213V271L3 680H131L278 390L417 680H541ZM323 752H222L318 918L426 872L323 752Z" />
<glyph unicode="&#xde;" glyph-name="Thorn" horiz-adv-x="574" d="M318 118H214V0H94V680H214V568H318Q425 568 478 514T532 370V317Q532 227 479 173T318 118ZM318 453H214V233H318Q362 233 385 255T409 317V370Q409 409 386 431T318 453Z" />
<glyph unicode="&#xdf;" glyph-name="germandbls" horiz-adv-x="629" d="M603 151Q603 81 560 36T430 -10Q402 -10 362 -4T278 22L305 120Q345 102 376 96T429 89Q492 89 492 142Q492 158 484 175T448 212L407 241Q364 271 343 304T322 380Q322 418 336 452T364
518T378 579Q378 613 355 627T296 642Q258 642 236 625T214 560V0H99V407H17V507H99V560Q99 643 146 696T296 750Q347 750 391 734T462 683T490 590Q490 546 476 514T448 454T434 399Q434 383 443 367T486 327L527 298Q569 268 586 232T603 151Z" />
<glyph unicode="&#xe0;" glyph-name="agrave" horiz-adv-x="507" d="M463 -5Q412 -5 382 16T337 68Q294 28 254 9T168 -10Q101 -10 70 33T38 142Q38 186 54 219T109 272T213 291Q239 291 267 288T323 279V338Q323 380 300 395T238 411Q208 411 173 403T96 378L63
476Q164 517 246 517Q320 517 360 492T417 426T433 338V143Q433 128 441 115T475 101H486V-5H463ZM149 144Q149 117 161 102T196 86Q219 86 248 98T323 154V197Q271 206 221 206Q182 206 166 190T149 144ZM448 579L345 699L453 745L549 579H448Z" />
<glyph unicode="&#xe1;" glyph-name="aacute" horiz-adv-x="507" d="M463 -5Q412 -5 382 16T337 68Q294 28 254 9T168 -10Q101 -10 70 33T38 142Q38 186 54 219T109 272T213 291Q239 291 267 288T323 279V338Q323 380 300 395T238 411Q208 411 173 403T96 378L63
476Q164 517 246 517Q320 517 360 492T417 426T433 338V143Q433 128 441 115T475 101H486V-5H463ZM149 144Q149 117 161 102T196 86Q219 86 248 98T323 154V197Q271 206 221 206Q182 206 166 190T149 144ZM550 579H449L545 745L653 699L550 579Z" />
<glyph unicode="&#xe2;" glyph-name="acircumflex" horiz-adv-x="507" d="M463 -5Q412 -5 382 16T337 68Q294 28 254 9T168 -10Q101 -10 70 33T38 142Q38 186 54 219T109 272T213 291Q239 291 267 288T323 279V338Q323 380 300 395T238 411Q208 411 173 403T96
378L63 476Q164 517 246 517Q320 517 360 492T417 426T433 338V143Q433 128 441 115T475 101H486V-5H463ZM149 144Q149 117 161 102T196 86Q219 86 248 98T323 154V197Q271 206 221 206Q182 206 166 190T149 144ZM557 579L496 659L435 579H346L442 740H554L650
579H557Z" />
<glyph unicode="&#xe3;" glyph-name="atilde" horiz-adv-x="507" d="M463 -5Q412 -5 382 16T337 68Q294 28 254 9T168 -10Q101 -10 70 33T38 142Q38 186 54 219T109 272T213 291Q239 291 267 288T323 279V338Q323 380 300 395T238 411Q208 411 173 403T96 378L63
476Q164 517 246 517Q320 517 360 492T417 426T433 338V143Q433 128 441 115T475 101H486V-5H463ZM149 144Q149 117 161 102T196 86Q219 86 248 98T323 154V197Q271 206 221 206Q182 206 166 190T149 144ZM558 588Q534 588 518 599T489 624T467 649T446 660Q437
660 433 648T428 596H347Q347 683 373 716T440 750Q464 750 480 739T509 714T531 689T552 678Q561 678 565 690T570 742H651Q651 654 625 621T558 588Z" />
<glyph unicode="&#xe4;" glyph-name="adieresis" horiz-adv-x="507" d="M463 -5Q412 -5 382 16T337 68Q294 28 254 9T168 -10Q101 -10 70 33T38 142Q38 186 54 219T109 272T213 291Q239 291 267 288T323 279V338Q323 380 300 395T238 411Q208 411 173 403T96 378L63
476Q164 517 246 517Q320 517 360 492T417 426T433 338V143Q433 128 441 115T475 101H486V-5H463ZM149 144Q149 117 161 102T196 86Q219 86 248 98T323 154V197Q271 206 221 206Q182 206 166 190T149 144ZM456 609H347V716H456V609ZM650 609H541V716H650V609Z"
/>
<glyph unicode="&#xe5;" glyph-name="aring" horiz-adv-x="507" d="M463 -5Q412 -5 382 16T337 68Q294 28 254 9T168 -10Q101 -10 70 33T38 142Q38 186 54 219T109 272T213 291Q239 291 267 288T323 279V338Q323 380 300 395T238 411Q208 411 173 403T96 378L63
476Q164 517 246 517Q320 517 360 492T417 426T433 338V143Q433 128 441 115T475 101H486V-5H463ZM149 144Q149 117 161 102T196 86Q219 86 248 98T323 154V197Q271 206 221 206Q182 206 166 190T149 144ZM619 689V678Q619 627 587 595T499 563Q444 563 412 595T379
678V689Q379 740 411 771T499 803Q554 803 586 772T619 689ZM548 689Q548 711 535 724T499 737Q477 737 464 724T450 689V678Q450 656 463 643T499 630Q522 630 535 643T548 678V689Z" />
<glyph unicode="&#xe6;" glyph-name="ae" horiz-adv-x="794" d="M737 29Q685 8 639 -1T552 -10Q484 -10 436 14T360 81Q311 34 266 12T168 -10Q101 -10 70 33T38 142Q38 186 54 219T109 272T213 291Q239 291 267 288T323 279V338Q323 380 300 395T238 411Q208
411 173 403T96 378L63 476Q164 517 246 517Q303 517 337 498T390 447Q415 480 452 498T536 517Q589 517 635 496T711 429T741 312Q741 291 738 268T728 218H434Q436 156 465 125T558 94Q592 94 628 102T704 126L737 29ZM536 420Q490 420 465 391T435 306H627Q628
311 628 315T628 324Q628 372 601 396T536 420ZM149 144Q149 117 161 102T196 86Q219 86 250 99T329 160Q328 169 327 178T324 197Q270 206 221 206Q182 206 166 190T149 144Z" />
<glyph unicode="&#xe7;" glyph-name="ccedilla" horiz-adv-x="448" d="M371 -124Q371 -173 336 -198T245 -223Q221 -223 201 -219T160 -208L173 -139Q215 -150 245 -150Q266 -150 275 -143T284 -126Q284 -117 276 -110T245 -102Q233 -102 218 -105L193 -73L204
-4Q130 12 91 72T52 224V283Q52 390 105 453T258 517Q296 517 335 508T417 482L384 383Q312 411 264 411Q213 411 190 380T167 283V224Q167 160 190 128T264 96Q289 96 320 102T389 123L422 26Q348 -4 280 -9L275 -39Q325 -41 348 -65T371 -124Z" />
<glyph unicode="&#xe8;" glyph-name="egrave" horiz-adv-x="521" d="M464 29Q412 8 366 -1T279 -10Q166 -10 108 54T50 224V284Q50 355 76 407T150 488T263 517Q316 517 362 496T438 429T468 312Q468 291 465 268T455 218H161Q163 156 192 125T285 94Q319 94 355
102T431 126L464 29ZM263 420Q217 420 192 391T162 306H354Q355 311 355 315T355 324Q355 372 328 396T263 420ZM213 579L110 699L218 745L314 579H213Z" />
<glyph unicode="&#xe9;" glyph-name="eacute" horiz-adv-x="521" d="M464 29Q412 8 366 -1T279 -10Q166 -10 108 54T50 224V284Q50 355 76 407T150 488T263 517Q316 517 362 496T438 429T468 312Q468 291 465 268T455 218H161Q163 156 192 125T285 94Q319 94 355
102T431 126L464 29ZM263 420Q217 420 192 391T162 306H354Q355 311 355 315T355 324Q355 372 328 396T263 420ZM315 579H214L310 745L418 699L315 579Z" />
<glyph unicode="&#xea;" glyph-name="ecircumflex" horiz-adv-x="521" d="M464 29Q412 8 366 -1T279 -10Q166 -10 108 54T50 224V284Q50 355 76 407T150 488T263 517Q316 517 362 496T438 429T468 312Q468 291 465 268T455 218H161Q163 156 192 125T285 94Q319
94 355 102T431 126L464 29ZM263 420Q217 420 192 391T162 306H354Q355 311 355 315T355 324Q355 372 328 396T263 420ZM322 579L261 659L200 579H111L207 740H319L415 579H322Z" />
<glyph unicode="&#xeb;" glyph-name="edieresis" horiz-adv-x="521" d="M464 29Q412 8 366 -1T279 -10Q166 -10 108 54T50 224V284Q50 355 76 407T150 488T263 517Q316 517 362 496T438 429T468 312Q468 291 465 268T455 218H161Q163 156 192 125T285 94Q319 94
355 102T431 126L464 29ZM263 420Q217 420 192 391T162 306H354Q355 311 355 315T355 324Q355 372 328 396T263 420ZM221 609H112V716H221V609ZM415 609H306V716H415V609Z" />
<glyph unicode="&#xec;" glyph-name="igrave" horiz-adv-x="273" d="M194 0H79V507H194V0ZM342 579L239 699L347 745L443 579H342Z" />
<glyph unicode="&#xed;" glyph-name="iacute" horiz-adv-x="273" d="M194 0H79V507H194V0ZM444 579H343L439 745L547 699L444 579Z" />
<glyph unicode="&#xee;" glyph-name="icircumflex" horiz-adv-x="273" d="M194 0H79V507H194V0ZM451 579L390 659L329 579H240L336 740H448L544 579H451Z" />
<glyph unicode="&#xef;" glyph-name="idieresis" horiz-adv-x="273" d="M194 0H79V507H194V0ZM350 609H241V716H350V609ZM544 609H435V716H544V609Z" />
<glyph unicode="&#xf0;" glyph-name="eth" horiz-adv-x="537" d="M489 259Q489 125 430 58T264 -10Q158 -10 101 43T44 193V223Q44 288 67 336T133 410T230 436Q262 436 293 427T360 391Q350 432 330 471T277 545L142 463V559L216 604Q177 635 131 661L176 750Q214
728 246 705T306 659L457 750V654L367 600Q432 528 460 452T489 299V259ZM162 193Q162 93 264 93Q315 93 343 132T371 259V284Q337 311 312 320T262 329Q216 329 189 301T162 223V193Z" />
<glyph unicode="&#xf1;" glyph-name="ntilde" horiz-adv-x="584" d="M327 410Q302 410 270 398T194 351V0H79V507H188V439Q235 480 277 498T362 517Q435 517 473 471T511 340V0H396V326Q396 410 327 410ZM359 588Q335 588 319 599T290 624T268 649T247 660Q238
660 234 648T229 596H148Q148 683 174 716T241 750Q265 750 281 739T310 714T332 689T353 678Q362 678 366 690T371 742H452Q452 654 426 621T359 588Z" />
<glyph unicode="&#xf2;" glyph-name="ograve" horiz-adv-x="544" d="M494 284V224Q494 118 436 54T272 -10Q166 -10 108 54T50 224V284Q50 390 107 453T272 517Q379 517 436 454T494 284ZM376 284Q376 345 349 379T272 414Q222 414 195 380T168 284V224Q168 163
195 128T272 93Q322 93 349 128T376 224V284ZM221 579L118 699L226 745L322 579H221Z" />
<glyph unicode="&#xf3;" glyph-name="oacute" horiz-adv-x="544" d="M494 284V224Q494 118 436 54T272 -10Q166 -10 108 54T50 224V284Q50 390 107 453T272 517Q379 517 436 454T494 284ZM376 284Q376 345 349 379T272 414Q222 414 195 380T168 284V224Q168 163
195 128T272 93Q322 93 349 128T376 224V284ZM323 579H222L318 745L426 699L323 579Z" />
<glyph unicode="&#xf4;" glyph-name="ocircumflex" horiz-adv-x="544" d="M494 284V224Q494 118 436 54T272 -10Q166 -10 108 54T50 224V284Q50 390 107 453T272 517Q379 517 436 454T494 284ZM376 284Q376 345 349 379T272 414Q222 414 195 380T168 284V224Q168
163 195 128T272 93Q322 93 349 128T376 224V284ZM330 579L269 659L208 579H119L215 740H327L423 579H330Z" />
<glyph unicode="&#xf5;" glyph-name="otilde" horiz-adv-x="544" d="M494 284V224Q494 118 436 54T272 -10Q166 -10 108 54T50 224V284Q50 390 107 453T272 517Q379 517 436 454T494 284ZM376 284Q376 345 349 379T272 414Q222 414 195 380T168 284V224Q168 163
195 128T272 93Q322 93 349 128T376 224V284ZM331 588Q307 588 291 599T262 624T240 649T219 660Q210 660 206 648T201 596H120Q120 683 146 716T213 750Q237 750 253 739T282 714T304 689T325 678Q334 678 338 690T343 742H424Q424 654 398 621T331 588Z" />
<glyph unicode="&#xf6;" glyph-name="odieresis" horiz-adv-x="544" d="M494 284V224Q494 118 436 54T272 -10Q166 -10 108 54T50 224V284Q50 390 107 453T272 517Q379 517 436 454T494 284ZM376 284Q376 345 349 379T272 414Q222 414 195 380T168 284V224Q168
163 195 128T272 93Q322 93 349 128T376 224V284ZM230 609H121V716H230V609ZM424 609H315V716H424V609Z" />
<glyph unicode="&#xf7;" glyph-name="divide" horiz-adv-x="588" d="M355 447H234V566H355V447ZM87 265V365H501V265H87ZM355 59H234V178H355V59Z" />
<glyph unicode="&#xf8;" glyph-name="oslash" horiz-adv-x="544" d="M272 -10Q244 -10 219 -5T171 9L147 -30H50L104 58Q50 121 50 224V284Q50 390 107 453T272 517Q301 517 326 512T373 498L397 537H494L440 449Q494 387 494 284V224Q494 118 436 54T272 -10ZM163
224Q163 208 165 194T170 167L319 410Q298 419 272 419Q220 419 192 383T163 284V224ZM381 284Q381 317 374 341L225 98Q245 88 272 88Q325 88 353 124T381 224V284Z" />
<glyph unicode="&#xf9;" glyph-name="ugrave" horiz-adv-x="569" d="M381 0V67Q335 27 295 9T214 -10Q146 -10 109 36T72 167V507H187V181Q187 97 249 97Q274 97 303 109T375 155V507H490V0H381ZM230 579L127 699L235 745L331 579H230Z" />
<glyph unicode="&#xfa;" glyph-name="uacute" horiz-adv-x="569" d="M381 0V67Q335 27 295 9T214 -10Q146 -10 109 36T72 167V507H187V181Q187 97 249 97Q274 97 303 109T375 155V507H490V0H381ZM332 579H231L327 745L435 699L332 579Z" />
<glyph unicode="&#xfb;" glyph-name="ucircumflex" horiz-adv-x="569" d="M381 0V67Q335 27 295 9T214 -10Q146 -10 109 36T72 167V507H187V181Q187 97 249 97Q274 97 303 109T375 155V507H490V0H381ZM339 579L278 659L217 579H128L224 740H336L432 579H339Z" />
<glyph unicode="&#xfc;" glyph-name="udieresis" horiz-adv-x="569" d="M381 0V67Q335 27 295 9T214 -10Q146 -10 109 36T72 167V507H187V181Q187 97 249 97Q274 97 303 109T375 155V507H490V0H381ZM238 609H129V716H238V609ZM432 609H323V716H432V609Z" />
<glyph unicode="&#xfd;" glyph-name="yacute" horiz-adv-x="499" d="M284 -50Q251 -142 200 -182T60 -223V-108Q113 -106 143 -85T189 -25L198 -2L17 507H131L218 254L252 147L285 254L368 507H482L284 -50ZM301 579H200L296 745L404 699L301 579Z" />
<glyph unicode="&#xfe;" glyph-name="thorn" horiz-adv-x="560" d="M296 -10Q271 -10 246 -5T194 9V-213H79V740H194V444Q238 487 270 502T337 517Q417 517 461 455T506 281V227Q506 118 452 54T296 -10ZM306 410Q283 410 258 397T194 345V113Q243 93 284 93Q340
93 364 129T388 227V281Q388 348 367 379T306 410Z" />
<glyph unicode="&#xff;" glyph-name="ydieresis" horiz-adv-x="499" d="M284 -50Q251 -142 200 -182T60 -223V-108Q113 -106 143 -85T189 -25L198 -2L17 507H131L218 254L252 147L285 254L368 507H482L284 -50ZM463 609H354V716H463V609ZM657 609H548V716H657V609Z" />
<glyph unicode="&#x2013;" glyph-name="endash" horiz-adv-x="604" d="M50 265V365H554V265H50Z" />
<glyph unicode="&#x2014;" glyph-name="emdash" horiz-adv-x="804" d="M50 265V365H754V265H50Z" />
<glyph unicode="&#x2018;" glyph-name="quoteleft" horiz-adv-x="211" d="M31 388V407Q31 481 52 546T123 690L195 651Q172 602 161 564T146 486T143 388H31Z" />
<glyph unicode="&#x2019;" glyph-name="quoteright" horiz-adv-x="211" d="M180 680V661Q180 588 159 522T88 378L16 417Q40 466 51 504T65 583T68 680H180Z" />
<glyph unicode="&#x201a;" glyph-name="quotesinglbase" horiz-adv-x="211" d="M162 119V100Q162 27 141 -39T70 -183L-2 -144Q22 -95 33 -57T47 21T50 119H162Z" />
<glyph unicode="&#x201c;" glyph-name="quotedblleft" horiz-adv-x="396" d="M216 388V407Q216 481 237 546T308 690L380 651Q357 602 346 564T331 486T328 388H216ZM31 388V407Q31 481 52 546T123 690L195 651Q172 602 161 564T146 486T143 388H31Z" />
<glyph unicode="&#x201d;" glyph-name="quotedblright" horiz-adv-x="396" d="M180 680V661Q180 588 159 522T88 378L16 417Q40 466 51 504T65 583T68 680H180ZM365 680V661Q365 588 344 522T273 378L201 417Q225 466 236 504T250 583T253 680H365Z" />
<glyph unicode="&#x201e;" glyph-name="quotedblbase" horiz-adv-x="396" d="M162 119V100Q162 27 141 -39T70 -183L-2 -144Q22 -95 33 -57T47 21T50 119H162ZM347 119V100Q347 27 326 -39T255 -183L183 -144Q207 -95 218 -57T232 21T235 119H347Z" />
<glyph unicode="&#x2022;" glyph-name="bullet" horiz-adv-x="243" d="M194 262H49V405H194V262Z" />
<glyph unicode="&#x2039;" glyph-name="guilsinglleft" horiz-adv-x="391" d="M338 134V14L42 209V286L338 478V362L154 249L338 134Z" />
<glyph unicode="&#x203a;" glyph-name="guilsinglright" horiz-adv-x="391" d="M349 206L53 14V130L237 243L53 358V478L349 283V206Z" />
</font>
</defs>
</svg>
