<?xml version="1.0" standalone="no"?>
<!DOCTYPE svg PUBLIC "-//W3C//DTD SVG 1.1//EN" "http://www.w3.org/Graphics/SVG/1.1/DTD/svg11.dtd">
<svg xmlns="http://www.w3.org/2000/svg">
<defs >
<font id="InriaSans" horiz-adv-x="561" ><font-face
    font-family="Inria Sans"
    units-per-em="1000"
    panose-1="0 0 0 0 0 0 0 0 0 0"
    ascent="976"
    descent="-223"
    alphabetic="0" />
<glyph unicode=" " glyph-name="space" horiz-adv-x="200" />
<glyph unicode="!" glyph-name="exclam" horiz-adv-x="281" d="M176 199H86L120 460L159 680H274L235 460L176 199ZM156 0H35L56 119H177L156 0Z" />
<glyph unicode="&quot;" glyph-name="quotedbl" horiz-adv-x="386" d="M162 388H95L110 584L127 680H234L217 584L162 388ZM337 388H270L285 584L302 680H409L392 584L337 388Z" />
<glyph unicode="#" glyph-name="numbersign" horiz-adv-x="654" d="M251 0L338 185H199L112 0H10L97 185H3L18 272H138L203 408H112L127 495H244L331 680H433L346 495H485L572 680H674L587 495H681L666 408H546L481 272H572L557 185H440L353 0H251ZM240 272H379L444
408H305L240 272Z" />
<glyph unicode="$" glyph-name="dollar" horiz-adv-x="518" d="M467 204Q467 153 447 108T382 33T266 -7L242 -145H132L156 -7Q83 2 2 41L44 144Q96 120 133 111T211 101Q279 101 310 127T341 194Q341 222 325 240T274 275L201 308Q143 334 113 375T83 481Q83
561 130 619T279 688L303 825H413L388 684Q416 679 444 670T503 646L461 543Q418 561 387 570T322 579Q209 579 209 492Q209 465 224 448T275 414L348 381Q404 356 435 314T467 204Z" />
<glyph unicode="%" glyph-name="percent" horiz-adv-x="734" d="M357 504Q348 442 309 409T209 375Q142 375 109 416T84 522L89 556Q98 618 137 651T237 685Q305 685 338 644T362 538L357 504ZM557 680H651L206 0H112L557 680ZM276 504L282 541Q287 573 275 592T234
611Q211 611 193 598T170 556L164 519Q159 487 171 468T212 449Q235 449 253 462T276 504ZM675 124Q666 62 627 29T527 -5Q460 -5 427 36T402 142L407 176Q416 238 455 271T555 305Q623 305 656 264T680 158L675 124ZM594 124L600 161Q605 193 593 212T552 231Q529
231 511 218T488 176L482 139Q477 107 489 88T530 69Q553 69 571 82T594 124Z" />
<glyph unicode="&amp;" glyph-name="ampersand" horiz-adv-x="555" d="M462 186Q462 122 429 79T339 13T214 -10Q117 -10 61 35T4 163Q4 233 44 283T171 362Q136 397 112 439T88 530Q88 606 140 648T279 690Q350 690 394 662T454 588T453 493L343 478Q358 533
340 559T277 586Q249 586 226 573T203 520Q203 492 218 460T271 387L387 412Q438 423 474 433T542 454L575 352Q538 341 505 333T439 319L416 315Q438 286 450 255T462 186ZM119 171Q119 134 145 115T216 96Q270 96 308 123T347 201Q347 244 317 295L269 286Q190
270 155 241T119 171Z" />
<glyph unicode="&apos;" glyph-name="quotesingle" horiz-adv-x="211" d="M162 388H95L110 584L127 680H234L217 584L162 388Z" />
<glyph unicode="(" glyph-name="parenleft" horiz-adv-x="335" d="M166 184Q166 120 192 49T270 -88L181 -153Q117 -76 83 16T49 190V221Q49 376 125 505T340 750L406 665Q330 598 276 529T194 382T166 206V184Z" />
<glyph unicode=")" glyph-name="parenright" horiz-adv-x="335" d="M184 391V413Q184 478 158 549T80 685L169 750Q233 674 267 582T301 407V376Q301 221 225 92T10 -153L-56 -68Q21 0 74 68T156 216T184 391Z" />
<glyph unicode="*" glyph-name="asterisk" horiz-adv-x="413" d="M374 342L289 300L267 346L241 448L181 360L146 325L80 394L115 428L203 484L103 514L59 538L104 621L147 598L229 531L225 636L234 686L327 669L319 620L280 523L379 558L429 565L442 471L393
464L288 470L353 387L374 342Z" />
<glyph unicode="+" glyph-name="plus" horiz-adv-x="588" d="M501 255H345L317 95H215L243 255H87L105 355H261L289 515H391L363 355H519L501 255Z" />
<glyph unicode="," glyph-name="comma" horiz-adv-x="211" d="M137 119L134 100Q124 42 107 -10T60 -114T-15 -223L-80 -184Q-48 -129 -29 -85T1 7T25 119H137Z" />
<glyph unicode="-" glyph-name="hyphen" horiz-adv-x="404" d="M52 265L69 365H373L356 265H52Z" />
<glyph unicode="." glyph-name="period" horiz-adv-x="211" d="M121 0H0L21 119H142L121 0Z" />
<glyph unicode="/" glyph-name="slash" horiz-adv-x="394" d="M367 740H488L12 -143H-109L367 740Z" />
<glyph unicode="0" glyph-name="zero" horiz-adv-x="610" d="M571 402L549 279Q524 137 459 64T277 -10Q201 -10 149 25T75 126T69 279L91 402Q116 542 181 616T364 690Q440 690 492 654T565 554T571 402ZM450 402Q465 488 442 533T357 579Q296 579 262 535T212
402L190 279Q174 191 198 146T282 101Q344 101 378 144T428 279L450 402Z" />
<glyph unicode="1" glyph-name="one" horiz-adv-x="377" d="M68 583L258 680H358L238 0H120L216 544L106 489L68 583Z" />
<glyph unicode="2" glyph-name="two" horiz-adv-x="514" d="M437 113L417 0H5L22 95Q35 165 57 210T116 285T203 340L277 376Q315 394 336 407T369 435T383 469L387 491Q394 530 373 554T293 579Q261 579 225 570T137 541L109 644Q168 669 214 679T306 690Q383
690 430 662T495 588T505 491L501 468Q492 414 468 381T406 323T312 272L238 236Q194 215 174 187T143 113H437Z" />
<glyph unicode="3" glyph-name="three" horiz-adv-x="504" d="M435 179Q427 124 401 82T324 15T192 -10Q145 -10 98 1T-4 38L39 141Q86 120 122 111T195 101Q248 101 280 120T318 183L320 197Q326 238 308 263T240 289H134L153 397H259Q306 397 332 418T363 474L366
493Q373 538 352 558T281 579Q247 579 209 570T119 541L89 644Q150 670 199 680T291 690Q368 690 413 664T476 595T485 498L482 479Q475 431 449 395T381 336Q413 314 428 278T437 193L435 179Z" />
<glyph unicode="4" glyph-name="four" horiz-adv-x="527" d="M487 154H416L389 0H273L300 154H8L25 251Q112 358 193 466T333 680H474Q418 577 337 471T170 261H319L337 364H453L435 261H506L487 154Z" />
<glyph unicode="5" glyph-name="five" horiz-adv-x="510" d="M76 351L154 680H505L485 567H239L205 420Q235 426 266 426Q337 426 383 398T447 323T454 214L448 184Q437 130 409 86T330 16T195 -10Q147 -10 100 1T-2 38L43 141Q93 120 128 111T202 101Q310 101
327 184L333 214Q342 260 321 289T241 319Q217 319 190 313T130 294L76 351Z" />
<glyph unicode="6" glyph-name="six" horiz-adv-x="568" d="M512 197Q495 103 436 47T276 -10Q196 -10 146 29T77 137T72 291L94 422Q118 565 188 627T377 690Q421 690 465 680T562 644L513 541Q472 562 440 570T378 579Q310 579 267 544T209 422L201 374Q279
437 357 437Q415 437 454 408T510 329T516 219L512 197ZM321 329Q291 329 253 315T183 275Q171 188 196 145T280 101Q326 101 356 127T395 197L399 217Q409 266 390 297T321 329Z" />
<glyph unicode="7" glyph-name="seven" horiz-adv-x="474" d="M507 577Q414 435 344 292T221 0H89Q191 290 370 567H74L94 680H526L507 577Z" />
<glyph unicode="8" glyph-name="eight" horiz-adv-x="567" d="M503 204Q503 149 478 100T398 21T251 -10Q141 -10 88 35T35 148Q35 198 66 250T173 342Q140 368 122 402T104 483Q104 538 130 585T209 661T340 690Q438 690 491 648T545 531Q545 485 518 437T422
351Q461 325 482 289T503 204ZM296 413L346 391Q392 424 408 454T424 510Q424 584 336 584Q283 584 254 559T224 494Q224 464 243 446T296 413ZM157 177Q157 140 182 118T257 96Q319 96 350 122T381 189Q381 216 363 236T302 276L250 299Q201 268 179 240T157 177Z"
/>
<glyph unicode="9" glyph-name="nine" horiz-adv-x="570" d="M506 258Q482 115 412 53T223 -10Q180 -10 135 0T38 36L87 139Q128 118 161 110T222 101Q290 101 333 137T391 258L399 306Q321 243 243 243Q186 243 148 272T93 350T84 461L87 483Q100 578 161 634T324
690Q404 690 454 651T524 543T528 389L506 258ZM201 463Q194 414 212 383T279 351Q309 351 347 365T417 405Q429 492 404 535T320 579Q274 579 243 553T204 483L201 463Z" />
<glyph unicode=":" glyph-name="colon" horiz-adv-x="211" d="M189 388H68L89 507H210L189 388ZM121 0H0L21 119H142L121 0Z" />
<glyph unicode=";" glyph-name="semicolon" horiz-adv-x="211" d="M189 388H68L89 507H210L189 388ZM137 119L134 100Q124 42 107 -10T60 -114T-15 -223L-80 -184Q-48 -129 -29 -85T1 7T25 119H137Z" />
<glyph unicode="&lt;" glyph-name="less" horiz-adv-x="588" d="M493 207L474 103L90 271L104 352L547 517L527 405L250 307L493 207Z" />
<glyph unicode="=" glyph-name="equal" horiz-adv-x="588" d="M106 364L124 464H538L520 364H106ZM71 165L89 265H503L485 165H71Z" />
<glyph unicode="&gt;" glyph-name="greater" horiz-adv-x="588" d="M503 268L60 103L80 215L357 313L114 413L133 517L517 349L503 268Z" />
<glyph unicode="?" glyph-name="question" horiz-adv-x="464" d="M271 583Q239 583 200 574T108 545L79 644Q138 669 188 679T285 690Q364 690 410 663T471 591T476 492L472 472Q463 426 440 396T375 330L337 297Q312 275 299 261T280 235T272 208L271 199H151L154
217Q159 244 168 265T196 309T252 364L291 398Q323 426 337 444T356 486L359 504Q366 539 347 561T271 583ZM237 0H116L137 119H258L237 0Z" />
<glyph unicode="@" glyph-name="at" horiz-adv-x="946" d="M729 -167Q671 -193 603 -208T467 -223Q334 -223 239 -169T92 -18T40 207Q40 310 72 398T164 551T308 653T496 690Q589 690 666 660T798 576T884 449T914 289Q914 204 884 138T801 33T682 -5Q635 -5 603
14T558 73Q512 24 474 7T399 -10Q331 -10 300 51T284 211L291 255Q308 359 359 413T504 467Q556 467 606 449T701 402L659 162Q653 129 661 108T695 87Q724 87 750 112T794 182T811 289Q811 378 772 447T662 555T496 595Q388 595 309 544T186 406T143 207Q143 106
181 31T292 -86T467 -128Q526 -128 587 -114T699 -75L729 -167ZM400 211Q390 150 401 123T441 95Q464 95 490 113T549 176L579 348Q561 356 546 361T514 366Q468 366 442 336T407 255L400 211Z" />
<glyph unicode="A" glyph-name="A" horiz-adv-x="601" d="M416 0L397 133H164L99 0H-25L322 680H428L536 0H416ZM266 341L218 243H382L368 341L348 513L266 341Z" />
<glyph unicode="B" glyph-name="B" horiz-adv-x="586" d="M49 0L169 680H366Q467 680 514 628T548 492L543 462Q537 425 518 396T464 348Q502 326 518 289T526 202L521 172Q512 117 488 79T418 21T294 0H49ZM357 570H270L240 400H327Q366 400 390 415T419 459L425
492Q432 528 414 549T357 570ZM332 290H220L188 110H300Q342 110 367 127T398 174L404 207Q411 245 392 267T332 290Z" />
<glyph unicode="C" glyph-name="C" horiz-adv-x="538" d="M192 280Q179 204 203 154T298 103Q323 103 357 108T442 128L467 23Q412 4 366 -3T286 -10Q204 -10 151 28T77 132T69 280L89 402Q112 545 183 617T380 690Q421 690 462 681T552 648L507 542Q464 561 434
569T372 577Q302 577 264 528T212 402L192 280Z" />
<glyph unicode="D" glyph-name="D" horiz-adv-x="639" d="M49 0L169 680H379Q460 680 514 644T591 545T600 402L578 279Q555 147 484 74T290 0H49ZM371 565H269L189 115H296Q364 115 402 157T455 279L477 402Q491 476 466 520T371 565Z" />
<glyph unicode="E" glyph-name="E" horiz-adv-x="536" d="M463 115L443 0H49L169 680H553L533 565H269L240 402H474L454 287H220L189 115H463Z" />
<glyph unicode="F" glyph-name="F" horiz-adv-x="505" d="M443 261H215L169 0H49L169 680H547L527 565H269L235 376H463L443 261Z" />
<glyph unicode="G" glyph-name="G" horiz-adv-x="603" d="M507 43Q450 15 396 3T298 -10Q212 -10 157 28T79 132T70 280L90 402Q113 545 188 617T396 690Q440 690 486 681T585 648L540 543Q493 562 458 569T391 577Q312 577 269 528T213 402L193 280Q185 229 193
189T231 126T312 103Q332 103 356 107T412 121L438 269H327L346 374H565L507 43Z" />
<glyph unicode="H" glyph-name="H" horiz-adv-x="682" d="M423 0L474 287H220L169 0H49L169 680H289L240 402H494L543 680H663L543 0H423Z" />
<glyph unicode="I" glyph-name="I" horiz-adv-x="308" d="M169 0H49L169 680H289L169 0Z" />
<glyph unicode="J" glyph-name="J" horiz-adv-x="376" d="M-21 -10L0 105Q58 105 93 116T148 157T178 244L255 680H375L298 244Q286 177 267 129T212 50T121 5T-21 -10Z" />
<glyph unicode="K" glyph-name="K" horiz-adv-x="614" d="M416 0L297 303Q275 283 253 263T208 222L169 0H49L169 680H289L234 367Q322 450 388 527T505 680H643Q584 595 521 520T392 379L553 0H416Z" />
<glyph unicode="L" glyph-name="L" horiz-adv-x="507" d="M461 115L441 0H49L169 680H289L189 115H461Z" />
<glyph unicode="M" glyph-name="M" horiz-adv-x="829" d="M295 680L403 212L677 680H810L690 0H575L621 260L677 492L435 80H328L237 498L210 260L164 0H49L169 680H295Z" />
<glyph unicode="N" glyph-name="N" horiz-adv-x="683" d="M49 0L169 680H279Q322 593 356 518T419 368T477 209L503 420L549 680H664L544 0H434Q391 140 345 261T244 501L210 260L164 0H49Z" />
<glyph unicode="O" glyph-name="O" horiz-adv-x="640" d="M601 402L579 279Q554 143 484 67T291 -10Q210 -10 155 27T77 129T69 279L91 402Q115 536 185 613T380 690Q461 690 515 653T593 550T601 402ZM478 402Q492 481 467 529T372 577Q306 577 267 530T214 402L192
279Q178 197 203 150T297 103Q365 103 403 149T456 279L478 402Z" />
<glyph unicode="P" glyph-name="P" horiz-adv-x="575" d="M49 0L169 680H380Q487 680 536 623T570 470L561 414Q548 330 491 280T327 230H210L169 0H49ZM373 565H269L230 345H334Q378 345 405 364T439 419L448 472Q456 516 437 540T373 565Z" />
<glyph unicode="Q" glyph-name="Q" horiz-adv-x="640" d="M503 -73L481 -198Q408 -198 364 -176T299 -114T268 -27L265 -9Q192 -3 144 35T75 136T69 279L91 402Q115 536 185 613T380 690Q461 690 515 653T593 550T601 402L579 279Q559 169 510 98T377 1Q382 -29
394 -45T433 -67T503 -73ZM478 402Q492 481 467 529T372 577Q306 577 267 530T214 402L192 279Q178 197 203 150T297 103Q365 103 403 149T456 279L478 402Z" />
<glyph unicode="R" glyph-name="R" horiz-adv-x="609" d="M49 0L169 680H383Q456 680 502 653T566 579T574 473L566 428Q545 313 443 270Q500 135 533 0H403Q376 127 328 250H213L169 0H49ZM377 570H270L233 360H339Q383 360 410 380T444 435L452 478Q460 522
441 546T377 570Z" />
<glyph unicode="S" glyph-name="S" horiz-adv-x="518" d="M211 101Q279 101 310 127T341 194Q341 222 325 240T274 275L201 308Q143 334 113 375T83 481Q83 540 108 587T187 662T322 690Q368 690 411 679T503 646L461 543Q418 561 387 570T322 579Q209 579 209
492Q209 465 224 448T275 414L348 381Q404 356 435 314T467 204Q467 147 442 98T360 20T211 -10Q159 -10 109 1T2 41L44 144Q96 120 133 111T211 101Z" />
<glyph unicode="T" glyph-name="T" horiz-adv-x="526" d="M68 565L88 680H588L568 565H378L278 0H158L258 565H68Z" />
<glyph unicode="U" glyph-name="U" horiz-adv-x="646" d="M153 680H276L199 244Q188 179 210 141T296 103Q360 103 396 140T443 244L520 680H643L566 244Q553 169 522 112T435 22T292 -10Q211 -10 159 22T85 112T76 244L153 680Z" />
<glyph unicode="V" glyph-name="V" horiz-adv-x="584" d="M645 680L309 0H186L89 680H213L256 338L272 161L353 339L515 680H645Z" />
<glyph unicode="W" glyph-name="W" horiz-adv-x="867" d="M232 411L226 159L454 680H562L606 164L691 411L791 680H916L643 0H520L478 506L257 0H134L101 680H228L232 411Z" />
<glyph unicode="X" glyph-name="X" horiz-adv-x="562" d="M373 0L276 243L103 0H-30L230 354L101 680H230L321 450L484 680H617L367 339L502 0H373Z" />
<glyph unicode="Y" glyph-name="Y" horiz-adv-x="544" d="M616 680L337 274L288 0H168L216 271L78 680H202L295 391L485 680H616Z" />
<glyph unicode="Z" glyph-name="Z" horiz-adv-x="509" d="M448 115L428 0H-7L12 105L368 565H103L123 680H538L519 575L163 115H448Z" />
<glyph unicode="[" glyph-name="bracketleft" horiz-adv-x="350" d="M296 -43L279 -143H24L179 740H434L417 640H277L156 -43H296Z" />
<glyph unicode="\" glyph-name="backslash" horiz-adv-x="394" d="M190 740L363 -143H249L76 740H190Z" />
<glyph unicode="]" glyph-name="bracketright" horiz-adv-x="350" d="M341 740L186 -143H-69L-52 -43H89L208 640H69L86 740H341Z" />
<glyph unicode="^" glyph-name="asciicircum" horiz-adv-x="588" d="M397 266L344 526L199 266H89L328 680H409L503 266H397Z" />
<glyph unicode="_" glyph-name="underscore" horiz-adv-x="414" d="M-69 -163L-56 -90H348L335 -163H-69Z" />
<glyph unicode="`" glyph-name="grave" horiz-adv-x="500" d="M258 579L176 699L287 745L354 579H258Z" />
<glyph unicode="a" glyph-name="a" horiz-adv-x="558" d="M465 -5Q410 -5 384 18T349 76Q295 24 252 7T176 -10Q127 -10 95 21T52 108T51 236L58 280Q77 396 134 456T295 517Q353 517 408 500T511 452L457 143Q455 128 461 115T491 101H503L484 -5H465ZM169 236Q158
164 171 131T215 97Q241 97 274 117T351 192L386 394Q345 414 305 414Q249 414 218 378T176 280L169 236Z" />
<glyph unicode="b" glyph-name="b" horiz-adv-x="560" d="M501 227Q483 112 424 51T260 -10Q199 -10 145 10T40 58L160 740H275L221 431Q273 484 312 500T382 517Q432 517 464 486T508 399T508 271L501 227ZM340 410Q314 410 280 386T198 301L166 115Q189 103
209 98T250 93Q309 93 341 129T383 227L390 271Q402 343 389 376T340 410Z" />
<glyph unicode="c" glyph-name="c" horiz-adv-x="450" d="M293 411Q247 411 215 382T172 294L161 234Q136 96 251 96Q275 96 301 101T366 120L383 21Q337 4 303 -3T237 -10Q129 -10 80 58T50 242L59 294Q79 405 140 461T292 517Q361 517 441 483L403 384Q340 411
293 411Z" />
<glyph unicode="d" glyph-name="d" horiz-adv-x="564" d="M331 0L346 85Q291 27 250 9T177 -10Q128 -10 96 21T51 108T51 236L58 280Q76 396 135 456T299 517Q330 517 357 511T412 493L455 740H570L440 0H331ZM169 236Q157 164 171 131T219 97Q245 97 279 122T362
207L394 392Q371 404 350 409T309 414Q251 414 219 378T176 280L169 236Z" />
<glyph unicode="e" glyph-name="e" horiz-adv-x="522" d="M424 24Q369 3 328 -3T250 -10Q134 -10 82 58T48 242L57 294Q75 396 138 456T294 517Q343 517 385 500T455 446T482 346Q482 281 443 218H154Q147 157 173 126T265 94Q287 94 324 100T408 122L424 24ZM290
417Q196 417 170 306H365Q372 327 372 346Q372 381 350 399T290 417Z" />
<glyph unicode="f" glyph-name="f" horiz-adv-x="373" d="M399 407H241L169 0H54L126 407H44L61 507H144L153 560Q169 649 217 699T363 750Q400 750 432 743T490 724L448 626Q403 642 366 642Q326 642 301 625T268 560L258 507H416L399 407Z" />
<glyph unicode="g" glyph-name="g" d="M441 0Q430 -64 407 -114T337 -194T207 -223Q128 -223 36 -193L61 -95Q104 -110 141 -115T201 -121Q247 -121 272 -106T308 -63T326 0L338 69Q288 23 248 7T177 -10Q128 -10 96 21T52 108T51 236L58 280Q76 396 135 456T299
517Q358 517 414 500T519 452L441 0ZM169 236Q158 164 171 131T219 97Q245 97 280 118T359 193L394 393Q351 414 309 414Q251 414 219 378T176 280L169 236Z" />
<glyph unicode="h" glyph-name="h" horiz-adv-x="584" d="M361 410Q337 410 300 392T204 314L149 0H34L164 740H279L224 428Q279 481 322 499T400 517Q451 517 481 493T523 425T524 328L466 0H351L408 326Q424 410 361 410Z" />
<glyph unicode="i" glyph-name="i" horiz-adv-x="273" d="M258 603H137L158 722H279L258 603ZM149 0H34L123 507H238L149 0Z" />
<glyph unicode="j" glyph-name="j" horiz-adv-x="273" d="M258 603H137L158 722H279L258 603ZM-109 -223L-90 -115Q-40 -115 -9 -91T33 -4L123 507H238L148 -4Q136 -71 112 -120T36 -196T-109 -223Z" />
<glyph unicode="k" glyph-name="k" horiz-adv-x="532" d="M342 0L251 214Q233 198 215 183T176 153L149 0H34L164 740H279L199 285Q264 341 313 393T408 507H545Q502 447 453 393T347 283L476 0H342Z" />
<glyph unicode="l" glyph-name="l" horiz-adv-x="276" d="M57 148L161 740H276L171 143Q169 128 175 115T205 101H217L198 -5H179Q121 -5 93 17T58 75T57 148Z" />
<glyph unicode="m" glyph-name="m" horiz-adv-x="881" d="M356 410Q333 410 298 392T205 315L149 0H34L123 507H232L217 421Q273 478 316 497T395 517Q446 517 476 490T515 417Q574 477 619 497T702 517Q751 517 780 493T820 425T821 328L763 0H648L705 326Q713
369 701 389T663 410Q640 410 605 392T512 315L456 0H341L398 326Q406 369 394 389T356 410Z" />
<glyph unicode="n" glyph-name="n" horiz-adv-x="584" d="M361 410Q337 410 300 392T204 314L149 0H34L123 507H232L217 421Q274 479 318 498T400 517Q451 517 481 493T523 425T524 328L466 0H351L408 326Q424 410 361 410Z" />
<glyph unicode="o" glyph-name="o" horiz-adv-x="545" d="M496 266L488 214Q472 106 409 48T247 -10Q176 -10 128 22T59 112T49 242L57 294Q74 401 136 459T297 517Q369 517 417 485T486 396T496 266ZM379 271Q390 336 368 375T293 414Q250 414 218 385T175 294L166
237Q156 172 179 133T252 93Q296 93 328 123T370 214L379 271Z" />
<glyph unicode="p" glyph-name="p" horiz-adv-x="564" d="M264 -10Q233 -10 205 -4T151 14L111 -213H-4L123 507H232L217 422Q272 481 313 499T386 517Q436 517 468 486T512 399T512 271L505 227Q487 112 428 51T264 -10ZM344 410Q318 410 284 385T201 300L169
115Q214 93 254 93Q313 93 345 129T387 227L394 271Q406 343 393 376T344 410Z" />
<glyph unicode="q" glyph-name="q" d="M519 449L402 -213H287L338 76Q286 24 247 7T177 -10Q128 -10 96 21T51 108T51 236L58 280Q76 396 135 456T299 517Q361 517 415 498T519 449ZM169 236Q157 164 171 131T219 97Q245 97 279 121T360 205L393 392Q370 404 350
409T309 414Q251 414 219 378T176 280L169 236Z" />
<glyph unicode="r" glyph-name="r" horiz-adv-x="387" d="M391 402Q368 402 340 397T278 374T205 317L149 0H34L123 507H232L217 420Q276 479 324 498T411 517L391 402Z" />
<glyph unicode="s" glyph-name="s" horiz-adv-x="461" d="M201 91Q242 91 264 103T287 141Q287 161 274 174T228 197L173 216Q118 236 92 272T65 360Q65 428 112 472T257 517Q299 517 339 508T422 481L385 383Q348 400 316 408T254 416Q210 416 195 402T180 369Q180
350 193 339T231 318L286 299Q345 279 373 243T401 153Q401 83 352 37T195 -10Q149 -10 105 -1T14 30L50 128Q93 109 129 100T201 91Z" />
<glyph unicode="t" glyph-name="t" horiz-adv-x="400" d="M344 11Q316 0 282 -5T222 -10Q159 -10 126 15T83 81T81 169L123 407H41L58 507H141L164 639H279L256 507H413L396 407H238L196 169Q189 129 202 114T248 98Q263 98 283 101T327 112L344 11Z" />
<glyph unicode="u" glyph-name="u" horiz-adv-x="570" d="M337 0L352 86Q297 29 254 10T176 -10Q128 -10 99 15T59 82T59 179L117 507H232L175 181Q168 138 179 118T215 97Q238 97 272 116T365 193L420 507H535L446 0H337Z" />
<glyph unicode="v" glyph-name="v" horiz-adv-x="499" d="M526 507L257 0H152L61 507H171L214 254L229 142L283 254L410 507H526Z" />
<glyph unicode="w" glyph-name="w" horiz-adv-x="737" d="M754 507L535 0H410L394 381L237 0H112L71 507H183L197 306L198 115L355 507H471L491 126L554 305L637 507H754Z" />
<glyph unicode="x" glyph-name="x" horiz-adv-x="484" d="M303 0L229 167L100 0H-26L184 262L74 507H191L259 354L377 507H503L304 259L420 0H303Z" />
<glyph unicode="y" glyph-name="y" horiz-adv-x="499" d="M230 -50Q181 -142 123 -182T-24 -223L-4 -108Q35 -105 59 -98T100 -73T135 -25L151 5L61 507H175L218 254L233 149L284 254L411 507H526L257 0L230 -50Z" />
<glyph unicode="z" glyph-name="z" horiz-adv-x="432" d="M370 100L352 0H-10L6 90L271 407H72L89 507H431L416 417L151 100H370Z" />
<glyph unicode="{" glyph-name="braceleft" horiz-adv-x="381" d="M327 -44L310 -144H229Q160 -144 121 -117T74 -43T89 61L124 147Q142 192 135 220T72 248H19L36 348H89Q145 348 162 376T177 449L172 535Q167 629 214 684T361 740H465L448 640H359Q322 640 305
616T290 554L295 468Q299 397 272 353T192 293Q239 279 251 238T235 128L199 42Q184 5 192 -19T238 -44H327Z" />
<glyph unicode="|" glyph-name="bar" horiz-adv-x="303" d="M179 740H294L126 -213H11L179 740Z" />
<glyph unicode="}" glyph-name="braceright" horiz-adv-x="381" d="M224 61Q229 -33 183 -88T35 -144H-69L-52 -44H37Q74 -44 91 -20T106 42L101 128Q97 199 124 243T204 303Q157 317 145 358T161 468L197 554Q212 592 204 616T158 640H69L86 740H167Q237 740
275 713T322 639T307 535L272 449Q254 404 261 376T324 348H377L360 248H307Q251 248 234 220T219 147L224 61Z" />
<glyph unicode="~" glyph-name="asciitilde" horiz-adv-x="588" d="M384 210Q348 210 324 226T282 263T250 300T221 316Q216 316 207 311T187 285T161 220L74 240Q96 315 121 352T172 403T223 416Q258 416 282 400T324 363T356 326T385 310Q391 310 400 315T421
342T448 407L534 387Q513 312 488 274T436 223T384 210Z" />
<glyph unicode="&#xa0;" glyph-name="uni00A0" horiz-adv-x="200" />
<glyph unicode="&#xa1;" glyph-name="exclamdown" horiz-adv-x="281" d="M124 507H245L224 388H103L124 507ZM104 308H194L160 47L121 -173H6L45 47L104 308Z" />
<glyph unicode="&#xa2;" glyph-name="cent" horiz-adv-x="450" d="M383 21Q316 -4 268 -8L248 -125H138L160 1Q92 24 63 87T50 242L59 294Q76 392 126 447T251 514L271 632H381L360 510Q399 501 441 483L403 384Q340 411 293 411Q247 411 215 382T172 294L161
234Q136 96 251 96Q275 96 301 101T366 120L383 21Z" />
<glyph unicode="&#xa3;" glyph-name="sterling" horiz-adv-x="487" d="M436 115L416 0H16L35 105Q86 142 111 171T145 225T154 272H56L74 372H134Q126 398 119 426T111 490Q111 541 131 587T200 661T331 690Q373 690 416 681T513 648L468 542Q424 562 392 569T333
577Q285 577 259 554T233 483Q233 455 241 428T257 372H413L395 272H272Q268 234 246 195T178 115H436Z" />
<glyph unicode="&#xa4;" glyph-name="currency" horiz-adv-x="558" d="M272 103Q207 103 160 136L31 25L-18 87L109 198Q92 235 92 282Q92 320 103 353T135 415L57 513L121 569L199 471Q222 483 248 490T303 497Q368 497 414 464L542 576L591 513L465 403Q483
366 483 318Q483 280 472 246T439 184L516 87L453 32L375 129Q329 103 272 103ZM300 407Q251 407 219 372T187 286Q187 242 211 218T275 193Q325 193 356 228T388 314Q388 358 364 382T300 407Z" />
<glyph unicode="&#xa5;" glyph-name="yen" horiz-adv-x="566" d="M490 149H325L299 0H179L205 149H40L56 236H221L227 271L213 312H69L84 399H184L89 680H213L306 391L496 680H627L434 399H534L519 312H374L348 274L341 236H506L490 149Z" />
<glyph unicode="&#xa6;" glyph-name="brokenbar" horiz-adv-x="281" d="M168 740H283L216 357H101L168 740ZM68 170H183L115 -213H0L68 170Z" />
<glyph unicode="&#xa7;" glyph-name="section" horiz-adv-x="516" d="M400 -22Q400 -76 376 -121T298 -195T157 -223Q105 -223 58 -211T-45 -172L1 -69Q51 -91 85 -101T161 -112Q220 -112 247 -90T274 -32Q274 -9 262 7T221 36L148 69Q89 96 58 134T27 225Q27
272 56 314T140 383Q102 426 102 494Q102 549 126 593T202 664T335 690Q381 690 424 679T516 646L470 543Q427 561 396 570T331 579Q228 579 228 505Q228 483 240 469T284 440L357 407Q410 383 440 348T471 253Q471 212 444 170T357 100Q400 55 400 -22ZM222 175L275
151Q311 167 328 189T345 233Q345 256 330 271T283 301L215 332Q184 316 169 292T153 244Q153 219 169 206T222 175Z" />
<glyph unicode="&#xa8;" glyph-name="dieresis" horiz-adv-x="500" d="M270 609H161L180 716H289L270 609ZM464 609H355L374 716H483L464 609Z" />
<glyph unicode="&#xa9;" glyph-name="copyright" horiz-adv-x="834" d="M432 -37Q351 -37 283 -9T165 70T88 189T60 340Q60 422 87 490T165 610T283 689T432 717Q512 717 580 689T698 610T776 491T804 340Q804 258 776 190T698 70T580 -9T432 -37ZM432 33Q518
33 584 72T689 181T728 340Q728 429 690 498T585 607T432 647Q347 647 280 608T175 499T136 340Q136 250 174 181T280 73T432 33ZM348 361V320Q348 265 368 237T433 208Q459 208 486 216T541 237L570 158Q502 123 428 123Q343 123 299 175T255 320V361Q255 453
299 505T428 557Q460 557 495 550T561 525L532 446Q507 458 482 465T433 472Q388 472 368 444T348 361Z" />
<glyph unicode="&#xaa;" glyph-name="ordfeminine" horiz-adv-x="353" d="M343 340Q307 340 288 356T262 395Q226 360 199 348T149 335Q101 335 78 380T67 498L72 527Q86 604 125 644T238 685Q273 685 308 674T373 642L338 445Q336 431 340 424T361 417H369L355
340H343ZM148 498Q141 454 149 433T179 412Q195 412 216 424T264 469L286 598Q261 610 236 610Q199 610 180 588T153 527L148 498Z" />
<glyph unicode="&#xab;" glyph-name="guillemotleft" horiz-adv-x="712" d="M316 126L295 14L34 209L47 286L377 478L356 354L152 241L316 126ZM636 126L615 14L354 209L367 286L697 478L676 354L472 241L636 126Z" />
<glyph unicode="&#xac;" glyph-name="logicalnot" horiz-adv-x="588" d="M108 375L126 475H540L494 218H392L420 375H108Z" />
<glyph unicode="&#xad;" glyph-name="uni00AD" horiz-adv-x="0" />
<glyph unicode="&#xae;" glyph-name="registered" horiz-adv-x="537" d="M308 241Q241 241 188 272T105 357T74 479Q74 548 104 601T188 686T308 717Q375 717 428 686T511 602T542 479Q542 411 512 357T428 272T308 241ZM308 299Q358 299 396 322T457 387T480
479Q480 531 458 571T397 635T308 659Q259 659 220 636T159 572T136 479Q136 428 158 387T220 323T308 299ZM219 353V608H314Q355 608 376 586T398 526V517Q398 469 364 447Q392 403 413 353H346Q337 374 327 394T306 434H280V353H219ZM314 550H280V493H314Q335
493 335 517V526Q335 550 314 550Z" />
<glyph unicode="&#xaf;" glyph-name="overscore" horiz-adv-x="500" d="M479 692L464 609H161L176 692H479Z" />
<glyph unicode="&#xb0;" glyph-name="degree" horiz-adv-x="355" d="M210 366Q144 366 105 405T65 510Q65 560 88 601T150 666T241 690Q307 690 346 651T386 546Q386 496 363 455T301 390T210 366ZM238 613Q198 613 173 585T147 514Q147 480 164 462T213 443Q253
443 278 471T304 542Q304 576 287 594T238 613Z" />
<glyph unicode="&#xb1;" glyph-name="plusminus" horiz-adv-x="588" d="M508 295H352L326 145H224L250 295H94L112 395H268L294 545H396L370 395H526L508 295ZM42 0L60 100H474L456 0H42Z" />
<glyph unicode="&#xb2;" glyph-name="uni00B2" horiz-adv-x="269" d="M288 518L275 445H54L66 513Q76 568 99 592T162 633L199 648Q220 656 229 665T239 685L240 688Q245 715 202 715Q184 715 164 710T117 696L104 767Q135 780 161 785T211 790Q257 790 281 776T314
740T319 691L318 682Q314 650 292 626T225 583L188 568Q167 560 158 548T146 518H288Z" />
<glyph unicode="&#xb3;" glyph-name="uni00B3" horiz-adv-x="275" d="M291 530Q284 490 255 465T160 440Q135 440 109 445T60 461L83 531Q104 523 123 520T160 516Q209 516 215 545L216 552Q218 566 209 575T179 585H128L139 649H190Q230 649 235 679L236 686Q242
715 196 715Q181 715 163 712T120 700L103 770Q133 781 157 785T204 790Q272 790 297 761T317 694L316 687Q313 661 297 643T257 615Q277 604 287 586T293 542L291 530Z" />
<glyph unicode="&#xb4;" glyph-name="acute" horiz-adv-x="500" d="M360 579H254L379 745L484 699L360 579Z" />
<glyph unicode="&#xb5;" glyph-name="uni00B5" horiz-adv-x="574" d="M127 -125L111 -213H-4L124 507H239L182 181Q175 138 186 118T222 97Q245 97 279 116T371 192L426 507H541L477 143Q474 128 481 115T511 101H523L504 -5H485Q422 -5 396 24T367 94Q309 32
266 11T189 -10Q148 -10 127 11V-125Z" />
<glyph unicode="&#xb6;" glyph-name="paragraph" horiz-adv-x="572" d="M79 496Q93 580 150 630T313 680H635L619 593H535L405 -143H285L415 593H352L288 230H260Q154 230 105 288T70 440L79 496Z" />
<glyph unicode="&#xb7;" glyph-name="middot" horiz-adv-x="500" d="M323 325H202L223 444H344L323 325Z" />
<glyph unicode="&#xb8;" glyph-name="cedilla" horiz-adv-x="500" d="M299 -117Q299 -160 264 -191T164 -223Q141 -223 122 -219T79 -208L96 -139Q137 -150 165 -150Q191 -150 200 -141T210 -123Q210 -115 203 -109T175 -102Q168 -102 162 -102T147 -105L128 -73L153
0H230L216 -39Q256 -42 277 -64T299 -117Z" />
<glyph unicode="&#xb9;" glyph-name="uni00B9" horiz-adv-x="220" d="M101 737L206 785H266L206 445H127L171 694L124 673L101 737Z" />
<glyph unicode="&#xba;" glyph-name="ordmasculine" horiz-adv-x="346" d="M370 518L365 484Q354 412 311 374T202 335Q128 335 92 382T66 502L71 536Q82 607 125 646T235 685Q307 685 344 638T370 518ZM290 521Q296 562 282 586T232 610Q202 610 180 592T152
536L146 499Q139 458 155 434T205 410Q234 410 256 428T284 484L290 521Z" />
<glyph unicode="&#xbb;" glyph-name="guillemotright" horiz-adv-x="713" d="M342 206L12 14L33 138L237 251L73 366L94 478L355 283L342 206ZM662 206L332 14L353 138L557 251L393 366L414 478L675 283L662 206Z" />
<glyph unicode="&#xbc;" glyph-name="onequarter" horiz-adv-x="631" d="M83 632L188 680H248L188 340H109L153 589L106 568L83 632ZM496 680H590L145 0H51L496 680ZM588 67H554L542 0H469L481 67H338L349 131Q392 183 429 235T495 340H580Q524 236 438 136H493L501
182H574L566 136H600L588 67Z" />
<glyph unicode="&#xbd;" glyph-name="onehalf" horiz-adv-x="670" d="M83 632L188 680H248L188 340H109L153 589L106 568L83 632ZM496 680H590L145 0H51L496 680ZM612 73L599 0H378L390 68Q400 123 423 147T486 188L523 203Q544 211 553 220T563 240L564 243Q569
270 526 270Q508 270 488 265T441 251L428 322Q459 335 485 340T535 345Q581 345 605 331T638 295T643 246L642 237Q638 205 616 181T549 138L512 123Q491 115 482 103T470 73H612Z" />
<glyph unicode="&#xbe;" glyph-name="threequarters" horiz-adv-x="671" d="M273 425Q266 385 237 360T142 335Q117 335 91 340T42 356L65 426Q86 418 105 415T142 411Q191 411 197 440L198 447Q200 461 191 470T161 480H110L121 544H172Q212 544 217 574L218
581Q224 610 178 610Q163 610 145 607T102 595L85 665Q115 676 139 680T186 685Q254 685 279 656T299 589L298 582Q295 556 279 538T239 510Q259 499 269 481T275 437L273 425ZM536 680H630L185 0H91L536 680ZM628 67H594L582 0H509L521 67H378L389 131Q432 183
469 235T535 340H620Q564 236 478 136H533L541 182H614L606 136H640L628 67Z" />
<glyph unicode="&#xbf;" glyph-name="questiondown" horiz-adv-x="464" d="M240 507H361L340 388H219L240 507ZM205 -76Q238 -76 277 -67T369 -38L398 -137Q339 -162 289 -172T192 -183Q113 -183 67 -156T6 -84T1 15L5 35Q14 81 37 111T102 177L140 210Q165 232
178 246T196 273T204 299L206 308H326L323 290Q319 264 310 243T281 198T225 143L186 109Q154 81 140 63T120 21L117 3Q111 -31 130 -53T205 -76Z" />
<glyph unicode="&#xc0;" glyph-name="Agrave" horiz-adv-x="601" d="M416 0L397 133H164L99 0H-25L322 680H428L536 0H416ZM266 341L218 243H382L368 341L348 513L266 341ZM337 752L255 872L366 918L433 752H337Z" />
<glyph unicode="&#xc1;" glyph-name="Aacute" horiz-adv-x="601" d="M416 0L397 133H164L99 0H-25L322 680H428L536 0H416ZM266 341L218 243H382L368 341L348 513L266 341ZM439 752H333L458 918L563 872L439 752Z" />
<glyph unicode="&#xc2;" glyph-name="Acircumflex" horiz-adv-x="601" d="M416 0L397 133H164L99 0H-25L322 680H428L536 0H416ZM266 341L218 243H382L368 341L348 513L266 341ZM449 752L402 832L327 752H233L357 913H469L537 752H449Z" />
<glyph unicode="&#xc3;" glyph-name="Atilde" horiz-adv-x="601" d="M416 0L397 133H164L99 0H-25L322 680H428L536 0H416ZM266 341L218 243H382L368 341L348 513L266 341ZM457 761Q429 761 412 771T385 796T366 820T348 831Q340 831 333 819T318 769H237Q248
832 265 865T304 911T349 923Q376 923 393 913T420 888T438 864T456 853Q464 853 471 865T486 915H567Q557 852 540 819T501 773T457 761Z" />
<glyph unicode="&#xc4;" glyph-name="Adieresis" horiz-adv-x="601" d="M416 0L397 133H164L99 0H-25L322 680H428L536 0H416ZM266 341L218 243H382L368 341L348 513L266 341ZM348 782H239L258 889H367L348 782ZM542 782H433L452 889H561L542 782Z" />
<glyph unicode="&#xc5;" glyph-name="Aring" horiz-adv-x="601" d="M164 133L99 0H-25L298 633Q276 649 267 674T264 733L267 748Q277 795 311 824T397 853Q453 853 483 819T503 732L500 717Q494 688 478 665T436 629L536 0H416L397 133H164ZM434 741Q439 762
427 774T392 787Q370 787 356 775T336 741L333 726Q329 705 340 693T373 680Q396 680 411 692T431 726L434 741ZM266 341L218 243H382L368 341L348 513L266 341Z" />
<glyph unicode="&#xc6;" glyph-name="AE" horiz-adv-x="843" d="M-44 0L406 680H860L840 565H576L547 402H781L761 287H527L496 115H770L750 0H356L379 133H178L92 0H-44ZM250 243H399L454 558L250 243Z" />
<glyph unicode="&#xc7;" glyph-name="Ccedilla" horiz-adv-x="538" d="M346 -117Q346 -160 311 -191T211 -223Q188 -223 169 -219T126 -208L143 -139Q184 -150 212 -150Q238 -150 247 -141T257 -123Q257 -115 250 -109T222 -102Q215 -102 209 -102T194 -105L175
-73L201 3Q122 30 88 105T69 280L89 402Q112 545 183 617T380 690Q421 690 462 681T552 648L507 542Q464 561 434 569T372 577Q302 577 264 528T212 402L192 280Q179 204 203 154T298 103Q323 103 357 108T442 128L467 23Q412 4 366 -3T286 -10H274L263 -39Q303
-42 324 -64T346 -117Z" />
<glyph unicode="&#xc8;" glyph-name="Egrave" horiz-adv-x="536" d="M463 115L443 0H49L169 680H553L533 565H269L240 402H474L454 287H220L189 115H463ZM322 752L240 872L351 918L418 752H322Z" />
<glyph unicode="&#xc9;" glyph-name="Eacute" horiz-adv-x="536" d="M463 115L443 0H49L169 680H553L533 565H269L240 402H474L454 287H220L189 115H463ZM424 752H318L443 918L548 872L424 752Z" />
<glyph unicode="&#xca;" glyph-name="Ecircumflex" horiz-adv-x="536" d="M463 115L443 0H49L169 680H553L533 565H269L240 402H474L454 287H220L189 115H463ZM434 752L387 832L312 752H218L342 913H454L522 752H434Z" />
<glyph unicode="&#xcb;" glyph-name="Edieresis" horiz-adv-x="536" d="M463 115L443 0H49L169 680H553L533 565H269L240 402H474L454 287H220L189 115H463ZM334 782H225L244 889H353L334 782ZM528 782H419L438 889H547L528 782Z" />
<glyph unicode="&#xcc;" glyph-name="Igrave" horiz-adv-x="308" d="M169 0H49L169 680H289L169 0ZM190 752L108 872L219 918L286 752H190Z" />
<glyph unicode="&#xcd;" glyph-name="Iacute" horiz-adv-x="308" d="M169 0H49L169 680H289L169 0ZM292 752H186L311 918L416 872L292 752Z" />
<glyph unicode="&#xce;" glyph-name="Icircumflex" horiz-adv-x="308" d="M169 0H49L169 680H289L169 0ZM302 752L255 832L180 752H86L210 913H322L390 752H302Z" />
<glyph unicode="&#xcf;" glyph-name="Idieresis" horiz-adv-x="308" d="M169 0H49L169 680H289L169 0ZM202 782H93L112 889H221L202 782ZM396 782H287L306 889H415L396 782Z" />
<glyph unicode="&#xd0;" glyph-name="Eth" horiz-adv-x="648" d="M46 399H128L178 680H388Q469 680 523 644T600 545T609 402L587 279Q564 147 493 74T299 0H58L109 290H27L46 399ZM349 290H229L198 115H305Q373 115 411 157T464 279L486 402Q500 476 475 520T380
565H278L248 399H368L349 290Z" />
<glyph unicode="&#xd1;" glyph-name="Ntilde" horiz-adv-x="683" d="M49 0L169 680H279Q322 593 356 518T419 368T477 209L503 420L549 680H664L544 0H434Q391 140 345 261T244 501L210 260L164 0H49ZM498 761Q470 761 453 771T426 796T407 820T389 831Q381 831
374 819T359 769H278Q289 832 306 865T345 911T390 923Q417 923 434 913T461 888T479 864T497 853Q505 853 512 865T527 915H608Q598 852 581 819T542 773T498 761Z" />
<glyph unicode="&#xd2;" glyph-name="Ograve" horiz-adv-x="640" d="M601 402L579 279Q554 143 484 67T291 -10Q210 -10 155 27T77 129T69 279L91 402Q115 536 185 613T380 690Q461 690 515 653T593 550T601 402ZM478 402Q492 481 467 529T372 577Q306 577 267
530T214 402L192 279Q178 197 203 150T297 103Q365 103 403 149T456 279L478 402ZM356 752L274 872L385 918L452 752H356Z" />
<glyph unicode="&#xd3;" glyph-name="Oacute" horiz-adv-x="640" d="M601 402L579 279Q554 143 484 67T291 -10Q210 -10 155 27T77 129T69 279L91 402Q115 536 185 613T380 690Q461 690 515 653T593 550T601 402ZM478 402Q492 481 467 529T372 577Q306 577 267
530T214 402L192 279Q178 197 203 150T297 103Q365 103 403 149T456 279L478 402ZM458 752H352L477 918L582 872L458 752Z" />
<glyph unicode="&#xd4;" glyph-name="Ocircumflex" horiz-adv-x="640" d="M601 402L579 279Q554 143 484 67T291 -10Q210 -10 155 27T77 129T69 279L91 402Q115 536 185 613T380 690Q461 690 515 653T593 550T601 402ZM478 402Q492 481 467 529T372 577Q306 577
267 530T214 402L192 279Q178 197 203 150T297 103Q365 103 403 149T456 279L478 402ZM468 752L421 832L346 752H252L376 913H488L556 752H468Z" />
<glyph unicode="&#xd5;" glyph-name="Otilde" horiz-adv-x="640" d="M601 402L579 279Q554 143 484 67T291 -10Q210 -10 155 27T77 129T69 279L91 402Q115 536 185 613T380 690Q461 690 515 653T593 550T601 402ZM478 402Q492 481 467 529T372 577Q306 577 267
530T214 402L192 279Q178 197 203 150T297 103Q365 103 403 149T456 279L478 402ZM476 761Q448 761 431 771T404 796T385 820T367 831Q359 831 352 819T337 769H256Q267 832 284 865T323 911T368 923Q395 923 412 913T439 888T457 864T475 853Q483 853 490 865T505
915H586Q576 852 559 819T520 773T476 761Z" />
<glyph unicode="&#xd6;" glyph-name="Odieresis" horiz-adv-x="640" d="M601 402L579 279Q554 143 484 67T291 -10Q210 -10 155 27T77 129T69 279L91 402Q115 536 185 613T380 690Q461 690 515 653T593 550T601 402ZM478 402Q492 481 467 529T372 577Q306 577
267 530T214 402L192 279Q178 197 203 150T297 103Q365 103 403 149T456 279L478 402ZM368 782H259L278 889H387L368 782ZM562 782H453L472 889H581L562 782Z" />
<glyph unicode="&#xd7;" glyph-name="multiply" horiz-adv-x="588" d="M412 110L297 244L132 101L70 176L234 319L119 454L198 521L312 386L477 530L539 454L375 312L490 176L412 110Z" />
<glyph unicode="&#xd8;" glyph-name="Oslash" horiz-adv-x="641" d="M291 -10Q215 -10 162 22L125 -30H16L98 85Q74 123 67 172T69 279L91 402Q115 536 185 613T380 690Q418 690 450 682T509 657L547 710H656L572 593Q596 556 604 507T601 402L579 279Q554 143
484 67T291 -10ZM192 279Q188 260 187 242T187 209L439 559Q414 577 372 577Q306 577 267 530T214 402L192 279ZM478 402Q481 420 482 437T483 469L232 119Q259 103 297 103Q365 103 403 149T456 279L478 402Z" />
<glyph unicode="&#xd9;" glyph-name="Ugrave" horiz-adv-x="646" d="M153 680H276L199 244Q188 179 210 141T296 103Q360 103 396 140T443 244L520 680H643L566 244Q553 169 522 112T435 22T292 -10Q211 -10 159 22T85 112T76 244L153 680ZM359 752L277 872L388
918L455 752H359Z" />
<glyph unicode="&#xda;" glyph-name="Uacute" horiz-adv-x="646" d="M153 680H276L199 244Q188 179 210 141T296 103Q360 103 396 140T443 244L520 680H643L566 244Q553 169 522 112T435 22T292 -10Q211 -10 159 22T85 112T76 244L153 680ZM461 752H355L480 918L585
872L461 752Z" />
<glyph unicode="&#xdb;" glyph-name="Ucircumflex" horiz-adv-x="646" d="M153 680H276L199 244Q188 179 210 141T296 103Q360 103 396 140T443 244L520 680H643L566 244Q553 169 522 112T435 22T292 -10Q211 -10 159 22T85 112T76 244L153 680ZM471 752L424 832L349
752H255L379 913H491L559 752H471Z" />
<glyph unicode="&#xdc;" glyph-name="Udieresis" horiz-adv-x="646" d="M153 680H276L199 244Q188 179 210 141T296 103Q360 103 396 140T443 244L520 680H643L566 244Q553 169 522 112T435 22T292 -10Q211 -10 159 22T85 112T76 244L153 680ZM371 782H262L281
889H390L371 782ZM565 782H456L475 889H584L565 782Z" />
<glyph unicode="&#xdd;" glyph-name="Yacute" horiz-adv-x="544" d="M616 680L337 274L288 0H168L216 271L78 680H202L295 391L485 680H616ZM410 752H304L429 918L534 872L410 752Z" />
<glyph unicode="&#xde;" glyph-name="Thorn" horiz-adv-x="575" d="M307 118H190L169 0H49L169 680H289L269 568H360Q467 568 516 511T550 358L541 302Q528 218 471 168T307 118ZM353 453H249L210 233H314Q358 233 385 252T419 307L428 360Q436 404 417 428T353 453Z" />
<glyph unicode="&#xdf;" glyph-name="germandbls" horiz-adv-x="634" d="M588 161Q588 117 569 78T507 14T397 -10Q369 -10 330 -4T251 22L281 120Q318 102 348 96T398 89Q436 89 454 108T473 150Q473 164 466 181T438 216L404 248Q375 276 359 304T342 367Q342
402 356 432T389 490T422 543T436 592Q436 619 416 630T364 642Q326 642 301 625T268 560L169 0H54L126 407H44L61 507H144L153 560Q169 649 219 699T369 750Q418 750 459 736T526 689T552 606Q552 567 538 536T505 478T472 430T458 389Q458 373 467 358T499 321L533
288Q588 234 588 161Z" />
<glyph unicode="&#xe0;" glyph-name="agrave" horiz-adv-x="558" d="M465 -5Q410 -5 384 18T349 76Q295 24 252 7T176 -10Q127 -10 95 21T52 108T51 236L58 280Q77 396 134 456T295 517Q353 517 408 500T511 452L457 143Q455 128 461 115T491 101H503L484 -5H465ZM169
236Q158 164 171 131T215 97Q241 97 274 117T351 192L386 394Q345 414 305 414Q249 414 218 378T176 280L169 236ZM283 579L201 699L312 745L379 579H283Z" />
<glyph unicode="&#xe1;" glyph-name="aacute" horiz-adv-x="558" d="M465 -5Q410 -5 384 18T349 76Q295 24 252 7T176 -10Q127 -10 95 21T52 108T51 236L58 280Q77 396 134 456T295 517Q353 517 408 500T511 452L457 143Q455 128 461 115T491 101H503L484 -5H465ZM169
236Q158 164 171 131T215 97Q241 97 274 117T351 192L386 394Q345 414 305 414Q249 414 218 378T176 280L169 236ZM385 579H279L404 745L509 699L385 579Z" />
<glyph unicode="&#xe2;" glyph-name="acircumflex" horiz-adv-x="558" d="M465 -5Q410 -5 384 18T349 76Q295 24 252 7T176 -10Q127 -10 95 21T52 108T51 236L58 280Q77 396 134 456T295 517Q353 517 408 500T511 452L457 143Q455 128 461 115T491 101H503L484
-5H465ZM169 236Q158 164 171 131T215 97Q241 97 274 117T351 192L386 394Q345 414 305 414Q249 414 218 378T176 280L169 236ZM395 579L348 659L273 579H179L303 740H415L483 579H395Z" />
<glyph unicode="&#xe3;" glyph-name="atilde" horiz-adv-x="558" d="M465 -5Q410 -5 384 18T349 76Q295 24 252 7T176 -10Q127 -10 95 21T52 108T51 236L58 280Q77 396 134 456T295 517Q353 517 408 500T511 452L457 143Q455 128 461 115T491 101H503L484 -5H465ZM169
236Q158 164 171 131T215 97Q241 97 274 117T351 192L386 394Q345 414 305 414Q249 414 218 378T176 280L169 236ZM403 588Q375 588 358 598T331 623T312 647T294 658Q286 658 279 646T264 596H183Q194 659 211 692T250 738T295 750Q322 750 339 740T366 715T384
691T402 680Q410 680 417 692T432 742H513Q503 679 486 646T447 600T403 588Z" />
<glyph unicode="&#xe4;" glyph-name="adieresis" horiz-adv-x="558" d="M465 -5Q410 -5 384 18T349 76Q295 24 252 7T176 -10Q127 -10 95 21T52 108T51 236L58 280Q77 396 134 456T295 517Q353 517 408 500T511 452L457 143Q455 128 461 115T491 101H503L484 -5H465ZM169
236Q158 164 171 131T215 97Q241 97 274 117T351 192L386 394Q345 414 305 414Q249 414 218 378T176 280L169 236ZM294 609H185L204 716H313L294 609ZM488 609H379L398 716H507L488 609Z" />
<glyph unicode="&#xe5;" glyph-name="aring" horiz-adv-x="558" d="M465 -5Q410 -5 384 18T349 76Q295 24 252 7T176 -10Q127 -10 95 21T52 108T51 236L58 280Q77 396 134 456T295 517Q353 517 408 500T511 452L457 143Q455 128 461 115T491 101H503L484 -5H465ZM169
236Q158 164 171 131T215 97Q241 97 274 117T351 192L386 394Q345 414 305 414Q249 414 218 378T176 280L169 236ZM471 682L468 667Q459 621 425 592T337 563Q282 563 252 596T232 683L235 698Q245 745 279 774T365 803Q421 803 451 769T471 682ZM402 691Q407 712
395 724T360 737Q338 737 324 725T304 691L301 676Q297 655 308 643T341 630Q364 630 379 642T399 676L402 691Z" />
<glyph unicode="&#xe6;" glyph-name="ae" horiz-adv-x="798" d="M700 24Q645 3 604 -3T530 -10Q458 -10 410 16T339 88Q290 36 245 13T149 -10Q85 -10 52 25T18 122Q18 163 34 201T90 265T203 290Q262 290 331 279L339 322Q348 371 321 391T249 411Q227 411 194
406T122 388L95 486Q146 503 186 510T258 517Q323 517 359 495T411 436Q440 475 482 496T576 517Q618 517 660 500T730 446T758 346Q758 281 719 218H430Q423 157 449 126T541 94Q563 94 600 100T684 122L700 24ZM566 417Q472 417 446 306H638Q645 327 645 346Q645
381 623 399T566 417ZM132 134Q132 86 175 86Q201 86 235 101T319 168V196Q288 201 258 203T206 206Q163 206 148 183T132 134Z" />
<glyph unicode="&#xe7;" glyph-name="ccedilla" horiz-adv-x="450" d="M306 -117Q306 -160 271 -191T171 -223Q148 -223 129 -219T86 -208L103 -139Q144 -150 172 -150Q198 -150 207 -141T217 -123Q217 -115 210 -109T182 -102Q175 -102 169 -102T154 -105L135
-73L160 1Q92 24 63 87T50 242L59 294Q79 405 140 461T292 517Q361 517 441 483L403 384Q340 411 293 411Q247 411 215 382T172 294L161 234Q136 96 251 96Q275 96 301 101T366 120L383 21Q337 4 303 -3T237 -10H233L223 -39Q263 -42 284 -64T306 -117Z" />
<glyph unicode="&#xe8;" glyph-name="egrave" horiz-adv-x="522" d="M424 24Q369 3 328 -3T250 -10Q134 -10 82 58T48 242L57 294Q75 396 138 456T294 517Q343 517 385 500T455 446T482 346Q482 281 443 218H154Q147 157 173 126T265 94Q287 94 324 100T408 122L424
24ZM290 417Q196 417 170 306H365Q372 327 372 346Q372 381 350 399T290 417ZM272 579L190 699L301 745L368 579H272Z" />
<glyph unicode="&#xe9;" glyph-name="eacute" horiz-adv-x="522" d="M424 24Q369 3 328 -3T250 -10Q134 -10 82 58T48 242L57 294Q75 396 138 456T294 517Q343 517 385 500T455 446T482 346Q482 281 443 218H154Q147 157 173 126T265 94Q287 94 324 100T408 122L424
24ZM290 417Q196 417 170 306H365Q372 327 372 346Q372 381 350 399T290 417ZM374 579H268L393 745L498 699L374 579Z" />
<glyph unicode="&#xea;" glyph-name="ecircumflex" horiz-adv-x="522" d="M424 24Q369 3 328 -3T250 -10Q134 -10 82 58T48 242L57 294Q75 396 138 456T294 517Q343 517 385 500T455 446T482 346Q482 281 443 218H154Q147 157 173 126T265 94Q287 94 324 100T408
122L424 24ZM290 417Q196 417 170 306H365Q372 327 372 346Q372 381 350 399T290 417ZM384 579L337 659L262 579H168L292 740H404L472 579H384Z" />
<glyph unicode="&#xeb;" glyph-name="edieresis" horiz-adv-x="522" d="M424 24Q369 3 328 -3T250 -10Q134 -10 82 58T48 242L57 294Q75 396 138 456T294 517Q343 517 385 500T455 446T482 346Q482 281 443 218H154Q147 157 173 126T265 94Q287 94 324 100T408
122L424 24ZM290 417Q196 417 170 306H365Q372 327 372 346Q372 381 350 399T290 417ZM283 609H174L193 716H302L283 609ZM477 609H368L387 716H496L477 609Z" />
<glyph unicode="&#xec;" glyph-name="igrave" horiz-adv-x="273" d="M149 0H34L123 507H238L149 0ZM401 579L319 699L430 745L497 579H401Z" />
<glyph unicode="&#xed;" glyph-name="iacute" horiz-adv-x="273" d="M149 0H34L123 507H238L149 0ZM503 579H397L522 745L627 699L503 579Z" />
<glyph unicode="&#xee;" glyph-name="icircumflex" horiz-adv-x="273" d="M149 0H34L123 507H238L149 0ZM513 579L466 659L391 579H297L421 740H533L601 579H513Z" />
<glyph unicode="&#xef;" glyph-name="idieresis" horiz-adv-x="273" d="M149 0H34L123 507H238L149 0ZM412 609H303L322 716H431L412 609ZM606 609H497L516 716H625L606 609Z" />
<glyph unicode="&#xf0;" glyph-name="eth" horiz-adv-x="536" d="M486 244Q464 118 395 54T222 -10Q161 -10 115 18T48 99T39 226L44 256Q54 317 83 356T153 416T240 436Q280 436 319 417T383 351Q385 403 373 451T331 543L177 458L194 559L278 605Q262 621 243
636T202 665L261 750Q294 728 322 705T373 657L542 750L525 649L424 594Q477 516 491 435T493 284L486 244ZM153 209Q145 159 166 126T233 93Q278 93 312 127T365 234Q346 283 315 306T250 329Q218 329 192 306T158 239L153 209Z" />
<glyph unicode="&#xf1;" glyph-name="ntilde" horiz-adv-x="584" d="M361 410Q337 410 300 392T204 314L149 0H34L123 507H232L217 421Q274 479 318 498T400 517Q451 517 481 493T523 425T524 328L466 0H351L408 326Q424 410 361 410ZM428 588Q400 588 383 598T356
623T337 647T319 658Q311 658 304 646T289 596H208Q219 659 236 692T275 738T320 750Q347 750 364 740T391 715T409 691T427 680Q435 680 442 692T457 742H538Q528 679 511 646T472 600T428 588Z" />
<glyph unicode="&#xf2;" glyph-name="ograve" horiz-adv-x="545" d="M496 266L488 214Q472 106 409 48T247 -10Q176 -10 128 22T59 112T49 242L57 294Q74 401 136 459T297 517Q369 517 417 485T486 396T496 266ZM379 271Q390 336 368 375T293 414Q250 414 218
385T175 294L166 237Q156 172 179 133T252 93Q296 93 328 123T370 214L379 271ZM272 579L190 699L301 745L368 579H272Z" />
<glyph unicode="&#xf3;" glyph-name="oacute" horiz-adv-x="545" d="M496 266L488 214Q472 106 409 48T247 -10Q176 -10 128 22T59 112T49 242L57 294Q74 401 136 459T297 517Q369 517 417 485T486 396T496 266ZM379 271Q390 336 368 375T293 414Q250 414 218
385T175 294L166 237Q156 172 179 133T252 93Q296 93 328 123T370 214L379 271ZM374 579H268L393 745L498 699L374 579Z" />
<glyph unicode="&#xf4;" glyph-name="ocircumflex" horiz-adv-x="545" d="M496 266L488 214Q472 106 409 48T247 -10Q176 -10 128 22T59 112T49 242L57 294Q74 401 136 459T297 517Q369 517 417 485T486 396T496 266ZM379 271Q390 336 368 375T293 414Q250 414
218 385T175 294L166 237Q156 172 179 133T252 93Q296 93 328 123T370 214L379 271ZM384 579L337 659L262 579H168L292 740H404L472 579H384Z" />
<glyph unicode="&#xf5;" glyph-name="otilde" horiz-adv-x="545" d="M496 266L488 214Q472 106 409 48T247 -10Q176 -10 128 22T59 112T49 242L57 294Q74 401 136 459T297 517Q369 517 417 485T486 396T496 266ZM379 271Q390 336 368 375T293 414Q250 414 218
385T175 294L166 237Q156 172 179 133T252 93Q296 93 328 123T370 214L379 271ZM392 588Q364 588 347 598T320 623T301 647T283 658Q275 658 268 646T253 596H172Q183 659 200 692T239 738T284 750Q311 750 328 740T355 715T373 691T391 680Q399 680 406 692T421
742H502Q492 679 475 646T436 600T392 588Z" />
<glyph unicode="&#xf6;" glyph-name="odieresis" horiz-adv-x="545" d="M496 266L488 214Q472 106 409 48T247 -10Q176 -10 128 22T59 112T49 242L57 294Q74 401 136 459T297 517Q369 517 417 485T486 396T496 266ZM379 271Q390 336 368 375T293 414Q250 414 218
385T175 294L166 237Q156 172 179 133T252 93Q296 93 328 123T370 214L379 271ZM284 609H175L194 716H303L284 609ZM478 609H369L388 716H497L478 609Z" />
<glyph unicode="&#xf7;" glyph-name="divide" horiz-adv-x="588" d="M389 447H268L289 566H410L389 447ZM89 265L106 365H520L503 265H89ZM320 59H199L220 178H341L320 59Z" />
<glyph unicode="&#xf8;" glyph-name="oslash" horiz-adv-x="545" d="M247 -10Q185 -10 139 16L104 -30H1L79 71Q34 139 49 242L57 294Q74 401 136 459T297 517Q360 517 406 491L442 537H545L466 436Q511 367 496 266L488 214Q472 106 409 48T247 -10ZM166 237Q164
221 164 207T164 179L338 404Q329 409 318 411T293 414Q250 414 218 385T175 294L166 237ZM379 271Q384 301 382 327L208 104Q227 93 252 93Q296 93 328 123T370 214L379 271Z" />
<glyph unicode="&#xf9;" glyph-name="ugrave" horiz-adv-x="570" d="M337 0L352 86Q297 29 254 10T176 -10Q128 -10 99 15T59 82T59 179L117 507H232L175 181Q168 138 179 118T215 97Q238 97 272 116T365 193L420 507H535L446 0H337ZM289 579L207 699L318 745L385
579H289Z" />
<glyph unicode="&#xfa;" glyph-name="uacute" horiz-adv-x="570" d="M337 0L352 86Q297 29 254 10T176 -10Q128 -10 99 15T59 82T59 179L117 507H232L175 181Q168 138 179 118T215 97Q238 97 272 116T365 193L420 507H535L446 0H337ZM391 579H285L410 745L515
699L391 579Z" />
<glyph unicode="&#xfb;" glyph-name="ucircumflex" horiz-adv-x="570" d="M337 0L352 86Q297 29 254 10T176 -10Q128 -10 99 15T59 82T59 179L117 507H232L175 181Q168 138 179 118T215 97Q238 97 272 116T365 193L420 507H535L446 0H337ZM401 579L354 659L279
579H185L309 740H421L489 579H401Z" />
<glyph unicode="&#xfc;" glyph-name="udieresis" horiz-adv-x="570" d="M337 0L352 86Q297 29 254 10T176 -10Q128 -10 99 15T59 82T59 179L117 507H232L175 181Q168 138 179 118T215 97Q238 97 272 116T365 193L420 507H535L446 0H337ZM300 609H191L210 716H319L300
609ZM494 609H385L404 716H513L494 609Z" />
<glyph unicode="&#xfd;" glyph-name="yacute" horiz-adv-x="499" d="M230 -50Q181 -142 123 -182T-24 -223L-4 -108Q35 -105 59 -98T100 -73T135 -25L151 5L61 507H175L218 254L233 149L284 254L411 507H526L257 0L230 -50ZM360 579H254L379 745L484 699L360 579Z" />
<glyph unicode="&#xfe;" glyph-name="thorn" horiz-adv-x="564" d="M264 -10Q233 -10 205 -4T151 14L111 -213H-4L164 740H279L224 430Q277 483 316 500T386 517Q436 517 468 486T512 399T512 271L505 227Q487 112 428 51T264 -10ZM344 410Q318 410 284 385T201
300L169 115Q192 103 213 98T254 93Q313 93 345 129T387 227L394 271Q406 343 393 376T344 410Z" />
<glyph unicode="&#xff;" glyph-name="ydieresis" horiz-adv-x="499" d="M230 -50Q181 -142 123 -182T-24 -223L-4 -108Q35 -105 59 -98T100 -73T135 -25L151 5L61 507H175L218 254L233 149L284 254L411 507H526L257 0L230 -50ZM525 609H416L435 716H544L525 609ZM719
609H610L629 716H738L719 609Z" />
<glyph unicode="&#x2013;" glyph-name="endash" horiz-adv-x="604" d="M52 265L69 365H573L556 265H52Z" />
<glyph unicode="&#x2014;" glyph-name="emdash" horiz-adv-x="804" d="M52 265L69 365H773L756 265H52Z" />
<glyph unicode="&#x2018;" glyph-name="quoteleft" horiz-adv-x="211" d="M55 388L58 407Q72 481 104 546T200 690L265 651Q236 602 218 564T189 486T167 388H55Z" />
<glyph unicode="&#x2019;" glyph-name="quoteright" horiz-adv-x="211" d="M255 680L252 661Q239 588 206 522T110 378L45 417Q75 466 92 504T121 583T143 680H255Z" />
<glyph unicode="&#x201a;" glyph-name="quotesinglbase" horiz-adv-x="211" d="M138 119L135 100Q122 27 89 -39T-7 -183L-72 -144Q-42 -95 -25 -57T4 21T26 119H138Z" />
<glyph unicode="&#x201c;" glyph-name="quotedblleft" horiz-adv-x="396" d="M240 388L243 407Q257 481 289 546T385 690L450 651Q421 602 403 564T374 486T352 388H240ZM55 388L58 407Q72 481 104 546T200 690L265 651Q236 602 218 564T189 486T167 388H55Z" />
<glyph unicode="&#x201d;" glyph-name="quotedblright" horiz-adv-x="396" d="M255 680L252 661Q239 588 206 522T110 378L45 417Q75 466 92 504T121 583T143 680H255ZM440 680L437 661Q424 588 391 522T295 378L230 417Q260 466 277 504T306 583T328 680H440Z" />
<glyph unicode="&#x201e;" glyph-name="quotedblbase" horiz-adv-x="396" d="M138 119L135 100Q122 27 89 -39T-7 -183L-72 -144Q-42 -95 -25 -57T4 21T26 119H138ZM323 119L320 100Q307 27 274 -39T178 -183L113 -144Q143 -95 160 -57T189 21T211 119H323Z" />
<glyph unicode="&#x2022;" glyph-name="bullet" horiz-adv-x="243" d="M195 262H50L75 405H220L195 262Z" />
<glyph unicode="&#x2039;" glyph-name="guilsinglleft" horiz-adv-x="392" d="M316 126L295 14L34 209L47 286L377 478L356 354L152 241L316 126Z" />
<glyph unicode="&#x203a;" glyph-name="guilsinglright" horiz-adv-x="393" d="M342 206L12 14L33 138L237 251L73 366L94 478L355 283L342 206Z" />
</font>
</defs>
</svg>
