<?xml version="1.0" encoding="UTF-8" standalone="no"?>
<!-- Created with Inkscape (http://www.inkscape.org/) -->

<svg
   width="200mm"
   height="144mm"
   viewBox="0 0 200 143.99999"
   version="1.1"
   id="svg1"
   inkscape:version="1.4.3 (0d15f75042, 2025-12-25)"
   sodipodi:docname="hsweb-logo.svg"
   inkscape:export-filename="hsweb-logo.png"
   inkscape:export-xdpi="38.099998"
   inkscape:export-ydpi="38.099998"
   xmlns:inkscape="http://www.inkscape.org/namespaces/inkscape"
   xmlns:sodipodi="http://sodipodi.sourceforge.net/DTD/sodipodi-0.dtd"
   xmlns="http://www.w3.org/2000/svg"
   xmlns:svg="http://www.w3.org/2000/svg">
  <sodipodi:namedview
     id="namedview1"
     pagecolor="#ffffff"
     bordercolor="#000000"
     borderopacity="0.25"
     inkscape:showpageshadow="2"
     inkscape:pageopacity="0.0"
     inkscape:pagecheckerboard="0"
     inkscape:deskcolor="#d1d1d1"
     inkscape:document-units="mm"
     inkscape:zoom="1"
     inkscape:cx="394"
     inkscape:cy="268"
     inkscape:window-width="1920"
     inkscape:window-height="1005"
     inkscape:window-x="0"
     inkscape:window-y="0"
     inkscape:window-maximized="1"
     inkscape:current-layer="layer1"
     inkscape:export-bgcolor="#ffffff00" />
  <defs
     id="defs1">
    <clipPath
       clipPathUnits="userSpaceOnUse"
       id="clipPath14">
      <rect
         x="-2.1144123"
         width="701"
         y="-645.12134"
         height="705"
         id="rect15"
         style="stroke-width:0.999997" />
    </clipPath>
    <clipPath
       clipPathUnits="userSpaceOnUse"
       id="clipPath17">
      <rect
         x="-0.81002021"
         width="572"
         y="-645.12134"
         height="705"
         id="rect18"
         style="stroke-width:0.999997" />
    </clipPath>
  </defs>
  <g
     inkscape:label="Katman 1"
     inkscape:groupmode="layer"
     id="layer1">
    <g
       id="g18"
       transform="matrix(0.28543582,0,0,0.28543582,-64.187849,-559.44607)"
       style="fill:#1c71d8;stroke-width:1.23593;stroke:#1a5fb4">
      <g
         transform="translate(242.48407,2445.563)"
         id="g5"
         style="fill:#1c71d8;fill-opacity:1;stroke-width:1.23593;stroke:#1a5fb4"
         clip-path="url(#clipPath14)">
        <g
           id="g4"
           style="fill:#1c71d8;stroke-width:1.23593;stroke:#1a5fb4">
          <path
             d="M 89.5625,-265.1875 H 0 v -197.875 c 0,-3.50781 2.144531,-5.26562 6.4375,-5.26562 H 83.125 c 4.289062,0 6.4375,1.75781 6.4375,5.26562 z m 260.51562,-203.14062 c 4.28907,0 6.4375,1.75781 6.4375,5.26562 V -5.265625 C 356.51562,-1.753906 354.36719,0 350.07812,0 h -76.6875 c -4.30468,0 -6.45312,-1.753906 -6.45312,-5.265625 V -87.8125 H 89.5625 V -5.265625 C 89.5625,-1.753906 87.414062,0 83.125,0 H 6.4375 C 2.144531,0 0,-1.753906 0,-5.265625 V -175.625 h 89.5625 v 0.59375 h 177.375 V -463.0625 c 0,-3.50781 2.14844,-5.26562 6.45312,-5.26562 z m 0,0"
             id="path4"
             style="fill:#1c71d8;stroke-width:1.23593;stroke:#1a5fb4" />
        </g>
      </g>
      <g
         transform="translate(617.1797,2445.563)"
         id="g10"
         style="fill:#1c71d8;fill-opacity:1;stroke-width:1.23593;stroke:#1a5fb4"
         clip-path="url(#clipPath17)">
        <g
           id="g9"
           style="fill:#1c71d8;stroke-width:1.23593;stroke:#1a5fb4">
          <path
             d="m 214.84375,-259.92187 c 24.58203,11.32421 43.41016,27.8125 56.48437,49.46875 13.08204,21.65625 19.625,46.33984 19.625,74.04687 0,29.27344 -6.92968,54.058594 -20.78125,74.359375 -13.85546,20.292969 -31.80859,35.710937 -53.85937,46.25 C 194.25781,-5.265625 170.74219,0 145.76562,0 c 0,0 -0.19531,0 -0.57812,0 v -84.296875 c 0.38281,0 0.57812,0 0.57812,0 15.61329,0 29.27344,-4.78125 40.98438,-14.34375 11.70703,-9.562505 17.5625,-22.148435 17.5625,-37.765625 0,-11.70703 -3.02734,-21.65625 -9.07813,-29.84375 -6.05468,-8.19531 -13.57031,-14.63281 -22.54687,-19.3125 -8.96875,-4.6875 -17.94531,-7.22656 -26.92188,-7.625 -1.94921,0 -9.75781,-0.67969 -23.42187,-2.04687 -13.65625,-1.36329 -29.070312,-5.94532 -46.234375,-13.75 -24.199219,-11.32032 -42.933594,-27.03125 -56.203125,-47.125 C 6.632812,-276.21094 0,-299.92187 0,-327.23437 c 0,-29.26954 6.925781,-54.44141 20.78125,-75.51563 13.851562,-21.08203 31.898438,-37.28125 54.140625,-48.59375 22.25,-11.32031 45.863285,-16.98437 70.843745,-16.98437 26.92579,0 51.11719,5.5625 72.57813,16.6875 21.46875,11.125 38.54687,26.74218 51.23437,46.84375 12.6875,20.09375 19.22266,43.40625 19.60938,69.9375 0.39453,0.78125 -0.0937,1.76171 -1.46875,2.9375 -1.36719,1.16796 -3.02344,1.75 -4.96875,1.75 h -73.17188 c -1.5625,0 -3.02734,-0.58204 -4.39062,-1.75 -1.36719,-1.17579 -2.04688,-2.15625 -2.04688,-2.9375 -0.39843,-16.78125 -6.25781,-29.17188 -17.57812,-37.17188 -11.3125,-8 -24.57813,-12 -39.79688,-12 -16,0 -29.76171,4.78125 -41.28124,14.34375 -11.511724,9.5625 -17.26563,23.71484 -17.26563,42.45313 0,16.78125 6.046875,29.5625 18.14063,38.34375 12.10156,8.78125 25.57031,13.17187 40.40624,13.17187 1.16407,0 5.06641,0.19531 11.70313,0.57813 6.63281,0.38671 15.125,1.65625 25.46875,3.8125 10.34375,2.14843 20.97656,5.94921 31.90625,11.40625 z m 0,0"
             id="path8"
             style="fill:#1c71d8;stroke-width:1.23593;stroke:#1a5fb4" />
        </g>
      </g>
    </g>
  </g>
</svg>
